{"glyphs":{"0":{"ha":797,"x_min":65,"x_max":731,"o":"m 399 -11 q 171 28 239 -11 q 84 163 103 68 q 65 478 65 258 q 84 792 65 697 q 171 927 103 888 q 399 967 239 967 q 626 927 558 967 q 712 793 693 888 q 731 478 731 699 q 712 163 731 257 q 626 28 693 68 q 399 -11 558 -11 m 399 165 q 483 181 461 165 q 510 253 504 196 q 515 478 515 310 q 510 703 515 646 q 483 775 504 760 q 399 790 461 790 q 315 775 336 790 q 287 702 293 760 q 281 478 281 644 q 287 253 281 311 q 315 181 293 196 q 399 165 336 165 z "},"1":{"ha":492,"x_min":24,"x_max":400,"o":"m 183 0 l 183 725 l 24 658 l 24 840 l 247 956 l 400 956 l 400 0 l 183 0 z "},"2":{"ha":743,"x_min":64,"x_max":678,"o":"m 274 178 l 678 178 l 678 0 l 64 0 l 64 128 q 72 315 64 254 q 106 414 79 375 q 197 482 133 453 l 339 549 l 381 568 q 433 597 417 585 q 455 630 449 610 q 461 688 461 650 q 449 757 461 736 q 407 784 436 778 q 313 790 378 790 q 79 774 226 790 l 79 939 q 220 958 138 950 q 372 967 303 967 q 534 949 469 967 q 638 873 599 931 q 678 701 678 815 q 644 519 678 578 q 538 428 610 460 l 333 336 q 303 321 314 328 q 286 303 292 314 q 276 267 278 289 q 274 203 274 246 l 274 178 z "},"3":{"ha":731,"x_min":53,"x_max":665,"o":"m 326 -11 q 189 -3 267 -11 q 53 17 111 6 l 53 179 q 294 165 192 165 q 390 172 360 165 q 435 201 421 178 q 449 276 449 224 q 438 353 449 328 q 403 387 428 378 q 332 396 379 396 l 186 396 l 186 569 l 332 569 q 397 577 375 569 q 430 608 419 585 q 440 681 440 632 q 428 755 440 732 q 385 784 415 778 q 285 790 354 790 q 57 775 179 790 l 57 939 q 189 959 113 951 q 328 967 265 967 q 522 940 450 967 q 625 860 593 914 q 657 717 657 806 q 622 562 657 615 q 511 490 586 508 l 511 485 q 628 415 590 465 q 665 254 665 365 q 636 106 665 163 q 533 19 607 49 q 326 -11 458 -11 z "},"4":{"ha":783,"x_min":39,"x_max":749,"o":"m 433 0 l 433 192 l 39 192 l 39 347 l 303 956 l 533 956 l 261 367 l 438 367 l 497 606 l 647 606 l 647 367 l 749 367 l 749 192 l 647 192 l 647 0 l 433 0 z "},"5":{"ha":753,"x_min":82,"x_max":693,"o":"m 82 179 q 317 165 214 165 q 420 175 388 165 q 465 211 453 185 q 476 296 476 238 q 463 383 476 356 q 417 418 450 410 q 313 426 385 426 q 90 413 201 426 l 90 956 l 636 956 l 636 778 l 283 778 l 283 592 q 426 601 346 601 q 590 568 532 601 q 671 473 649 535 q 693 314 693 411 q 665 124 693 193 q 565 22 638 56 q 356 -11 492 -11 q 217 -3 294 -11 q 82 15 140 4 l 82 179 z "},"6":{"ha":796,"x_min":65,"x_max":736,"o":"m 413 -11 q 256 1 315 -11 q 157 49 196 14 q 96 153 118 83 q 65 475 65 239 q 100 793 65 693 q 208 928 133 889 q 429 967 283 967 q 555 958 481 967 q 692 938 629 950 l 692 774 q 469 790 549 790 q 344 772 382 790 q 294 703 306 754 q 282 535 282 653 l 292 535 q 352 581 310 561 q 475 601 394 601 q 624 580 569 601 q 708 498 679 558 q 736 319 736 438 q 710 121 736 190 q 615 20 683 51 q 413 -11 546 -11 m 404 163 q 484 170 460 163 q 518 204 508 178 q 528 293 528 231 q 518 384 528 357 q 485 419 508 411 q 404 426 461 426 q 324 417 349 426 q 292 384 300 407 q 285 310 285 361 q 295 210 285 240 q 329 171 306 179 q 404 163 353 163 z "},"7":{"ha":694,"x_min":39,"x_max":656,"o":"m 117 0 l 428 778 l 39 778 l 39 956 l 656 956 l 656 796 l 351 0 l 117 0 z "},"8":{"ha":817,"x_min":64,"x_max":753,"o":"m 408 -11 q 199 18 274 -11 q 94 104 124 47 q 64 254 64 161 q 101 415 64 367 q 218 485 138 464 l 218 490 q 108 561 143 508 q 72 717 72 614 q 104 861 72 807 q 210 941 136 915 q 408 967 283 967 q 607 941 533 967 q 713 861 681 915 q 744 717 744 807 q 709 561 744 614 q 599 490 674 508 l 599 485 q 686 447 653 471 q 736 378 719 424 q 753 254 753 332 q 723 104 753 161 q 618 18 693 47 q 408 -11 543 -11 m 408 563 q 487 570 463 563 q 520 602 511 578 q 529 679 529 626 q 521 757 529 733 q 488 788 513 781 q 408 796 464 796 q 328 788 353 796 q 296 757 304 781 q 288 679 288 733 q 297 602 288 626 q 330 570 306 578 q 408 563 354 563 m 408 160 q 490 167 464 160 q 526 200 515 175 q 536 279 536 225 q 526 361 536 336 q 490 394 515 386 q 408 403 464 403 q 327 394 353 403 q 291 361 301 386 q 281 279 281 336 q 291 200 281 225 q 327 167 301 175 q 408 160 353 160 z "},"9":{"ha":796,"x_min":60,"x_max":731,"o":"m 367 -11 q 239 -3 313 -11 q 104 18 165 6 l 104 182 q 326 165 247 165 q 452 183 414 165 q 502 252 490 201 q 514 421 514 303 l 506 421 q 321 354 457 354 q 172 376 226 354 q 88 458 117 397 q 60 636 60 518 q 86 835 60 765 q 181 935 113 904 q 383 967 250 967 q 546 954 485 967 q 644 908 607 942 q 701 806 682 874 q 724 674 718 751 q 731 481 731 596 q 721 277 731 360 q 688 142 711 194 q 577 24 651 58 q 367 -11 503 -11 m 392 529 q 472 539 447 529 q 503 572 496 549 q 511 646 511 594 q 501 746 511 715 q 467 785 490 776 q 392 793 443 793 q 312 785 336 793 q 278 751 288 778 q 268 663 268 725 q 278 572 268 599 q 311 537 288 544 q 392 529 335 529 z "},"\u0000":{"ha":0,"x_min":0,"x_max":0,"o":""},"\r":{"ha":303,"x_min":0,"x_max":0,"o":""}," ":{"ha":303,"x_min":0,"x_max":0,"o":""},"A":{"ha":836,"x_min":11,"x_max":824,"o":"m 604 0 l 556 192 l 274 192 l 228 0 l 11 0 l 267 956 l 569 956 l 824 0 l 604 0 m 418 761 l 410 761 l 317 369 l 513 369 l 418 761 z "},"Á":{"ha":832,"x_min":11,"x_max":824,"o":"m 604 0 l 556 192 l 274 192 l 228 0 l 11 0 l 267 956 l 569 956 l 824 0 l 604 0 m 418 761 l 410 761 l 317 369 l 513 369 l 418 761 m 308 1042 l 308 1049 l 410 1243 l 607 1243 l 607 1236 l 458 1042 l 308 1042 z "},"Ă":{"ha":836,"x_min":11,"x_max":824,"o":"m 604 0 l 556 192 l 274 192 l 228 0 l 11 0 l 267 956 l 569 956 l 824 0 l 604 0 m 418 761 l 410 761 l 317 369 l 513 369 l 418 761 m 614 1233 q 600 1125 614 1167 q 543 1059 586 1083 q 417 1035 500 1035 q 291 1059 333 1035 q 235 1125 249 1083 q 221 1233 221 1167 l 338 1233 q 342 1183 338 1200 q 363 1156 346 1167 q 417 1146 379 1146 q 472 1156 454 1146 q 494 1184 490 1167 q 499 1233 499 1201 l 614 1233 z "},"Ắ":{"ha":836,"x_min":11,"x_max":824,"o":"m 604 0 l 556 192 l 274 192 l 228 0 l 11 0 l 267 956 l 569 956 l 824 0 l 604 0 m 418 761 l 410 761 l 317 369 l 513 369 l 418 761 m 613 1233 q 599 1125 613 1167 q 542 1059 585 1083 q 415 1035 499 1035 q 290 1059 332 1035 q 233 1125 247 1083 q 219 1233 219 1167 l 336 1233 q 340 1183 336 1200 q 361 1156 344 1167 q 415 1146 378 1146 q 471 1156 453 1146 q 493 1184 489 1167 q 497 1233 497 1201 l 613 1233 m 331 1272 l 331 1279 l 432 1474 l 629 1474 l 629 1467 l 481 1272 l 331 1272 z "},"Ặ":{"ha":836,"x_min":11,"x_max":824,"o":"m 604 0 l 556 192 l 274 192 l 228 0 l 11 0 l 267 956 l 569 956 l 824 0 l 604 0 m 418 761 l 410 761 l 317 369 l 513 369 l 418 761 m 310 -278 l 310 -86 l 526 -86 l 526 -278 l 310 -278 m 614 1233 q 600 1125 614 1167 q 543 1059 586 1083 q 417 1035 500 1035 q 291 1059 333 1035 q 235 1125 249 1083 q 221 1233 221 1167 l 338 1233 q 342 1183 338 1200 q 363 1156 346 1167 q 417 1146 379 1146 q 472 1156 454 1146 q 494 1184 490 1167 q 499 1233 499 1201 l 614 1233 z "},"Ằ":{"ha":836,"x_min":11,"x_max":824,"o":"m 604 0 l 556 192 l 274 192 l 228 0 l 11 0 l 267 956 l 569 956 l 824 0 l 604 0 m 418 761 l 410 761 l 317 369 l 513 369 l 418 761 m 619 1233 q 606 1125 619 1167 q 549 1059 592 1083 q 422 1035 506 1035 q 297 1059 339 1035 q 240 1125 254 1083 q 226 1233 226 1167 l 343 1233 q 347 1183 343 1200 q 368 1156 351 1167 q 422 1146 385 1146 q 478 1156 460 1146 q 500 1184 496 1167 q 504 1233 504 1201 l 619 1233 m 356 1272 l 207 1467 l 207 1474 l 404 1474 l 506 1279 l 506 1272 l 356 1272 z "},"Ẳ":{"ha":836,"x_min":11,"x_max":824,"o":"m 604 0 l 556 192 l 274 192 l 228 0 l 11 0 l 267 956 l 569 956 l 824 0 l 604 0 m 418 761 l 410 761 l 317 369 l 513 369 l 418 761 m 608 1233 q 594 1125 608 1167 q 538 1059 581 1083 q 411 1035 494 1035 q 285 1059 328 1035 q 229 1125 243 1083 q 215 1233 215 1167 l 332 1233 q 336 1183 332 1200 q 357 1156 340 1167 q 411 1146 374 1146 q 467 1156 449 1146 q 489 1184 485 1167 q 493 1233 493 1201 l 608 1233 m 342 1257 q 354 1315 342 1299 q 404 1343 367 1332 l 425 1350 q 467 1369 457 1361 q 476 1393 476 1376 q 463 1420 476 1415 q 403 1425 449 1425 q 261 1418 331 1425 l 261 1521 q 426 1536 346 1536 q 528 1527 489 1536 q 589 1490 567 1518 q 611 1408 611 1463 q 593 1334 611 1357 q 526 1293 575 1311 l 504 1285 q 465 1266 472 1274 q 457 1239 457 1258 l 342 1239 l 342 1257 z "},"Ẵ":{"ha":836,"x_min":11,"x_max":824,"o":"m 604 0 l 556 192 l 274 192 l 228 0 l 11 0 l 267 956 l 569 956 l 824 0 l 604 0 m 418 761 l 410 761 l 317 369 l 513 369 l 418 761 m 611 1233 q 597 1125 611 1167 q 540 1059 583 1083 q 414 1035 497 1035 q 288 1059 331 1035 q 232 1125 246 1083 q 218 1233 218 1167 l 335 1233 q 339 1183 335 1200 q 360 1156 343 1167 q 414 1146 376 1146 q 469 1156 451 1146 q 492 1184 488 1167 q 496 1233 496 1201 l 611 1233 m 663 1500 q 656 1390 663 1428 q 625 1332 650 1353 q 546 1311 600 1311 q 482 1317 514 1311 q 403 1336 450 1324 q 360 1347 390 1339 q 311 1354 329 1354 q 285 1343 290 1354 q 281 1296 281 1332 l 174 1296 q 180 1406 174 1368 q 211 1464 186 1443 q 290 1485 236 1485 q 353 1478 322 1485 q 435 1460 383 1472 q 485 1448 460 1453 q 525 1443 510 1443 q 551 1453 546 1443 q 556 1500 556 1464 l 663 1500 z "},"Ǎ":{"ha":836,"x_min":11,"x_max":824,"o":"m 604 0 l 556 192 l 274 192 l 228 0 l 11 0 l 267 956 l 569 956 l 824 0 l 604 0 m 418 761 l 410 761 l 317 369 l 513 369 l 418 761 m 321 1040 l 203 1222 l 203 1233 l 336 1233 l 418 1126 l 499 1233 l 632 1233 l 632 1222 l 514 1040 l 321 1040 z "},"Â":{"ha":832,"x_min":11,"x_max":824,"o":"m 604 0 l 556 192 l 274 192 l 228 0 l 11 0 l 267 956 l 569 956 l 824 0 l 604 0 m 418 761 l 410 761 l 317 369 l 513 369 l 418 761 m 201 1042 l 201 1053 l 319 1235 l 513 1235 l 632 1053 l 632 1042 l 497 1042 l 415 1149 l 335 1042 l 201 1042 z "},"Ấ":{"ha":836,"x_min":11,"x_max":824,"o":"m 604 0 l 556 192 l 274 192 l 228 0 l 11 0 l 267 956 l 569 956 l 824 0 l 604 0 m 418 761 l 410 761 l 317 369 l 513 369 l 418 761 m 201 1026 l 201 1038 l 319 1219 l 513 1219 l 632 1038 l 632 1026 l 497 1026 l 415 1133 l 335 1026 l 201 1026 m 440 1258 l 440 1265 l 542 1460 l 739 1460 l 739 1453 l 590 1258 l 440 1258 z "},"Ậ":{"ha":836,"x_min":11,"x_max":824,"o":"m 604 0 l 556 192 l 274 192 l 228 0 l 11 0 l 267 956 l 569 956 l 824 0 l 604 0 m 418 761 l 410 761 l 317 369 l 513 369 l 418 761 m 310 -278 l 310 -86 l 526 -86 l 526 -278 l 310 -278 m 203 1040 l 203 1051 l 321 1233 l 514 1233 l 633 1051 l 633 1040 l 499 1040 l 417 1147 l 336 1040 l 203 1040 z "},"Ầ":{"ha":836,"x_min":11,"x_max":824,"o":"m 604 0 l 556 192 l 274 192 l 228 0 l 11 0 l 267 956 l 569 956 l 824 0 l 604 0 m 418 761 l 410 761 l 317 369 l 513 369 l 418 761 m 194 1019 l 194 1031 l 313 1213 l 506 1213 l 625 1031 l 625 1019 l 490 1019 l 408 1126 l 328 1019 l 194 1019 m 489 1251 l 340 1446 l 340 1453 l 538 1453 l 639 1258 l 639 1251 l 489 1251 z "},"Ẩ":{"ha":836,"x_min":11,"x_max":824,"o":"m 604 0 l 556 192 l 274 192 l 228 0 l 11 0 l 267 956 l 569 956 l 824 0 l 604 0 m 418 761 l 410 761 l 317 369 l 513 369 l 418 761 m 203 1021 l 203 1032 l 321 1214 l 514 1214 l 633 1032 l 633 1021 l 499 1021 l 417 1128 l 336 1021 l 203 1021 m 474 1258 q 486 1317 474 1300 q 536 1344 499 1333 l 557 1351 q 599 1370 589 1363 q 608 1394 608 1378 q 594 1422 608 1417 q 535 1426 581 1426 q 393 1419 463 1426 l 393 1522 q 558 1538 478 1538 q 660 1528 621 1538 q 721 1492 699 1519 q 743 1410 743 1464 q 725 1335 743 1358 q 658 1294 707 1313 l 636 1286 q 597 1267 604 1275 q 589 1240 589 1260 l 474 1240 l 474 1258 z "},"Ẫ":{"ha":836,"x_min":11,"x_max":824,"o":"m 604 0 l 556 192 l 274 192 l 228 0 l 11 0 l 267 956 l 569 956 l 824 0 l 604 0 m 418 761 l 410 761 l 317 369 l 513 369 l 418 761 m 200 1019 l 200 1031 l 318 1213 l 511 1213 l 631 1031 l 631 1019 l 496 1019 l 414 1126 l 333 1019 l 200 1019 m 663 1453 q 656 1343 663 1381 q 625 1285 650 1306 q 546 1264 600 1264 q 482 1270 514 1264 q 403 1289 450 1276 q 360 1299 390 1292 q 311 1307 329 1307 q 285 1296 290 1307 q 281 1249 281 1285 l 174 1249 q 180 1358 174 1321 q 211 1417 186 1396 q 290 1438 236 1438 q 353 1431 322 1438 q 435 1413 383 1425 q 485 1401 460 1406 q 525 1396 510 1396 q 551 1406 546 1396 q 556 1453 556 1417 l 663 1453 z "},"Ȁ":{"ha":836,"x_min":11,"x_max":824,"o":"m 604 0 l 556 192 l 274 192 l 228 0 l 11 0 l 267 956 l 569 956 l 824 0 l 604 0 m 418 761 l 410 761 l 317 369 l 513 369 l 418 761 m 374 1049 l 250 1049 l 125 1213 l 125 1218 l 286 1218 l 374 1054 l 374 1049 m 608 1049 l 485 1049 l 360 1213 l 360 1218 l 522 1218 l 608 1054 l 608 1049 z "},"Ä":{"ha":832,"x_min":11,"x_max":824,"o":"m 604 0 l 556 192 l 274 192 l 228 0 l 11 0 l 267 956 l 569 956 l 824 0 l 604 0 m 418 761 l 410 761 l 317 369 l 513 369 l 418 761 m 200 1081 l 200 1228 l 368 1228 l 368 1081 l 200 1081 m 465 1081 l 465 1228 l 633 1228 l 633 1081 l 465 1081 z "},"Ạ":{"ha":836,"x_min":11,"x_max":824,"o":"m 604 0 l 556 192 l 274 192 l 228 0 l 11 0 l 267 956 l 569 956 l 824 0 l 604 0 m 418 761 l 410 761 l 317 369 l 513 369 l 418 761 m 310 -278 l 310 -86 l 526 -86 l 526 -278 l 310 -278 z "},"À":{"ha":832,"x_min":11,"x_max":824,"o":"m 604 0 l 556 192 l 274 192 l 228 0 l 11 0 l 267 956 l 569 956 l 824 0 l 604 0 m 418 761 l 410 761 l 317 369 l 513 369 l 418 761 m 363 1042 l 214 1236 l 214 1243 l 411 1243 l 513 1049 l 513 1042 l 363 1042 z "},"Ả":{"ha":836,"x_min":11,"x_max":824,"o":"m 604 0 l 556 192 l 274 192 l 228 0 l 11 0 l 267 956 l 569 956 l 824 0 l 604 0 m 418 761 l 410 761 l 317 369 l 513 369 l 418 761 m 324 1026 q 336 1085 324 1068 q 386 1113 349 1101 l 407 1121 q 449 1139 440 1132 q 458 1163 458 1146 q 444 1190 458 1185 q 385 1196 429 1196 q 243 1189 313 1196 l 243 1292 q 408 1307 328 1307 q 510 1298 471 1307 q 571 1261 549 1289 q 593 1179 593 1233 q 575 1104 593 1128 q 508 1064 557 1081 l 486 1056 q 447 1036 454 1043 q 439 1010 439 1029 l 324 1010 l 324 1026 z "},"Ȃ":{"ha":836,"x_min":11,"x_max":824,"o":"m 604 0 l 556 192 l 274 192 l 228 0 l 11 0 l 267 956 l 569 956 l 824 0 l 604 0 m 418 761 l 410 761 l 317 369 l 513 369 l 418 761 m 222 1043 q 236 1151 222 1110 q 293 1217 250 1193 q 419 1242 336 1242 q 545 1217 503 1242 q 601 1151 588 1193 q 615 1043 615 1110 l 499 1043 q 494 1093 499 1076 q 474 1120 490 1110 q 419 1131 457 1131 q 364 1120 382 1131 q 342 1092 346 1110 q 338 1043 338 1075 l 222 1043 z "},"Ā":{"ha":836,"x_min":11,"x_max":824,"o":"m 604 0 l 556 192 l 274 192 l 228 0 l 11 0 l 267 956 l 569 956 l 824 0 l 604 0 m 418 761 l 410 761 l 317 369 l 513 369 l 418 761 m 251 1064 l 251 1233 l 586 1233 l 586 1064 l 251 1064 z "},"Ą":{"ha":832,"x_min":11,"x_max":821,"o":"m 685 -114 q 698 -151 685 -137 q 746 -164 711 -164 q 767 -162 758 -164 l 767 -267 q 682 -272 728 -272 q 524 -154 524 -272 q 544 -75 524 -115 q 601 1 565 -35 l 554 193 l 272 193 l 225 0 l 11 0 l 264 956 l 568 956 l 821 0 l 757 0 q 707 -54 729 -22 q 685 -114 685 -86 m 313 365 l 513 365 l 418 761 l 408 761 l 313 365 z "},"Å":{"ha":836,"x_min":11,"x_max":824,"o":"m 824 0 l 604 0 l 556 192 l 274 192 l 228 0 l 11 0 l 265 954 q 231 1000 238 971 q 224 1086 224 1029 q 235 1183 224 1150 q 287 1232 246 1215 q 417 1249 328 1249 q 549 1232 507 1249 q 601 1183 590 1215 q 613 1086 613 1150 q 605 1002 613 1032 q 571 956 597 972 l 824 0 m 417 1156 q 365 1149 381 1156 q 345 1130 349 1143 q 342 1086 342 1117 q 345 1042 342 1056 q 365 1023 349 1029 q 417 1017 381 1017 q 470 1023 454 1017 q 490 1042 486 1029 q 494 1086 494 1054 q 490 1131 494 1118 q 470 1149 486 1143 q 417 1156 454 1156 m 317 369 l 513 369 l 418 761 l 410 761 l 317 369 z "},"Ǻ":{"ha":836,"x_min":11,"x_max":824,"o":"m 824 0 l 604 0 l 556 192 l 274 192 l 228 0 l 11 0 l 265 954 q 231 1000 238 971 q 224 1086 224 1029 q 235 1183 224 1150 q 287 1232 246 1215 q 417 1249 328 1249 q 549 1232 507 1249 q 601 1183 590 1215 q 613 1086 613 1150 q 605 1002 613 1032 q 571 956 597 972 l 824 0 m 417 1156 q 365 1149 381 1156 q 345 1130 349 1143 q 342 1086 342 1117 q 345 1042 342 1056 q 365 1023 349 1029 q 417 1017 381 1017 q 470 1023 454 1017 q 490 1042 486 1029 q 494 1086 494 1054 q 490 1131 494 1118 q 470 1149 486 1143 q 417 1156 454 1156 m 317 369 l 513 369 l 418 761 l 410 761 l 317 369 m 333 1325 l 333 1332 l 435 1526 l 632 1526 l 632 1519 l 483 1325 l 333 1325 z "},"Ã":{"ha":832,"x_min":11,"x_max":824,"o":"m 604 0 l 556 192 l 274 192 l 228 0 l 11 0 l 267 956 l 569 956 l 824 0 l 604 0 m 418 761 l 410 761 l 317 369 l 513 369 l 418 761 m 660 1246 q 653 1136 660 1174 q 622 1078 647 1099 q 543 1057 597 1057 q 479 1063 511 1057 q 400 1082 447 1069 q 357 1092 388 1085 q 308 1100 326 1100 q 283 1089 288 1100 q 278 1042 278 1078 l 171 1042 q 177 1151 171 1114 q 208 1210 183 1189 q 288 1231 233 1231 q 350 1224 319 1231 q 432 1206 381 1218 q 482 1194 457 1199 q 522 1189 507 1189 q 548 1199 543 1189 q 553 1246 553 1210 l 660 1246 z "},"Æ":{"ha":1163,"x_min":-21,"x_max":1099,"o":"m 572 0 l 544 192 l 264 192 l 194 0 l -21 0 l 342 956 l 1099 956 l 1099 776 l 674 776 l 704 571 l 1046 571 l 1046 393 l 729 393 l 761 179 l 1099 179 l 1099 0 l 572 0 m 469 763 l 463 763 l 325 369 l 524 369 l 469 763 z "},"Ǽ":{"ha":1163,"x_min":-21,"x_max":1099,"o":"m 572 0 l 544 192 l 264 192 l 194 0 l -21 0 l 342 956 l 1099 956 l 1099 776 l 674 776 l 704 571 l 1046 571 l 1046 393 l 729 393 l 761 179 l 1099 179 l 1099 0 l 572 0 m 469 763 l 463 763 l 325 369 l 524 369 l 469 763 m 499 1032 l 499 1039 l 600 1233 l 797 1233 l 797 1226 l 649 1032 l 499 1032 z "},"B":{"ha":817,"x_min":89,"x_max":758,"o":"m 89 956 l 496 956 q 687 896 624 956 q 750 715 750 836 q 714 561 750 614 q 601 490 678 508 l 601 485 q 722 414 685 465 q 758 254 758 363 q 697 65 758 129 q 496 0 636 0 l 89 0 l 89 956 m 426 571 q 493 579 471 571 q 524 609 515 588 q 532 674 532 631 q 524 740 532 719 q 495 769 517 761 q 426 776 474 776 l 303 776 l 303 571 l 426 571 m 432 179 q 501 188 479 179 q 531 217 522 196 q 539 286 539 239 q 531 356 539 333 q 500 386 522 378 q 432 394 478 394 l 303 394 l 303 179 l 432 179 z "},"C":{"ha":681,"x_min":65,"x_max":631,"o":"m 631 13 q 532 -4 592 3 q 419 -11 472 -11 q 188 33 263 -11 q 90 176 114 76 q 65 478 65 276 q 90 777 65 676 q 190 922 115 878 q 419 967 264 967 q 531 960 474 967 q 626 942 589 953 l 626 775 q 469 788 508 788 q 340 769 375 788 q 294 692 304 750 q 285 478 285 635 q 294 263 285 321 q 340 187 304 206 q 469 168 375 168 q 631 181 550 168 l 631 13 z "},"Ć":{"ha":681,"x_min":65,"x_max":631,"o":"m 631 13 q 532 -4 592 3 q 419 -11 472 -11 q 188 33 263 -11 q 90 176 114 76 q 65 478 65 276 q 90 777 65 676 q 190 922 115 878 q 419 967 264 967 q 531 960 474 967 q 626 942 589 953 l 626 775 q 469 788 508 788 q 340 769 375 788 q 294 692 304 750 q 285 478 285 635 q 294 263 285 321 q 340 187 304 206 q 469 168 375 168 q 631 181 550 168 l 631 13 m 257 1032 l 257 1039 l 358 1233 l 556 1233 l 556 1226 l 407 1032 l 257 1032 z "},"Č":{"ha":681,"x_min":65,"x_max":631,"o":"m 631 13 q 532 -4 592 3 q 419 -11 472 -11 q 188 33 263 -11 q 90 176 114 76 q 65 478 65 276 q 90 777 65 676 q 190 922 115 878 q 419 967 264 967 q 531 960 474 967 q 626 942 589 953 l 626 775 q 469 788 508 788 q 340 769 375 788 q 294 692 304 750 q 285 478 285 635 q 294 263 285 321 q 340 187 304 206 q 469 168 375 168 q 631 181 550 168 l 631 13 m 243 1040 l 125 1222 l 125 1233 l 258 1233 l 340 1126 l 421 1233 l 554 1233 l 554 1222 l 436 1040 l 243 1040 z "},"Ç":{"ha":681,"x_min":65,"x_max":631,"o":"m 469 168 q 631 181 550 168 l 631 13 q 532 -4 592 3 q 419 -11 472 -11 l 406 -11 l 358 -262 l 178 -262 l 178 -256 l 272 1 q 140 74 183 21 q 81 219 96 126 q 65 478 65 313 q 90 777 65 676 q 190 922 115 878 q 419 967 264 967 q 531 960 474 967 q 626 942 589 953 l 626 775 q 469 788 508 788 q 340 769 375 788 q 294 692 304 750 q 285 478 285 635 q 294 263 285 321 q 340 187 304 206 q 469 168 375 168 z "},"Ĉ":{"ha":681,"x_min":65,"x_max":631,"o":"m 631 13 q 532 -4 592 3 q 419 -11 472 -11 q 188 33 263 -11 q 90 176 114 76 q 65 478 65 276 q 90 777 65 676 q 190 922 115 878 q 419 967 264 967 q 531 960 474 967 q 626 942 589 953 l 626 775 q 469 788 508 788 q 340 769 375 788 q 294 692 304 750 q 285 478 285 635 q 294 263 285 321 q 340 187 304 206 q 469 168 375 168 q 631 181 550 168 l 631 13 m 125 1040 l 125 1051 l 243 1233 l 436 1233 l 556 1051 l 556 1040 l 421 1040 l 339 1147 l 258 1040 l 125 1040 z "},"Ċ":{"ha":681,"x_min":65,"x_max":631,"o":"m 631 13 q 532 -4 592 3 q 419 -11 472 -11 q 188 33 263 -11 q 90 176 114 76 q 65 478 65 276 q 90 777 65 676 q 190 922 115 878 q 419 967 264 967 q 531 960 474 967 q 626 942 589 953 l 626 775 q 469 788 508 788 q 340 769 375 788 q 294 692 304 750 q 285 478 285 635 q 294 263 285 321 q 340 187 304 206 q 469 168 375 168 q 631 181 550 168 l 631 13 m 256 1068 l 256 1215 l 424 1215 l 424 1068 l 256 1068 z "},"D":{"ha":828,"x_min":89,"x_max":761,"o":"m 89 956 l 389 956 q 647 914 569 956 q 742 781 724 872 q 761 478 761 689 q 742 175 761 267 q 647 42 724 83 q 389 0 569 0 l 89 0 l 89 956 m 383 179 q 499 193 469 179 q 535 262 528 207 q 543 478 543 317 q 535 694 543 639 q 498 763 526 749 q 383 776 469 776 l 304 776 l 304 179 l 383 179 z "},"Ǳ":{"ha":1569,"x_min":89,"x_max":1518,"o":"m 89 956 l 389 956 q 647 914 569 956 q 742 781 724 872 q 761 478 761 689 q 742 175 761 267 q 647 42 724 83 q 389 0 569 0 l 89 0 l 89 956 m 383 179 q 499 193 469 179 q 535 262 528 207 q 543 478 543 317 q 535 694 543 639 q 498 763 526 749 q 383 776 469 776 l 304 776 l 304 179 l 383 179 m 881 0 l 881 171 l 1257 776 l 893 776 l 893 956 l 1515 956 l 1515 789 l 1136 179 l 1518 179 l 1518 0 l 881 0 z "},"Ǆ":{"ha":1569,"x_min":89,"x_max":1518,"o":"m 89 956 l 389 956 q 647 914 569 956 q 742 781 724 872 q 761 478 761 689 q 742 175 761 267 q 647 42 724 83 q 389 0 569 0 l 89 0 l 89 956 m 383 179 q 499 193 469 179 q 535 262 528 207 q 543 478 543 317 q 535 694 543 639 q 498 763 526 749 q 383 776 469 776 l 304 776 l 304 179 l 383 179 m 881 0 l 881 171 l 1257 776 l 893 776 l 893 956 l 1515 956 l 1515 789 l 1136 179 l 1518 179 l 1518 0 l 881 0 m 1093 1040 l 975 1222 l 975 1233 l 1108 1233 l 1190 1126 l 1271 1233 l 1404 1233 l 1404 1222 l 1286 1040 l 1093 1040 z "},"Ð":{"ha":828,"x_min":8,"x_max":761,"o":"m 89 403 l 8 403 l 8 564 l 89 564 l 89 956 l 389 956 q 647 914 569 956 q 742 781 724 872 q 761 478 761 689 q 742 175 761 267 q 647 42 724 83 q 389 0 569 0 l 89 0 l 89 403 m 383 179 q 499 193 469 179 q 535 262 528 207 q 543 478 543 317 q 535 694 543 639 q 498 763 526 749 q 383 776 469 776 l 304 776 l 304 564 l 408 564 l 408 403 l 304 403 l 304 179 l 383 179 z "},"Ď":{"ha":828,"x_min":89,"x_max":761,"o":"m 89 956 l 389 956 q 647 914 569 956 q 742 781 724 872 q 761 478 761 689 q 742 175 761 267 q 647 42 724 83 q 389 0 569 0 l 89 0 l 89 956 m 383 179 q 499 193 469 179 q 535 262 528 207 q 543 478 543 317 q 535 694 543 639 q 498 763 526 749 q 383 776 469 776 l 304 776 l 304 179 l 383 179 m 317 1040 l 199 1222 l 199 1233 l 332 1233 l 414 1126 l 494 1233 l 628 1233 l 628 1222 l 510 1040 l 317 1040 z "},"Đ":{"ha":828,"x_min":8,"x_max":761,"o":"m 89 403 l 8 403 l 8 564 l 89 564 l 89 956 l 389 956 q 647 914 569 956 q 742 781 724 872 q 761 478 761 689 q 742 175 761 267 q 647 42 724 83 q 389 0 569 0 l 89 0 l 89 403 m 383 179 q 499 193 469 179 q 535 262 528 207 q 543 478 543 317 q 535 694 543 639 q 498 763 526 749 q 383 776 469 776 l 304 776 l 304 564 l 408 564 l 408 403 l 304 403 l 304 179 l 383 179 z "},"Ḍ":{"ha":828,"x_min":89,"x_max":761,"o":"m 89 956 l 389 956 q 647 914 569 956 q 742 781 724 872 q 761 478 761 689 q 742 175 761 267 q 647 42 724 83 q 389 0 569 0 l 89 0 l 89 956 m 383 179 q 499 193 469 179 q 535 262 528 207 q 543 478 543 317 q 535 694 543 639 q 498 763 526 749 q 383 776 469 776 l 304 776 l 304 179 l 383 179 m 306 -278 l 306 -86 l 522 -86 l 522 -278 l 306 -278 z "},"ǲ":{"ha":1471,"x_min":89,"x_max":1418,"o":"m 89 956 l 389 956 q 647 914 569 956 q 742 781 724 872 q 761 478 761 689 q 742 175 761 267 q 647 42 724 83 q 389 0 569 0 l 89 0 l 89 956 m 383 179 q 499 193 469 179 q 535 262 528 207 q 543 478 543 317 q 535 694 543 639 q 498 763 526 749 q 383 776 469 776 l 304 776 l 304 179 l 383 179 m 881 0 l 881 149 l 1169 549 l 894 549 l 894 708 l 1415 708 l 1415 560 l 1126 160 l 1418 160 l 1418 0 l 881 0 z "},"ǅ":{"ha":1471,"x_min":89,"x_max":1418,"o":"m 89 956 l 389 956 q 647 914 569 956 q 742 781 724 872 q 761 478 761 689 q 742 175 761 267 q 647 42 724 83 q 389 0 569 0 l 89 0 l 89 956 m 383 179 q 499 193 469 179 q 535 262 528 207 q 543 478 543 317 q 535 694 543 639 q 498 763 526 749 q 383 776 469 776 l 304 776 l 304 179 l 383 179 m 881 0 l 881 149 l 1169 549 l 894 549 l 894 708 l 1415 708 l 1415 560 l 1126 160 l 1418 160 l 1418 0 l 881 0 m 1053 839 l 935 1021 l 935 1032 l 1068 1032 l 1150 925 l 1231 1032 l 1364 1032 l 1364 1021 l 1246 839 l 1053 839 z "},"E":{"ha":728,"x_min":89,"x_max":664,"o":"m 89 0 l 89 956 l 664 956 l 664 776 l 304 776 l 304 572 l 613 572 l 613 393 l 304 393 l 304 179 l 664 179 l 664 0 l 89 0 z "},"É":{"ha":719,"x_min":89,"x_max":664,"o":"m 89 0 l 89 956 l 664 956 l 664 776 l 304 776 l 304 572 l 613 572 l 613 393 l 304 393 l 304 179 l 664 179 l 664 0 l 89 0 m 296 1042 l 296 1049 l 397 1243 l 594 1243 l 594 1236 l 446 1042 l 296 1042 z "},"Ĕ":{"ha":728,"x_min":89,"x_max":664,"o":"m 89 0 l 89 956 l 664 956 l 664 776 l 304 776 l 304 572 l 613 572 l 613 393 l 304 393 l 304 179 l 664 179 l 664 0 l 89 0 m 565 1233 q 551 1125 565 1167 q 494 1059 538 1083 q 368 1035 451 1035 q 242 1059 285 1035 q 186 1125 200 1083 q 172 1233 172 1167 l 289 1233 q 293 1183 289 1200 q 314 1156 297 1167 q 368 1146 331 1146 q 424 1156 406 1146 q 446 1184 442 1167 q 450 1233 450 1201 l 565 1233 z "},"Ě":{"ha":728,"x_min":89,"x_max":664,"o":"m 89 0 l 89 956 l 664 956 l 664 776 l 304 776 l 304 572 l 613 572 l 613 393 l 304 393 l 304 179 l 664 179 l 664 0 l 89 0 m 272 1040 l 154 1222 l 154 1233 l 288 1233 l 369 1126 l 450 1233 l 583 1233 l 583 1222 l 465 1040 l 272 1040 z "},"Ê":{"ha":719,"x_min":89,"x_max":664,"o":"m 89 0 l 89 956 l 664 956 l 664 776 l 304 776 l 304 572 l 613 572 l 613 393 l 304 393 l 304 179 l 664 179 l 664 0 l 89 0 m 154 1042 l 154 1053 l 272 1235 l 465 1235 l 585 1053 l 585 1042 l 450 1042 l 368 1149 l 288 1042 l 154 1042 z "},"Ế":{"ha":728,"x_min":89,"x_max":690,"o":"m 89 0 l 89 956 l 664 956 l 664 776 l 304 776 l 304 572 l 613 572 l 613 393 l 304 393 l 304 179 l 664 179 l 664 0 l 89 0 m 153 1026 l 153 1038 l 271 1219 l 464 1219 l 583 1038 l 583 1026 l 449 1026 l 367 1133 l 286 1026 l 153 1026 m 392 1258 l 392 1265 l 493 1460 l 690 1460 l 690 1453 l 542 1258 l 392 1258 z "},"Ệ":{"ha":728,"x_min":89,"x_max":664,"o":"m 89 0 l 89 956 l 664 956 l 664 776 l 304 776 l 304 572 l 613 572 l 613 393 l 304 393 l 304 179 l 664 179 l 664 0 l 89 0 m 261 -278 l 261 -86 l 478 -86 l 478 -278 l 261 -278 m 154 1040 l 154 1051 l 272 1233 l 465 1233 l 585 1051 l 585 1040 l 450 1040 l 368 1147 l 288 1040 l 154 1040 z "},"Ề":{"ha":728,"x_min":89,"x_max":664,"o":"m 89 0 l 89 956 l 664 956 l 664 776 l 304 776 l 304 572 l 613 572 l 613 393 l 304 393 l 304 179 l 664 179 l 664 0 l 89 0 m 146 1019 l 146 1031 l 264 1213 l 457 1213 l 576 1031 l 576 1019 l 442 1019 l 360 1126 l 279 1019 l 146 1019 m 440 1251 l 292 1446 l 292 1453 l 489 1453 l 590 1258 l 590 1251 l 440 1251 z "},"Ể":{"ha":728,"x_min":89,"x_max":694,"o":"m 89 0 l 89 956 l 664 956 l 664 776 l 304 776 l 304 572 l 613 572 l 613 393 l 304 393 l 304 179 l 664 179 l 664 0 l 89 0 m 154 1021 l 154 1032 l 272 1214 l 465 1214 l 585 1032 l 585 1021 l 450 1021 l 368 1128 l 288 1021 l 154 1021 m 425 1258 q 438 1317 425 1300 q 488 1344 450 1333 l 508 1351 q 550 1370 540 1363 q 560 1394 560 1378 q 546 1422 560 1417 q 486 1426 532 1426 q 344 1419 414 1426 l 344 1522 q 510 1538 429 1538 q 611 1528 572 1538 q 672 1492 650 1519 q 694 1410 694 1464 q 676 1335 694 1358 q 610 1294 658 1313 l 588 1286 q 548 1267 556 1275 q 540 1240 540 1260 l 425 1240 l 425 1258 z "},"Ễ":{"ha":728,"x_min":89,"x_max":664,"o":"m 89 0 l 89 956 l 664 956 l 664 776 l 304 776 l 304 572 l 613 572 l 613 393 l 304 393 l 304 179 l 664 179 l 664 0 l 89 0 m 151 1019 l 151 1031 l 269 1213 l 463 1213 l 582 1031 l 582 1019 l 447 1019 l 365 1126 l 285 1019 l 151 1019 m 614 1453 q 608 1343 614 1381 q 576 1285 601 1306 q 497 1264 551 1264 q 433 1270 465 1264 q 354 1289 401 1276 q 311 1299 342 1292 q 263 1307 281 1307 q 237 1296 242 1307 q 232 1249 232 1285 l 125 1249 q 131 1358 125 1321 q 163 1417 138 1396 q 242 1438 188 1438 q 304 1431 274 1438 q 386 1413 335 1425 q 436 1401 411 1406 q 476 1396 461 1396 q 502 1406 497 1396 q 507 1453 507 1417 l 614 1453 z "},"Ȅ":{"ha":728,"x_min":76,"x_max":664,"o":"m 89 0 l 89 956 l 664 956 l 664 776 l 304 776 l 304 572 l 613 572 l 613 393 l 304 393 l 304 179 l 664 179 l 664 0 l 89 0 m 325 1049 l 201 1049 l 76 1213 l 76 1218 l 238 1218 l 325 1054 l 325 1049 m 560 1049 l 436 1049 l 311 1213 l 311 1218 l 474 1218 l 560 1054 l 560 1049 z "},"Ë":{"ha":719,"x_min":89,"x_max":664,"o":"m 89 0 l 89 956 l 664 956 l 664 776 l 304 776 l 304 572 l 613 572 l 613 393 l 304 393 l 304 179 l 664 179 l 664 0 l 89 0 m 157 1071 l 157 1218 l 325 1218 l 325 1071 l 157 1071 m 422 1071 l 422 1218 l 590 1218 l 590 1071 l 422 1071 z "},"Ė":{"ha":728,"x_min":89,"x_max":664,"o":"m 89 0 l 89 956 l 664 956 l 664 776 l 304 776 l 304 572 l 613 572 l 613 393 l 304 393 l 304 179 l 664 179 l 664 0 l 89 0 m 285 1068 l 285 1215 l 453 1215 l 453 1068 l 285 1068 z "},"Ẹ":{"ha":728,"x_min":89,"x_max":664,"o":"m 89 0 l 89 956 l 664 956 l 664 776 l 304 776 l 304 572 l 613 572 l 613 393 l 304 393 l 304 179 l 664 179 l 664 0 l 89 0 m 261 -278 l 261 -86 l 478 -86 l 478 -278 l 261 -278 z "},"È":{"ha":719,"x_min":89,"x_max":664,"o":"m 89 0 l 89 956 l 664 956 l 664 776 l 304 776 l 304 572 l 613 572 l 613 393 l 304 393 l 304 179 l 664 179 l 664 0 l 89 0 m 325 1042 l 176 1236 l 176 1243 l 374 1243 l 475 1049 l 475 1042 l 325 1042 z "},"Ẻ":{"ha":728,"x_min":89,"x_max":664,"o":"m 89 0 l 89 956 l 664 956 l 664 776 l 304 776 l 304 572 l 613 572 l 613 393 l 304 393 l 304 179 l 664 179 l 664 0 l 89 0 m 275 1026 q 288 1085 275 1068 q 338 1113 300 1101 l 358 1121 q 401 1139 392 1132 q 410 1163 410 1146 q 395 1190 410 1185 q 336 1196 381 1196 q 194 1189 264 1196 l 194 1292 q 360 1307 279 1307 q 461 1298 422 1307 q 522 1261 500 1289 q 544 1179 544 1233 q 526 1104 544 1128 q 460 1064 508 1081 l 438 1056 q 398 1036 406 1043 q 390 1010 390 1029 l 275 1010 l 275 1026 z "},"Ȇ":{"ha":728,"x_min":89,"x_max":664,"o":"m 89 0 l 89 956 l 664 956 l 664 776 l 304 776 l 304 572 l 613 572 l 613 393 l 304 393 l 304 179 l 664 179 l 664 0 l 89 0 m 174 1043 q 188 1151 174 1110 q 244 1217 201 1193 q 371 1242 288 1242 q 497 1217 454 1242 q 553 1151 539 1193 q 567 1043 567 1110 l 450 1043 q 446 1093 450 1076 q 425 1120 442 1110 q 371 1131 408 1131 q 315 1120 333 1131 q 293 1092 297 1110 q 289 1043 289 1075 l 174 1043 z "},"Ē":{"ha":728,"x_min":89,"x_max":664,"o":"m 89 0 l 89 956 l 664 956 l 664 776 l 304 776 l 304 572 l 613 572 l 613 393 l 304 393 l 304 179 l 664 179 l 664 0 l 89 0 m 203 1064 l 203 1233 l 538 1233 l 538 1064 l 203 1064 z "},"Ę":{"ha":719,"x_min":86,"x_max":657,"o":"m 564 -272 q 441 -240 478 -272 q 404 -158 404 -208 q 497 0 404 -79 l 86 0 l 86 956 l 657 956 l 657 779 l 303 779 l 303 569 l 606 569 l 606 394 l 303 394 l 303 176 l 657 176 l 657 0 q 594 -53 622 -21 q 565 -118 565 -86 q 579 -151 565 -137 q 625 -164 593 -164 q 647 -162 640 -164 l 647 -267 q 564 -272 611 -272 z "},"Ẽ":{"ha":728,"x_min":89,"x_max":664,"o":"m 89 0 l 89 956 l 664 956 l 664 776 l 304 776 l 304 572 l 613 572 l 613 393 l 304 393 l 304 179 l 664 179 l 664 0 l 89 0 m 614 1233 q 608 1124 614 1161 q 576 1065 601 1086 q 497 1044 551 1044 q 433 1051 465 1044 q 354 1069 401 1057 q 311 1080 342 1072 q 263 1088 281 1088 q 237 1076 242 1088 q 232 1029 232 1065 l 125 1029 q 131 1139 125 1101 q 163 1197 138 1176 q 242 1218 188 1218 q 304 1212 274 1218 q 386 1193 335 1206 q 436 1181 411 1186 q 476 1176 461 1176 q 502 1187 497 1176 q 507 1233 507 1197 l 614 1233 z "},"F":{"ha":681,"x_min":89,"x_max":639,"o":"m 89 0 l 89 956 l 639 956 l 639 776 l 304 776 l 304 547 l 599 547 l 599 367 l 304 367 l 304 0 l 89 0 z "},"G":{"ha":810,"x_min":65,"x_max":731,"o":"m 418 385 l 418 556 l 731 556 l 731 21 q 588 -2 669 7 q 439 -11 507 -11 q 202 27 279 -11 q 95 167 125 65 q 65 478 65 268 q 96 781 65 678 q 206 925 126 883 q 446 967 286 967 q 606 956 524 967 q 726 936 688 946 l 726 769 q 518 788 582 788 q 357 772 400 788 q 299 697 314 757 q 283 478 283 636 q 294 271 283 333 q 337 186 304 208 q 446 164 369 164 q 529 167 479 164 l 529 385 l 418 385 z "},"Ǵ":{"ha":810,"x_min":65,"x_max":731,"o":"m 418 385 l 418 556 l 731 556 l 731 21 q 588 -2 669 7 q 439 -11 507 -11 q 202 27 279 -11 q 95 167 125 65 q 65 478 65 268 q 96 781 65 678 q 206 925 126 883 q 446 967 286 967 q 606 956 524 967 q 726 936 688 946 l 726 769 q 518 788 582 788 q 357 772 400 788 q 299 697 314 757 q 283 478 283 636 q 294 271 283 333 q 337 186 304 208 q 446 164 369 164 q 529 167 479 164 l 529 385 l 418 385 m 321 1032 l 321 1039 l 422 1233 l 619 1233 l 619 1226 l 471 1032 l 321 1032 z "},"Ğ":{"ha":810,"x_min":65,"x_max":731,"o":"m 418 385 l 418 556 l 731 556 l 731 21 q 588 -2 669 7 q 439 -11 507 -11 q 202 27 279 -11 q 95 167 125 65 q 65 478 65 268 q 96 781 65 678 q 206 925 126 883 q 446 967 286 967 q 606 956 524 967 q 726 936 688 946 l 726 769 q 518 788 582 788 q 357 772 400 788 q 299 697 314 757 q 283 478 283 636 q 294 271 283 333 q 337 186 304 208 q 446 164 369 164 q 529 167 479 164 l 529 385 l 418 385 m 600 1233 q 586 1125 600 1167 q 529 1059 572 1083 q 403 1035 486 1035 q 277 1059 319 1035 q 221 1125 235 1083 q 207 1233 207 1167 l 324 1233 q 328 1183 324 1200 q 349 1156 332 1167 q 403 1146 365 1146 q 458 1156 440 1146 q 481 1184 476 1167 q 485 1233 485 1201 l 600 1233 z "},"Ǧ":{"ha":810,"x_min":65,"x_max":731,"o":"m 418 385 l 418 556 l 731 556 l 731 21 q 588 -2 669 7 q 439 -11 507 -11 q 202 27 279 -11 q 95 167 125 65 q 65 478 65 268 q 96 781 65 678 q 206 925 126 883 q 446 967 286 967 q 606 956 524 967 q 726 936 688 946 l 726 769 q 518 788 582 788 q 357 772 400 788 q 299 697 314 757 q 283 478 283 636 q 294 271 283 333 q 337 186 304 208 q 446 164 369 164 q 529 167 479 164 l 529 385 l 418 385 m 307 1040 l 189 1222 l 189 1233 l 322 1233 l 404 1126 l 485 1233 l 618 1233 l 618 1222 l 500 1040 l 307 1040 z "},"Ĝ":{"ha":810,"x_min":65,"x_max":731,"o":"m 418 385 l 418 556 l 731 556 l 731 21 q 588 -2 669 7 q 439 -11 507 -11 q 202 27 279 -11 q 95 167 125 65 q 65 478 65 268 q 96 781 65 678 q 206 925 126 883 q 446 967 286 967 q 606 956 524 967 q 726 936 688 946 l 726 769 q 518 788 582 788 q 357 772 400 788 q 299 697 314 757 q 283 478 283 636 q 294 271 283 333 q 337 186 304 208 q 446 164 369 164 q 529 167 479 164 l 529 385 l 418 385 m 189 1040 l 189 1051 l 307 1233 l 500 1233 l 619 1051 l 619 1040 l 485 1040 l 403 1147 l 322 1040 l 189 1040 z "},"Ģ":{"ha":810,"x_min":65,"x_max":731,"o":"m 418 385 l 418 556 l 731 556 l 731 21 q 588 -2 669 7 q 439 -11 507 -11 q 202 27 279 -11 q 95 167 125 65 q 65 478 65 268 q 96 781 65 678 q 206 925 126 883 q 446 967 286 967 q 606 956 524 967 q 726 936 688 946 l 726 769 q 518 788 582 788 q 357 772 400 788 q 299 697 314 757 q 283 478 283 636 q 294 271 283 333 q 337 186 304 208 q 446 164 369 164 q 529 167 479 164 l 529 385 l 418 385 m 297 -321 q 366 -309 350 -321 q 382 -261 382 -297 l 382 -243 l 306 -243 l 306 -85 l 510 -85 l 510 -192 q 496 -324 510 -282 q 438 -384 482 -367 q 297 -401 393 -401 l 297 -321 z "},"Ġ":{"ha":810,"x_min":65,"x_max":731,"o":"m 418 385 l 418 556 l 731 556 l 731 21 q 588 -2 669 7 q 439 -11 507 -11 q 202 27 279 -11 q 95 167 125 65 q 65 478 65 268 q 96 781 65 678 q 206 925 126 883 q 446 967 286 967 q 606 956 524 967 q 726 936 688 946 l 726 769 q 518 788 582 788 q 357 772 400 788 q 299 697 314 757 q 283 478 283 636 q 294 271 283 333 q 337 186 304 208 q 446 164 369 164 q 529 167 479 164 l 529 385 l 418 385 m 319 1068 l 319 1215 l 488 1215 l 488 1068 l 319 1068 z "},"H":{"ha":863,"x_min":86,"x_max":775,"o":"m 558 0 l 558 386 l 303 386 l 303 0 l 86 0 l 86 956 l 303 956 l 303 575 l 558 575 l 558 956 l 775 956 l 775 0 l 558 0 z "},"Ħ":{"ha":863,"x_min":86,"x_max":775,"o":"m 558 956 l 775 956 l 775 0 l 558 0 l 558 331 l 303 331 l 303 0 l 86 0 l 86 956 l 303 956 l 303 817 l 558 817 l 558 956 m 303 519 l 558 519 l 558 657 l 303 657 l 303 519 z "},"Ĥ":{"ha":863,"x_min":86,"x_max":775,"o":"m 558 0 l 558 386 l 303 386 l 303 0 l 86 0 l 86 956 l 303 956 l 303 575 l 558 575 l 558 956 l 775 956 l 775 0 l 558 0 m 217 1040 l 217 1051 l 335 1233 l 528 1233 l 647 1051 l 647 1040 l 513 1040 l 431 1147 l 350 1040 l 217 1040 z "},"Ḥ":{"ha":863,"x_min":86,"x_max":775,"o":"m 558 0 l 558 386 l 303 386 l 303 0 l 86 0 l 86 956 l 303 956 l 303 575 l 558 575 l 558 956 l 775 956 l 775 0 l 558 0 m 324 -278 l 324 -86 l 540 -86 l 540 -278 l 324 -278 z "},"I":{"ha":390,"x_min":88,"x_max":304,"o":"m 88 0 l 88 956 l 304 956 l 304 0 l 88 0 z "},"Ĳ":{"ha":881,"x_min":88,"x_max":799,"o":"m 88 0 l 88 956 l 304 956 l 304 0 l 88 0 m 415 167 q 534 178 503 168 q 574 222 565 188 q 582 353 582 257 l 582 956 l 799 956 l 799 426 q 778 125 799 204 q 687 24 758 46 q 415 0 615 1 l 415 167 z "},"Í":{"ha":390,"x_min":88,"x_max":389,"o":"m 88 0 l 88 956 l 304 956 l 304 0 l 88 0 m 90 1042 l 90 1049 l 192 1243 l 389 1243 l 389 1236 l 240 1042 l 90 1042 z "},"Ĭ":{"ha":390,"x_min":-1,"x_max":392,"o":"m 88 0 l 88 956 l 304 956 l 304 0 l 88 0 m 392 1233 q 378 1125 392 1167 q 321 1059 364 1083 q 194 1035 278 1035 q 69 1059 111 1035 q 13 1125 26 1083 q -1 1233 -1 1167 l 115 1233 q 119 1183 115 1200 q 140 1156 124 1167 q 194 1146 157 1146 q 250 1156 232 1146 q 272 1184 268 1167 q 276 1233 276 1201 l 392 1233 z "},"Ǐ":{"ha":390,"x_min":-19,"x_max":410,"o":"m 88 0 l 88 956 l 304 956 l 304 0 l 88 0 m 99 1040 l -19 1222 l -19 1233 l 114 1233 l 196 1126 l 276 1233 l 410 1233 l 410 1222 l 292 1040 l 99 1040 z "},"Î":{"ha":390,"x_min":-19,"x_max":411,"o":"m 88 0 l 88 956 l 304 956 l 304 0 l 88 0 m -19 1042 l -19 1053 l 99 1235 l 292 1235 l 411 1053 l 411 1042 l 276 1042 l 194 1149 l 114 1042 l -19 1042 z "},"Ȉ":{"ha":390,"x_min":-97,"x_max":386,"o":"m 88 0 l 88 956 l 304 956 l 304 0 l 88 0 m 151 1049 l 28 1049 l -97 1213 l -97 1218 l 64 1218 l 151 1054 l 151 1049 m 386 1049 l 263 1049 l 138 1213 l 138 1218 l 300 1218 l 386 1054 l 386 1049 z "},"Ï":{"ha":390,"x_min":-21,"x_max":413,"o":"m 88 0 l 88 956 l 304 956 l 304 0 l 88 0 m -21 1081 l -21 1228 l 147 1228 l 147 1081 l -21 1081 m 244 1081 l 244 1228 l 413 1228 l 413 1081 l 244 1081 z "},"İ":{"ha":390,"x_min":88,"x_max":304,"o":"m 88 0 l 88 956 l 304 956 l 304 0 l 88 0 m 111 1068 l 111 1215 l 279 1215 l 279 1068 l 111 1068 z "},"Ị":{"ha":390,"x_min":88,"x_max":304,"o":"m 88 0 l 88 956 l 304 956 l 304 0 l 88 0 m 88 -278 l 88 -86 l 304 -86 l 304 -278 l 88 -278 z "},"Ì":{"ha":390,"x_min":6,"x_max":304,"o":"m 88 0 l 88 956 l 304 956 l 304 0 l 88 0 m 154 1042 l 6 1236 l 6 1243 l 203 1243 l 304 1049 l 304 1042 l 154 1042 z "},"Ỉ":{"ha":390,"x_min":21,"x_max":371,"o":"m 88 0 l 88 956 l 304 956 l 304 0 l 88 0 m 101 1026 q 114 1085 101 1068 q 164 1113 126 1101 l 185 1121 q 227 1139 218 1132 q 236 1163 236 1146 q 222 1190 236 1185 q 163 1196 207 1196 q 21 1189 90 1196 l 21 1292 q 186 1307 106 1307 q 288 1298 249 1307 q 349 1261 326 1289 q 371 1179 371 1233 q 353 1104 371 1128 q 286 1064 335 1081 l 264 1056 q 224 1036 232 1043 q 217 1010 217 1029 l 101 1010 l 101 1026 z "},"Ȋ":{"ha":390,"x_min":0,"x_max":393,"o":"m 88 0 l 88 956 l 304 956 l 304 0 l 88 0 m 0 1043 q 14 1151 0 1110 q 71 1217 28 1193 q 197 1242 114 1242 q 323 1217 281 1242 q 379 1151 365 1193 q 393 1043 393 1110 l 276 1043 q 272 1093 276 1076 q 251 1120 268 1110 q 197 1131 235 1131 q 142 1120 160 1131 q 119 1092 124 1110 q 115 1043 115 1075 l 0 1043 z "},"Ī":{"ha":390,"x_min":29,"x_max":364,"o":"m 88 0 l 88 956 l 304 956 l 304 0 l 88 0 m 29 1064 l 29 1233 l 364 1233 l 364 1064 l 29 1064 z "},"Į":{"ha":390,"x_min":63,"x_max":306,"o":"m 221 -272 q 63 -154 63 -272 q 85 -76 63 -117 q 144 0 107 -35 l 88 0 l 88 956 l 304 956 l 304 0 q 249 -53 275 -19 q 224 -115 224 -86 q 237 -151 224 -139 q 285 -164 250 -164 q 306 -162 299 -164 l 306 -267 q 221 -272 269 -272 z "},"Ĩ":{"ha":390,"x_min":-49,"x_max":440,"o":"m 88 0 l 88 956 l 304 956 l 304 0 l 88 0 m 440 1233 q 434 1124 440 1161 q 403 1065 428 1086 q 324 1044 378 1044 q 260 1051 292 1044 q 181 1069 228 1057 q 138 1080 168 1072 q 89 1088 107 1088 q 63 1076 68 1088 q 58 1029 58 1065 l -49 1029 q -42 1139 -49 1101 q -11 1197 -36 1176 q 68 1218 14 1218 q 131 1212 100 1218 q 213 1193 161 1206 q 263 1181 238 1186 q 303 1176 288 1176 q 328 1187 324 1176 q 333 1233 333 1197 l 440 1233 z "},"J":{"ha":490,"x_min":25,"x_max":408,"o":"m 25 167 q 144 178 113 168 q 183 222 175 188 q 192 353 192 257 l 192 956 l 408 956 l 408 426 q 388 125 408 204 q 297 24 368 46 q 25 0 225 1 l 25 167 z "},"Ĵ":{"ha":490,"x_min":25,"x_max":515,"o":"m 25 167 q 144 178 113 168 q 183 222 175 188 q 192 353 192 257 l 192 956 l 408 956 l 408 426 q 388 125 408 204 q 297 24 368 46 q 25 0 225 1 l 25 167 m 85 1040 l 85 1051 l 203 1233 l 396 1233 l 515 1051 l 515 1040 l 381 1040 l 299 1147 l 218 1040 l 85 1040 z "},"K":{"ha":825,"x_min":89,"x_max":815,"o":"m 576 0 l 363 394 l 304 394 l 304 0 l 89 0 l 89 956 l 304 956 l 304 576 l 363 576 l 581 956 l 813 956 l 535 500 l 815 0 l 576 0 z "},"Ķ":{"ha":825,"x_min":89,"x_max":815,"o":"m 576 0 l 363 394 l 304 394 l 304 0 l 89 0 l 89 956 l 304 956 l 304 576 l 363 576 l 581 956 l 813 956 l 535 500 l 815 0 l 576 0 m 306 -321 q 374 -309 358 -321 q 390 -261 390 -297 l 390 -243 l 314 -243 l 314 -85 l 518 -85 l 518 -192 q 504 -324 518 -282 q 446 -384 490 -367 q 306 -401 401 -401 l 306 -321 z "},"L":{"ha":647,"x_min":89,"x_max":621,"o":"m 89 0 l 89 956 l 304 956 l 304 186 l 621 186 l 621 0 l 89 0 z "},"Ǉ":{"ha":1138,"x_min":89,"x_max":1056,"o":"m 89 0 l 89 956 l 304 956 l 304 186 l 621 186 l 621 0 l 89 0 m 672 167 q 791 178 760 168 q 831 222 822 188 q 839 353 839 257 l 839 956 l 1056 956 l 1056 426 q 1035 125 1056 204 q 944 24 1015 46 q 672 0 872 1 l 672 167 z "},"Ĺ":{"ha":647,"x_min":89,"x_max":621,"o":"m 89 0 l 89 956 l 304 956 l 304 186 l 621 186 l 621 0 l 89 0 m 189 1032 l 189 1039 l 290 1233 l 488 1233 l 488 1226 l 339 1032 l 189 1032 z "},"Ľ":{"ha":647,"x_min":89,"x_max":765,"o":"m 89 0 l 89 956 l 304 956 l 304 186 l 621 186 l 621 0 l 89 0 m 561 717 l 582 999 l 582 1076 l 765 1076 l 765 999 l 701 717 l 561 717 z "},"Ļ":{"ha":647,"x_min":89,"x_max":621,"o":"m 89 0 l 89 956 l 304 956 l 304 186 l 621 186 l 621 0 l 89 0 m 222 -321 q 291 -309 275 -321 q 307 -261 307 -297 l 307 -243 l 231 -243 l 231 -85 l 435 -85 l 435 -192 q 421 -324 435 -282 q 363 -384 407 -367 q 222 -401 318 -401 l 222 -321 z "},"Ŀ":{"ha":661,"x_min":89,"x_max":639,"o":"m 89 0 l 89 956 l 304 956 l 304 186 l 621 186 l 621 0 l 89 0 m 422 421 l 422 613 l 639 613 l 639 421 l 422 421 z "},"ǈ":{"ha":1001,"x_min":89,"x_max":926,"o":"m 89 0 l 89 956 l 304 956 l 304 186 l 621 186 l 621 0 l 89 0 m 721 858 l 721 1032 l 926 1032 l 926 858 l 721 858 m 624 -129 q 690 -122 669 -129 q 717 -101 711 -115 q 722 -56 722 -86 l 722 708 l 925 708 l 925 3 q 901 -183 925 -126 q 817 -258 876 -240 q 624 -275 757 -275 l 624 -129 z "},"Ł":{"ha":640,"x_min":17,"x_max":621,"o":"m 304 186 l 621 186 l 621 0 l 89 0 l 89 363 l 17 336 l 17 493 l 89 519 l 89 956 l 304 956 l 304 600 l 482 665 l 482 510 l 304 443 l 304 186 z "},"M":{"ha":1118,"x_min":86,"x_max":1032,"o":"m 824 0 l 824 661 l 814 661 l 640 0 l 471 0 l 299 661 l 289 661 l 289 0 l 86 0 l 86 956 l 396 956 l 556 343 l 565 343 l 725 956 l 1032 956 l 1032 0 l 824 0 z "},"N":{"ha":867,"x_min":86,"x_max":781,"o":"m 581 0 l 300 546 l 293 546 l 293 0 l 86 0 l 86 956 l 304 956 l 567 454 l 574 454 l 574 956 l 781 956 l 781 0 l 581 0 z "},"Ǌ":{"ha":1357,"x_min":86,"x_max":1275,"o":"m 581 0 l 300 546 l 293 546 l 293 0 l 86 0 l 86 956 l 304 956 l 567 454 l 574 454 l 574 956 l 781 956 l 781 0 l 581 0 m 892 167 q 1010 178 979 168 q 1050 222 1042 188 q 1058 353 1058 257 l 1058 956 l 1275 956 l 1275 426 q 1255 125 1275 204 q 1163 24 1235 46 q 892 0 1092 1 l 892 167 z "},"Ń":{"ha":867,"x_min":86,"x_max":781,"o":"m 581 0 l 300 546 l 293 546 l 293 0 l 86 0 l 86 956 l 304 956 l 567 454 l 574 454 l 574 956 l 781 956 l 781 0 l 581 0 m 350 1032 l 350 1039 l 451 1233 l 649 1233 l 649 1226 l 500 1032 l 350 1032 z "},"Ň":{"ha":867,"x_min":86,"x_max":781,"o":"m 581 0 l 300 546 l 293 546 l 293 0 l 86 0 l 86 956 l 304 956 l 567 454 l 574 454 l 574 956 l 781 956 l 781 0 l 581 0 m 336 1040 l 218 1222 l 218 1233 l 351 1233 l 433 1126 l 514 1233 l 647 1233 l 647 1222 l 529 1040 l 336 1040 z "},"Ņ":{"ha":867,"x_min":86,"x_max":781,"o":"m 581 0 l 300 546 l 293 546 l 293 0 l 86 0 l 86 956 l 304 956 l 567 454 l 574 454 l 574 956 l 781 956 l 781 0 l 581 0 m 326 -321 q 395 -309 379 -321 q 411 -261 411 -297 l 411 -243 l 335 -243 l 335 -85 l 539 -85 l 539 -192 q 525 -324 539 -282 q 467 -384 511 -367 q 326 -401 422 -401 l 326 -321 z "},"Ṅ":{"ha":867,"x_min":86,"x_max":781,"o":"m 581 0 l 300 546 l 293 546 l 293 0 l 86 0 l 86 956 l 304 956 l 567 454 l 574 454 l 574 956 l 781 956 l 781 0 l 581 0 m 349 1068 l 349 1215 l 517 1215 l 517 1068 l 349 1068 z "},"Ŋ":{"ha":867,"x_min":86,"x_max":781,"o":"m 781 956 l 781 -6 q 755 -186 779 -131 q 669 -258 731 -242 q 474 -275 608 -275 l 474 -129 q 541 -122 519 -129 q 568 -101 563 -115 q 574 -56 574 -86 l 574 19 l 300 546 l 293 546 l 293 0 l 86 0 l 86 956 l 304 956 l 567 454 l 574 454 l 574 956 l 781 956 z "},"Ɲ":{"ha":867,"x_min":-12,"x_max":781,"o":"m 781 956 l 781 0 l 581 0 l 300 546 l 293 546 l 293 3 q 269 -183 293 -126 q 183 -258 244 -240 q -12 -275 122 -275 l -12 -129 q 54 -122 33 -129 q 81 -101 75 -115 q 86 -56 86 -86 l 86 956 l 304 956 l 567 454 l 574 454 l 574 956 l 781 956 z "},"ǋ":{"ha":1221,"x_min":86,"x_max":1146,"o":"m 581 0 l 300 546 l 293 546 l 293 0 l 86 0 l 86 956 l 304 956 l 567 454 l 574 454 l 574 956 l 781 956 l 781 0 l 581 0 m 940 858 l 940 1032 l 1146 1032 l 1146 858 l 940 858 m 843 -129 q 910 -122 889 -129 q 936 -101 931 -115 q 942 -56 942 -86 l 942 708 l 1144 708 l 1144 3 q 1120 -183 1144 -126 q 1036 -258 1096 -240 q 843 -275 976 -275 l 843 -129 z "},"Ñ":{"ha":867,"x_min":86,"x_max":781,"o":"m 581 0 l 300 546 l 293 546 l 293 0 l 86 0 l 86 956 l 304 956 l 567 454 l 574 454 l 574 956 l 781 956 l 781 0 l 581 0 m 676 1247 q 670 1138 676 1175 q 639 1079 664 1100 q 560 1058 614 1058 q 496 1065 528 1058 q 417 1083 464 1071 q 374 1094 404 1086 q 325 1101 343 1101 q 299 1090 304 1101 q 294 1043 294 1079 l 188 1043 q 194 1153 188 1115 q 225 1211 200 1190 q 304 1232 250 1232 q 367 1226 336 1232 q 449 1207 397 1219 q 499 1195 474 1200 q 539 1190 524 1190 q 565 1201 560 1190 q 569 1247 569 1211 l 676 1247 z "},"O":{"ha":850,"x_min":65,"x_max":785,"o":"m 425 -11 q 177 31 251 -11 q 84 167 103 74 q 65 478 65 261 q 84 788 65 694 q 177 924 103 882 q 425 967 251 967 q 674 924 600 967 q 767 789 749 882 q 785 478 785 696 q 767 167 785 260 q 674 31 749 74 q 425 -11 600 -11 m 425 168 q 526 183 500 168 q 558 256 551 199 q 565 478 565 313 q 558 700 565 643 q 526 772 551 757 q 425 788 500 788 q 324 772 350 788 q 292 700 299 757 q 285 478 285 643 q 292 256 285 313 q 324 183 299 199 q 425 168 350 168 z "},"Ó":{"ha":846,"x_min":65,"x_max":785,"o":"m 425 -11 q 177 31 251 -11 q 84 167 103 74 q 65 478 65 261 q 84 788 65 694 q 177 924 103 882 q 425 967 251 967 q 674 924 600 967 q 767 789 749 882 q 785 478 785 696 q 767 167 785 260 q 674 31 749 74 q 425 -11 600 -11 m 425 168 q 526 183 500 168 q 558 256 551 199 q 565 478 565 313 q 558 700 565 643 q 526 772 551 757 q 425 788 500 788 q 324 772 350 788 q 292 700 299 757 q 285 478 285 643 q 292 256 285 313 q 324 183 299 199 q 425 168 350 168 m 332 1042 l 332 1049 l 433 1243 l 631 1243 l 631 1236 l 482 1042 l 332 1042 z "},"Ŏ":{"ha":850,"x_min":65,"x_max":785,"o":"m 425 -11 q 177 31 251 -11 q 84 167 103 74 q 65 478 65 261 q 84 788 65 694 q 177 924 103 882 q 425 967 251 967 q 674 924 600 967 q 767 789 749 882 q 785 478 785 696 q 767 167 785 260 q 674 31 749 74 q 425 -11 600 -11 m 425 168 q 526 183 500 168 q 558 256 551 199 q 565 478 565 313 q 558 700 565 643 q 526 772 551 757 q 425 788 500 788 q 324 772 350 788 q 292 700 299 757 q 285 478 285 643 q 292 256 285 313 q 324 183 299 199 q 425 168 350 168 m 621 1233 q 607 1125 621 1167 q 550 1059 593 1083 q 424 1035 507 1035 q 298 1059 340 1035 q 242 1125 256 1083 q 228 1233 228 1167 l 344 1233 q 349 1183 344 1200 q 369 1156 353 1167 q 424 1146 386 1146 q 479 1156 461 1146 q 501 1184 497 1167 q 506 1233 506 1201 l 621 1233 z "},"Ǒ":{"ha":850,"x_min":65,"x_max":785,"o":"m 425 -11 q 177 31 251 -11 q 84 167 103 74 q 65 478 65 261 q 84 788 65 694 q 177 924 103 882 q 425 967 251 967 q 674 924 600 967 q 767 789 749 882 q 785 478 785 696 q 767 167 785 260 q 674 31 749 74 q 425 -11 600 -11 m 425 168 q 526 183 500 168 q 558 256 551 199 q 565 478 565 313 q 558 700 565 643 q 526 772 551 757 q 425 788 500 788 q 324 772 350 788 q 292 700 299 757 q 285 478 285 643 q 292 256 285 313 q 324 183 299 199 q 425 168 350 168 m 328 1040 l 210 1222 l 210 1233 l 343 1233 l 425 1126 l 506 1233 l 639 1233 l 639 1222 l 521 1040 l 328 1040 z "},"Ô":{"ha":846,"x_min":65,"x_max":785,"o":"m 425 -11 q 177 31 251 -11 q 84 167 103 74 q 65 478 65 261 q 84 788 65 694 q 177 924 103 882 q 425 967 251 967 q 674 924 600 967 q 767 789 749 882 q 785 478 785 696 q 767 167 785 260 q 674 31 749 74 q 425 -11 600 -11 m 425 168 q 526 183 500 168 q 558 256 551 199 q 565 478 565 313 q 558 700 565 643 q 526 772 551 757 q 425 788 500 788 q 324 772 350 788 q 292 700 299 757 q 285 478 285 643 q 292 256 285 313 q 324 183 299 199 q 425 168 350 168 m 207 1042 l 207 1053 l 325 1235 l 518 1235 l 638 1053 l 638 1042 l 503 1042 l 421 1149 l 340 1042 l 207 1042 z "},"Ố":{"ha":850,"x_min":65,"x_max":785,"o":"m 425 -11 q 177 31 251 -11 q 84 167 103 74 q 65 478 65 261 q 84 788 65 694 q 177 924 103 882 q 425 967 251 967 q 674 924 600 967 q 767 789 749 882 q 785 478 785 696 q 767 167 785 260 q 674 31 749 74 q 425 -11 600 -11 m 425 168 q 526 183 500 168 q 558 256 551 199 q 565 478 565 313 q 558 700 565 643 q 526 772 551 757 q 425 788 500 788 q 324 772 350 788 q 292 700 299 757 q 285 478 285 643 q 292 256 285 313 q 324 183 299 199 q 425 168 350 168 m 208 1026 l 208 1038 l 326 1219 l 519 1219 l 639 1038 l 639 1026 l 504 1026 l 422 1133 l 342 1026 l 208 1026 m 447 1258 l 447 1265 l 549 1460 l 746 1460 l 746 1453 l 597 1258 l 447 1258 z "},"Ộ":{"ha":850,"x_min":65,"x_max":785,"o":"m 425 -11 q 177 31 251 -11 q 84 167 103 74 q 65 478 65 261 q 84 788 65 694 q 177 924 103 882 q 425 967 251 967 q 674 924 600 967 q 767 789 749 882 q 785 478 785 696 q 767 167 785 260 q 674 31 749 74 q 425 -11 600 -11 m 425 168 q 526 183 500 168 q 558 256 551 199 q 565 478 565 313 q 558 700 565 643 q 526 772 551 757 q 425 788 500 788 q 324 772 350 788 q 292 700 299 757 q 285 478 285 643 q 292 256 285 313 q 324 183 299 199 q 425 168 350 168 m 317 -278 l 317 -86 l 533 -86 l 533 -278 l 317 -278 m 210 1040 l 210 1051 l 328 1233 l 521 1233 l 640 1051 l 640 1040 l 506 1040 l 424 1147 l 343 1040 l 210 1040 z "},"Ồ":{"ha":850,"x_min":65,"x_max":785,"o":"m 425 -11 q 177 31 251 -11 q 84 167 103 74 q 65 478 65 261 q 84 788 65 694 q 177 924 103 882 q 425 967 251 967 q 674 924 600 967 q 767 789 749 882 q 785 478 785 696 q 767 167 785 260 q 674 31 749 74 q 425 -11 600 -11 m 425 168 q 526 183 500 168 q 558 256 551 199 q 565 478 565 313 q 558 700 565 643 q 526 772 551 757 q 425 788 500 788 q 324 772 350 788 q 292 700 299 757 q 285 478 285 643 q 292 256 285 313 q 324 183 299 199 q 425 168 350 168 m 201 1019 l 201 1031 l 319 1213 l 513 1213 l 632 1031 l 632 1019 l 497 1019 l 415 1126 l 335 1019 l 201 1019 m 496 1251 l 347 1446 l 347 1453 l 544 1453 l 646 1258 l 646 1251 l 496 1251 z "},"Ổ":{"ha":850,"x_min":65,"x_max":785,"o":"m 425 -11 q 177 31 251 -11 q 84 167 103 74 q 65 478 65 261 q 84 788 65 694 q 177 924 103 882 q 425 967 251 967 q 674 924 600 967 q 767 789 749 882 q 785 478 785 696 q 767 167 785 260 q 674 31 749 74 q 425 -11 600 -11 m 425 168 q 526 183 500 168 q 558 256 551 199 q 565 478 565 313 q 558 700 565 643 q 526 772 551 757 q 425 788 500 788 q 324 772 350 788 q 292 700 299 757 q 285 478 285 643 q 292 256 285 313 q 324 183 299 199 q 425 168 350 168 m 210 1021 l 210 1032 l 328 1214 l 521 1214 l 640 1032 l 640 1021 l 506 1021 l 424 1128 l 343 1021 l 210 1021 m 481 1258 q 493 1317 481 1300 q 543 1344 506 1333 l 564 1351 q 606 1370 596 1363 q 615 1394 615 1378 q 601 1422 615 1417 q 542 1426 588 1426 q 400 1419 469 1426 l 400 1522 q 565 1538 485 1538 q 667 1528 628 1538 q 728 1492 706 1519 q 750 1410 750 1464 q 732 1335 750 1358 q 665 1294 714 1313 l 643 1286 q 603 1267 611 1275 q 596 1240 596 1260 l 481 1240 l 481 1258 z "},"Ỗ":{"ha":850,"x_min":65,"x_max":785,"o":"m 425 -11 q 177 31 251 -11 q 84 167 103 74 q 65 478 65 261 q 84 788 65 694 q 177 924 103 882 q 425 967 251 967 q 674 924 600 967 q 767 789 749 882 q 785 478 785 696 q 767 167 785 260 q 674 31 749 74 q 425 -11 600 -11 m 425 168 q 526 183 500 168 q 558 256 551 199 q 565 478 565 313 q 558 700 565 643 q 526 772 551 757 q 425 788 500 788 q 324 772 350 788 q 292 700 299 757 q 285 478 285 643 q 292 256 285 313 q 324 183 299 199 q 425 168 350 168 m 207 1019 l 207 1031 l 325 1213 l 518 1213 l 638 1031 l 638 1019 l 503 1019 l 421 1126 l 340 1019 l 207 1019 m 669 1453 q 663 1343 669 1381 q 632 1285 657 1306 q 553 1264 607 1264 q 489 1270 521 1264 q 410 1289 457 1276 q 367 1299 397 1292 q 318 1307 336 1307 q 292 1296 297 1307 q 288 1249 288 1285 l 181 1249 q 187 1358 181 1321 q 218 1417 193 1396 q 297 1438 243 1438 q 360 1431 329 1438 q 442 1413 390 1425 q 492 1401 467 1406 q 532 1396 517 1396 q 558 1406 553 1396 q 563 1453 563 1417 l 669 1453 z "},"Ȍ":{"ha":850,"x_min":65,"x_max":785,"o":"m 425 -11 q 177 31 251 -11 q 84 167 103 74 q 65 478 65 261 q 84 788 65 694 q 177 924 103 882 q 425 967 251 967 q 674 924 600 967 q 767 789 749 882 q 785 478 785 696 q 767 167 785 260 q 674 31 749 74 q 425 -11 600 -11 m 425 168 q 526 183 500 168 q 558 256 551 199 q 565 478 565 313 q 558 700 565 643 q 526 772 551 757 q 425 788 500 788 q 324 772 350 788 q 292 700 299 757 q 285 478 285 643 q 292 256 285 313 q 324 183 299 199 q 425 168 350 168 m 381 1049 l 257 1049 l 132 1213 l 132 1218 l 293 1218 l 381 1054 l 381 1049 m 615 1049 l 492 1049 l 367 1213 l 367 1218 l 529 1218 l 615 1054 l 615 1049 z "},"Ö":{"ha":846,"x_min":65,"x_max":785,"o":"m 425 -11 q 177 31 251 -11 q 84 167 103 74 q 65 478 65 261 q 84 788 65 694 q 177 924 103 882 q 425 967 251 967 q 674 924 600 967 q 767 789 749 882 q 785 478 785 696 q 767 167 785 260 q 674 31 749 74 q 425 -11 600 -11 m 425 168 q 526 183 500 168 q 558 256 551 199 q 565 478 565 313 q 558 700 565 643 q 526 772 551 757 q 425 788 500 788 q 324 772 350 788 q 292 700 299 757 q 285 478 285 643 q 292 256 285 313 q 324 183 299 199 q 425 168 350 168 m 207 1081 l 207 1228 l 375 1228 l 375 1081 l 207 1081 m 472 1081 l 472 1228 l 640 1228 l 640 1081 l 472 1081 z "},"Ọ":{"ha":850,"x_min":65,"x_max":785,"o":"m 425 -11 q 177 31 251 -11 q 84 167 103 74 q 65 478 65 261 q 84 788 65 694 q 177 924 103 882 q 425 967 251 967 q 674 924 600 967 q 767 789 749 882 q 785 478 785 696 q 767 167 785 260 q 674 31 749 74 q 425 -11 600 -11 m 425 168 q 526 183 500 168 q 558 256 551 199 q 565 478 565 313 q 558 700 565 643 q 526 772 551 757 q 425 788 500 788 q 324 772 350 788 q 292 700 299 757 q 285 478 285 643 q 292 256 285 313 q 324 183 299 199 q 425 168 350 168 m 317 -278 l 317 -86 l 533 -86 l 533 -278 l 317 -278 z "},"Ò":{"ha":846,"x_min":65,"x_max":785,"o":"m 425 -11 q 177 31 251 -11 q 84 167 103 74 q 65 478 65 261 q 84 788 65 694 q 177 924 103 882 q 425 967 251 967 q 674 924 600 967 q 767 789 749 882 q 785 478 785 696 q 767 167 785 260 q 674 31 749 74 q 425 -11 600 -11 m 425 168 q 526 183 500 168 q 558 256 551 199 q 565 478 565 313 q 558 700 565 643 q 526 772 551 757 q 425 788 500 788 q 324 772 350 788 q 292 700 299 757 q 285 478 285 643 q 292 256 285 313 q 324 183 299 199 q 425 168 350 168 m 358 1042 l 210 1236 l 210 1243 l 407 1243 l 508 1049 l 508 1042 l 358 1042 z "},"Ỏ":{"ha":850,"x_min":65,"x_max":785,"o":"m 425 -11 q 177 31 251 -11 q 84 167 103 74 q 65 478 65 261 q 84 788 65 694 q 177 924 103 882 q 425 967 251 967 q 674 924 600 967 q 767 789 749 882 q 785 478 785 696 q 767 167 785 260 q 674 31 749 74 q 425 -11 600 -11 m 425 168 q 526 183 500 168 q 558 256 551 199 q 565 478 565 313 q 558 700 565 643 q 526 772 551 757 q 425 788 500 788 q 324 772 350 788 q 292 700 299 757 q 285 478 285 643 q 292 256 285 313 q 324 183 299 199 q 425 168 350 168 m 331 1026 q 343 1085 331 1068 q 393 1113 356 1101 l 414 1121 q 456 1139 447 1132 q 465 1163 465 1146 q 451 1190 465 1185 q 392 1196 436 1196 q 250 1189 319 1196 l 250 1292 q 415 1307 335 1307 q 517 1298 478 1307 q 578 1261 556 1289 q 600 1179 600 1233 q 582 1104 600 1128 q 515 1064 564 1081 l 493 1056 q 453 1036 461 1043 q 446 1010 446 1029 l 331 1010 l 331 1026 z "},"Ơ":{"ha":850,"x_min":65,"x_max":874,"o":"m 874 1083 l 874 1051 q 863 953 874 988 q 822 900 853 918 q 728 878 792 882 q 775 741 765 828 q 785 478 785 654 q 767 167 785 260 q 674 31 749 74 q 425 -11 600 -11 q 177 31 251 -11 q 84 167 103 74 q 65 478 65 261 q 84 788 65 694 q 177 924 103 882 q 425 967 251 967 q 583 956 514 967 l 654 956 q 712 963 693 956 q 737 985 731 969 q 743 1032 743 1000 l 743 1083 l 874 1083 m 425 168 q 526 183 500 168 q 558 256 551 199 q 565 478 565 313 q 558 700 565 643 q 526 772 551 757 q 425 788 500 788 q 324 772 350 788 q 292 700 299 757 q 285 478 285 643 q 292 256 285 313 q 324 183 299 199 q 425 168 350 168 z "},"Ớ":{"ha":850,"x_min":65,"x_max":874,"o":"m 874 1083 l 874 1051 q 863 953 874 988 q 822 900 853 918 q 728 878 792 882 q 775 741 765 828 q 785 478 785 654 q 767 167 785 260 q 674 31 749 74 q 425 -11 600 -11 q 177 31 251 -11 q 84 167 103 74 q 65 478 65 261 q 84 788 65 694 q 177 924 103 882 q 425 967 251 967 q 583 956 514 967 l 654 956 q 712 963 693 956 q 737 985 731 969 q 743 1032 743 1000 l 743 1083 l 874 1083 m 425 168 q 526 183 500 168 q 558 256 551 199 q 565 478 565 313 q 558 700 565 643 q 526 772 551 757 q 425 788 500 788 q 324 772 350 788 q 292 700 299 757 q 285 478 285 643 q 292 256 285 313 q 324 183 299 199 q 425 168 350 168 m 342 1032 l 342 1039 l 443 1233 l 640 1233 l 640 1226 l 492 1032 l 342 1032 z "},"Ợ":{"ha":850,"x_min":65,"x_max":874,"o":"m 874 1083 l 874 1051 q 863 953 874 988 q 822 900 853 918 q 728 878 792 882 q 775 741 765 828 q 785 478 785 654 q 767 167 785 260 q 674 31 749 74 q 425 -11 600 -11 q 177 31 251 -11 q 84 167 103 74 q 65 478 65 261 q 84 788 65 694 q 177 924 103 882 q 425 967 251 967 q 583 956 514 967 l 654 956 q 712 963 693 956 q 737 985 731 969 q 743 1032 743 1000 l 743 1083 l 874 1083 m 425 168 q 526 183 500 168 q 558 256 551 199 q 565 478 565 313 q 558 700 565 643 q 526 772 551 757 q 425 788 500 788 q 324 772 350 788 q 292 700 299 757 q 285 478 285 643 q 292 256 285 313 q 324 183 299 199 q 425 168 350 168 m 317 -278 l 317 -86 l 533 -86 l 533 -278 l 317 -278 z "},"Ờ":{"ha":850,"x_min":65,"x_max":874,"o":"m 874 1083 l 874 1051 q 863 953 874 988 q 822 900 853 918 q 728 878 792 882 q 775 741 765 828 q 785 478 785 654 q 767 167 785 260 q 674 31 749 74 q 425 -11 600 -11 q 177 31 251 -11 q 84 167 103 74 q 65 478 65 261 q 84 788 65 694 q 177 924 103 882 q 425 967 251 967 q 583 956 514 967 l 654 956 q 712 963 693 956 q 737 985 731 969 q 743 1032 743 1000 l 743 1083 l 874 1083 m 425 168 q 526 183 500 168 q 558 256 551 199 q 565 478 565 313 q 558 700 565 643 q 526 772 551 757 q 425 788 500 788 q 324 772 350 788 q 292 700 299 757 q 285 478 285 643 q 292 256 285 313 q 324 183 299 199 q 425 168 350 168 m 358 1032 l 210 1226 l 210 1233 l 407 1233 l 508 1039 l 508 1032 l 358 1032 z "},"Ở":{"ha":850,"x_min":65,"x_max":874,"o":"m 874 1083 l 874 1051 q 863 953 874 988 q 822 900 853 918 q 728 878 792 882 q 775 741 765 828 q 785 478 785 654 q 767 167 785 260 q 674 31 749 74 q 425 -11 600 -11 q 177 31 251 -11 q 84 167 103 74 q 65 478 65 261 q 84 788 65 694 q 177 924 103 882 q 425 967 251 967 q 583 956 514 967 l 654 956 q 712 963 693 956 q 737 985 731 969 q 743 1032 743 1000 l 743 1083 l 874 1083 m 425 168 q 526 183 500 168 q 558 256 551 199 q 565 478 565 313 q 558 700 565 643 q 526 772 551 757 q 425 788 500 788 q 324 772 350 788 q 292 700 299 757 q 285 478 285 643 q 292 256 285 313 q 324 183 299 199 q 425 168 350 168 m 331 1026 q 343 1085 331 1068 q 393 1113 356 1101 l 414 1121 q 456 1139 447 1132 q 465 1163 465 1146 q 451 1190 465 1185 q 392 1196 436 1196 q 250 1189 319 1196 l 250 1292 q 415 1307 335 1307 q 517 1298 478 1307 q 578 1261 556 1289 q 600 1179 600 1233 q 582 1104 600 1128 q 515 1064 564 1081 l 493 1056 q 453 1036 461 1043 q 446 1010 446 1029 l 331 1010 l 331 1026 z "},"Ỡ":{"ha":850,"x_min":65,"x_max":874,"o":"m 874 1083 l 874 1051 q 863 953 874 988 q 822 900 853 918 q 728 878 792 882 q 775 741 765 828 q 785 478 785 654 q 767 167 785 260 q 674 31 749 74 q 425 -11 600 -11 q 177 31 251 -11 q 84 167 103 74 q 65 478 65 261 q 84 788 65 694 q 177 924 103 882 q 425 967 251 967 q 583 956 514 967 l 654 956 q 712 963 693 956 q 737 985 731 969 q 743 1032 743 1000 l 743 1083 l 874 1083 m 425 168 q 526 183 500 168 q 558 256 551 199 q 565 478 565 313 q 558 700 565 643 q 526 772 551 757 q 425 788 500 788 q 324 772 350 788 q 292 700 299 757 q 285 478 285 643 q 292 256 285 313 q 324 183 299 199 q 425 168 350 168 m 669 1233 q 663 1124 669 1161 q 632 1065 657 1086 q 553 1044 607 1044 q 489 1051 521 1044 q 410 1069 457 1057 q 367 1080 397 1072 q 318 1088 336 1088 q 292 1076 297 1088 q 288 1029 288 1065 l 181 1029 q 187 1139 181 1101 q 218 1197 193 1176 q 297 1218 243 1218 q 360 1212 329 1218 q 442 1193 390 1206 q 492 1181 467 1186 q 532 1176 517 1176 q 558 1187 553 1176 q 563 1233 563 1197 l 669 1233 z "},"Ő":{"ha":850,"x_min":65,"x_max":785,"o":"m 425 -11 q 177 31 251 -11 q 84 167 103 74 q 65 478 65 261 q 84 788 65 694 q 177 924 103 882 q 425 967 251 967 q 674 924 600 967 q 767 789 749 882 q 785 478 785 696 q 767 167 785 260 q 674 31 749 74 q 425 -11 600 -11 m 425 168 q 526 183 500 168 q 558 256 551 199 q 565 478 565 313 q 558 700 565 643 q 526 772 551 757 q 425 788 500 788 q 324 772 350 788 q 292 700 299 757 q 285 478 285 643 q 292 256 285 313 q 324 183 299 199 q 425 168 350 168 m 246 1049 l 246 1054 l 332 1218 l 494 1218 l 494 1213 l 369 1049 l 246 1049 m 481 1049 l 481 1054 l 568 1218 l 729 1218 l 729 1213 l 604 1049 l 481 1049 z "},"Ȏ":{"ha":850,"x_min":65,"x_max":785,"o":"m 425 -11 q 177 31 251 -11 q 84 167 103 74 q 65 478 65 261 q 84 788 65 694 q 177 924 103 882 q 425 967 251 967 q 674 924 600 967 q 767 789 749 882 q 785 478 785 696 q 767 167 785 260 q 674 31 749 74 q 425 -11 600 -11 m 425 168 q 526 183 500 168 q 558 256 551 199 q 565 478 565 313 q 558 700 565 643 q 526 772 551 757 q 425 788 500 788 q 324 772 350 788 q 292 700 299 757 q 285 478 285 643 q 292 256 285 313 q 324 183 299 199 q 425 168 350 168 m 229 1043 q 243 1151 229 1110 q 300 1217 257 1193 q 426 1242 343 1242 q 552 1217 510 1242 q 608 1151 594 1193 q 622 1043 622 1110 l 506 1043 q 501 1093 506 1076 q 481 1120 497 1110 q 426 1131 464 1131 q 371 1120 389 1131 q 349 1092 353 1110 q 344 1043 344 1075 l 229 1043 z "},"Ō":{"ha":850,"x_min":65,"x_max":785,"o":"m 425 -11 q 177 31 251 -11 q 84 167 103 74 q 65 478 65 261 q 84 788 65 694 q 177 924 103 882 q 425 967 251 967 q 674 924 600 967 q 767 789 749 882 q 785 478 785 696 q 767 167 785 260 q 674 31 749 74 q 425 -11 600 -11 m 425 168 q 526 183 500 168 q 558 256 551 199 q 565 478 565 313 q 558 700 565 643 q 526 772 551 757 q 425 788 500 788 q 324 772 350 788 q 292 700 299 757 q 285 478 285 643 q 292 256 285 313 q 324 183 299 199 q 425 168 350 168 m 258 1064 l 258 1233 l 593 1233 l 593 1064 l 258 1064 z "},"Ǫ":{"ha":846,"x_min":67,"x_max":779,"o":"m 569 -272 q 447 -240 483 -272 q 410 -157 410 -208 q 474 -10 410 -85 q 422 -11 457 -11 q 176 31 250 -11 q 85 166 103 72 q 67 478 67 260 q 85 790 67 696 q 176 925 103 883 q 422 967 250 967 q 668 925 594 967 q 760 790 742 883 q 779 478 779 696 q 774 252 779 331 q 745 119 768 174 q 674 33 722 64 q 599 -33 626 7 q 571 -117 571 -74 q 631 -164 571 -164 q 653 -162 644 -164 l 653 -267 q 569 -272 614 -272 m 422 165 q 522 181 497 165 q 555 253 547 196 q 563 478 563 311 q 555 702 563 644 q 522 775 547 760 q 422 790 497 790 q 323 775 349 790 q 290 702 297 760 q 283 478 283 644 q 290 253 283 311 q 323 181 297 196 q 422 165 349 165 z "},"Ø":{"ha":846,"x_min":65,"x_max":785,"o":"m 713 894 q 761 807 746 861 q 781 681 776 753 q 785 478 785 608 q 767 167 785 260 q 674 31 749 74 q 425 -11 600 -11 q 276 -1 333 -11 l 239 -76 l 67 -76 l 135 64 q 77 202 89 114 q 65 478 65 290 q 84 788 65 694 q 177 924 103 882 q 425 967 251 967 q 569 957 513 967 l 606 1032 l 779 1032 l 713 894 m 425 168 q 526 183 500 168 q 558 256 551 199 q 565 478 565 313 q 558 700 565 643 q 526 772 551 757 q 425 788 500 788 q 324 772 350 788 q 292 700 299 757 q 285 478 285 643 q 292 256 285 313 q 324 183 299 199 q 425 168 350 168 z "},"Ǿ":{"ha":846,"x_min":65,"x_max":785,"o":"m 713 894 q 761 807 746 861 q 781 681 776 753 q 785 478 785 608 q 767 167 785 260 q 674 31 749 74 q 425 -11 600 -11 q 276 -1 333 -11 l 239 -76 l 67 -76 l 135 64 q 77 202 89 114 q 65 478 65 290 q 84 788 65 694 q 177 924 103 882 q 425 967 251 967 q 569 957 513 967 l 606 1032 l 779 1032 l 713 894 m 425 168 q 526 183 500 168 q 558 256 551 199 q 565 478 565 313 q 558 700 565 643 q 526 772 551 757 q 425 788 500 788 q 324 772 350 788 q 292 700 299 757 q 285 478 285 643 q 292 256 285 313 q 324 183 299 199 q 425 168 350 168 m 331 1032 l 331 1039 l 432 1233 l 629 1233 l 629 1226 l 481 1032 l 331 1032 z "},"Õ":{"ha":846,"x_min":65,"x_max":785,"o":"m 425 -11 q 177 31 251 -11 q 84 167 103 74 q 65 478 65 261 q 84 788 65 694 q 177 924 103 882 q 425 967 251 967 q 674 924 600 967 q 767 789 749 882 q 785 478 785 696 q 767 167 785 260 q 674 31 749 74 q 425 -11 600 -11 m 425 168 q 526 183 500 168 q 558 256 551 199 q 565 478 565 313 q 558 700 565 643 q 526 772 551 757 q 425 788 500 788 q 324 772 350 788 q 292 700 299 757 q 285 478 285 643 q 292 256 285 313 q 324 183 299 199 q 425 168 350 168 m 668 1247 q 662 1138 668 1175 q 631 1079 656 1100 q 551 1058 606 1058 q 488 1065 519 1058 q 408 1083 456 1071 q 365 1094 396 1086 q 317 1101 335 1101 q 291 1090 296 1101 q 286 1043 286 1079 l 179 1043 q 185 1153 179 1115 q 217 1211 192 1190 q 296 1232 242 1232 q 358 1226 328 1232 q 440 1207 389 1219 q 490 1195 465 1200 q 531 1190 515 1190 q 556 1201 551 1190 q 561 1247 561 1211 l 668 1247 z "},"Œ":{"ha":1211,"x_min":65,"x_max":1147,"o":"m 425 0 q 177 42 251 0 q 84 174 103 83 q 65 478 65 265 q 84 781 65 690 q 177 914 103 872 q 425 956 251 956 l 1147 956 l 1147 776 l 843 776 q 754 785 788 776 q 783 572 779 717 l 1094 572 l 1094 393 l 785 393 q 775 263 782 317 q 753 169 768 210 q 843 179 792 179 l 1147 179 l 1147 0 l 425 0 m 425 179 q 526 194 500 179 q 558 263 551 208 q 565 478 565 318 q 558 692 565 638 q 526 762 551 747 q 425 776 500 776 q 324 762 350 776 q 292 692 299 747 q 285 478 285 638 q 292 263 285 318 q 324 194 299 208 q 425 179 350 179 z "},"P":{"ha":788,"x_min":89,"x_max":749,"o":"m 89 956 l 476 956 q 650 919 592 956 q 728 814 708 882 q 749 632 749 746 q 730 456 749 524 q 651 347 711 388 q 475 307 592 307 l 304 307 l 304 0 l 89 0 l 89 956 m 401 486 q 489 497 463 486 q 524 535 515 507 q 532 632 532 564 q 524 728 532 700 q 489 767 515 757 q 401 776 463 776 l 304 776 l 304 486 l 401 486 z "},"Þ":{"ha":788,"x_min":89,"x_max":749,"o":"m 89 956 l 304 956 l 304 813 l 476 813 q 650 776 592 813 q 728 670 708 739 q 749 488 749 601 q 730 313 749 381 q 651 204 711 244 q 475 164 592 164 l 304 164 l 304 0 l 89 0 l 89 956 m 401 343 q 489 353 463 343 q 524 392 515 364 q 532 488 532 421 q 524 584 532 556 q 490 622 515 613 q 401 632 464 632 l 304 632 l 304 343 l 401 343 z "},"Q":{"ha":846,"x_min":67,"x_max":828,"o":"m 504 -7 q 422 -11 467 -11 q 176 31 250 -11 q 85 166 103 72 q 67 478 67 260 q 85 790 67 696 q 176 925 103 883 q 422 967 250 967 q 668 925 594 967 q 760 790 742 883 q 779 478 779 696 q 763 192 779 285 q 692 53 747 99 l 828 -153 l 828 -160 l 599 -160 l 504 -7 m 422 165 q 522 181 497 165 q 555 253 547 196 q 563 478 563 311 q 555 702 563 644 q 522 775 547 760 q 422 790 497 790 q 323 775 349 790 q 290 702 297 760 q 283 478 283 644 q 290 253 283 311 q 323 181 297 196 q 422 165 349 165 z "},"R":{"ha":822,"x_min":89,"x_max":781,"o":"m 554 0 l 443 335 l 304 335 l 304 0 l 89 0 l 89 956 l 482 956 q 660 920 600 956 q 740 819 719 885 q 760 646 760 754 q 738 473 760 544 q 647 368 715 401 l 781 0 l 554 0 m 413 513 q 499 522 474 513 q 533 558 525 532 q 542 644 542 583 q 534 733 542 707 q 501 767 526 758 q 414 776 475 776 l 304 776 l 304 513 l 413 513 z "},"Ŕ":{"ha":822,"x_min":89,"x_max":781,"o":"m 554 0 l 443 335 l 304 335 l 304 0 l 89 0 l 89 956 l 482 956 q 660 920 600 956 q 740 819 719 885 q 760 646 760 754 q 738 473 760 544 q 647 368 715 401 l 781 0 l 554 0 m 413 513 q 499 522 474 513 q 533 558 525 532 q 542 644 542 583 q 534 733 542 707 q 501 767 526 758 q 414 776 475 776 l 304 776 l 304 513 l 413 513 m 328 1032 l 328 1039 l 429 1233 l 626 1233 l 626 1226 l 478 1032 l 328 1032 z "},"Ř":{"ha":822,"x_min":89,"x_max":781,"o":"m 554 0 l 443 335 l 304 335 l 304 0 l 89 0 l 89 956 l 482 956 q 660 920 600 956 q 740 819 719 885 q 760 646 760 754 q 738 473 760 544 q 647 368 715 401 l 781 0 l 554 0 m 413 513 q 499 522 474 513 q 533 558 525 532 q 542 644 542 583 q 534 733 542 707 q 501 767 526 758 q 414 776 475 776 l 304 776 l 304 513 l 413 513 m 314 1040 l 196 1222 l 196 1233 l 329 1233 l 411 1126 l 492 1233 l 625 1233 l 625 1222 l 507 1040 l 314 1040 z "},"Ŗ":{"ha":822,"x_min":89,"x_max":781,"o":"m 554 0 l 443 335 l 304 335 l 304 0 l 89 0 l 89 956 l 482 956 q 660 920 600 956 q 740 819 719 885 q 760 646 760 754 q 738 473 760 544 q 647 368 715 401 l 781 0 l 554 0 m 413 513 q 499 522 474 513 q 533 558 525 532 q 542 644 542 583 q 534 733 542 707 q 501 767 526 758 q 414 776 475 776 l 304 776 l 304 513 l 413 513 m 304 -321 q 373 -309 357 -321 q 389 -261 389 -297 l 389 -243 l 313 -243 l 313 -85 l 517 -85 l 517 -192 q 503 -324 517 -282 q 444 -384 489 -367 q 304 -401 400 -401 l 304 -321 z "},"Ȑ":{"ha":822,"x_min":89,"x_max":781,"o":"m 554 0 l 443 335 l 304 335 l 304 0 l 89 0 l 89 956 l 482 956 q 660 920 600 956 q 740 819 719 885 q 760 646 760 754 q 738 473 760 544 q 647 368 715 401 l 781 0 l 554 0 m 413 513 q 499 522 474 513 q 533 558 525 532 q 542 644 542 583 q 534 733 542 707 q 501 767 526 758 q 414 776 475 776 l 304 776 l 304 513 l 413 513 m 367 1049 l 243 1049 l 118 1213 l 118 1218 l 279 1218 l 367 1054 l 367 1049 m 601 1049 l 478 1049 l 353 1213 l 353 1218 l 515 1218 l 601 1054 l 601 1049 z "},"Ṛ":{"ha":822,"x_min":89,"x_max":781,"o":"m 554 0 l 443 335 l 304 335 l 304 0 l 89 0 l 89 956 l 482 956 q 660 920 600 956 q 740 819 719 885 q 760 646 760 754 q 738 473 760 544 q 647 368 715 401 l 781 0 l 554 0 m 413 513 q 499 522 474 513 q 533 558 525 532 q 542 644 542 583 q 534 733 542 707 q 501 767 526 758 q 414 776 475 776 l 304 776 l 304 513 l 413 513 m 303 -278 l 303 -86 l 519 -86 l 519 -278 l 303 -278 z "},"Ȓ":{"ha":822,"x_min":89,"x_max":781,"o":"m 554 0 l 443 335 l 304 335 l 304 0 l 89 0 l 89 956 l 482 956 q 660 920 600 956 q 740 819 719 885 q 760 646 760 754 q 738 473 760 544 q 647 368 715 401 l 781 0 l 554 0 m 413 513 q 499 522 474 513 q 533 558 525 532 q 542 644 542 583 q 534 733 542 707 q 501 767 526 758 q 414 776 475 776 l 304 776 l 304 513 l 413 513 m 215 1043 q 229 1151 215 1110 q 286 1217 243 1193 q 413 1242 329 1242 q 538 1217 496 1242 q 594 1151 581 1193 q 608 1043 608 1110 l 492 1043 q 488 1093 492 1076 q 467 1120 483 1110 q 413 1131 450 1131 q 357 1120 375 1131 q 335 1092 339 1110 q 331 1043 331 1075 l 215 1043 z "},"S":{"ha":746,"x_min":53,"x_max":692,"o":"m 383 -11 q 76 13 210 -11 l 76 182 q 321 168 249 168 q 410 174 378 168 q 456 193 442 179 q 472 224 468 206 q 475 275 475 242 q 469 338 475 319 q 447 365 464 357 q 388 381 429 374 l 233 403 q 90 485 128 418 q 53 676 53 551 q 93 861 53 797 q 203 946 133 925 q 379 967 272 967 q 650 939 511 967 l 650 772 q 428 788 525 788 q 296 768 325 788 q 275 741 279 758 q 271 688 271 724 q 275 631 271 647 q 294 606 279 614 q 344 593 308 599 l 510 569 q 602 542 565 561 q 663 475 639 522 q 692 300 692 414 q 654 99 692 167 q 552 10 617 31 q 383 -11 488 -11 z "},"Ś":{"ha":746,"x_min":53,"x_max":692,"o":"m 383 -11 q 76 13 210 -11 l 76 182 q 321 168 249 168 q 410 174 378 168 q 456 193 442 179 q 472 224 468 206 q 475 275 475 242 q 469 338 475 319 q 447 365 464 357 q 388 381 429 374 l 233 403 q 90 485 128 418 q 53 676 53 551 q 93 861 53 797 q 203 946 133 925 q 379 967 272 967 q 650 939 511 967 l 650 772 q 428 788 525 788 q 296 768 325 788 q 275 741 279 758 q 271 688 271 724 q 275 631 271 647 q 294 606 279 614 q 344 593 308 599 l 510 569 q 602 542 565 561 q 663 475 639 522 q 692 300 692 414 q 654 99 692 167 q 552 10 617 31 q 383 -11 488 -11 m 290 1032 l 290 1039 l 392 1233 l 589 1233 l 589 1226 l 440 1032 l 290 1032 z "},"Ꞌ":{"ha":263,"x_min":40,"x_max":224,"o":"m 40 374 l 40 956 l 224 956 l 224 719 l 181 374 l 40 374 z "},"Š":{"ha":740,"x_min":53,"x_max":692,"o":"m 383 -11 q 76 13 210 -11 l 76 182 q 321 168 249 168 q 410 174 378 168 q 456 193 442 179 q 472 224 468 206 q 475 275 475 242 q 469 338 475 319 q 447 365 464 357 q 388 381 429 374 l 233 403 q 90 485 128 418 q 53 676 53 551 q 93 861 53 797 q 203 946 133 925 q 379 967 272 967 q 650 939 511 967 l 650 772 q 428 788 525 788 q 296 768 325 788 q 275 741 279 758 q 271 688 271 724 q 275 631 271 647 q 294 606 279 614 q 344 593 308 599 l 510 569 q 602 542 565 561 q 663 475 639 522 q 692 300 692 414 q 654 99 692 167 q 552 10 617 31 q 383 -11 488 -11 m 281 1042 l 163 1224 l 163 1235 l 296 1235 l 378 1128 l 458 1235 l 592 1235 l 592 1224 l 474 1042 l 281 1042 z "},"Ş":{"ha":746,"x_min":53,"x_max":692,"o":"m 692 300 q 661 113 692 179 q 576 21 631 47 q 439 -10 522 -6 l 392 -262 l 211 -262 l 211 -256 l 301 -10 q 76 13 183 -6 l 76 182 q 321 168 249 168 q 410 174 378 168 q 456 193 442 179 q 472 224 468 206 q 475 275 475 242 q 469 338 475 319 q 447 365 464 357 q 388 381 429 374 l 233 403 q 90 485 128 418 q 53 676 53 551 q 93 861 53 797 q 203 946 133 925 q 379 967 272 967 q 650 939 511 967 l 650 772 q 428 788 525 788 q 296 768 325 788 q 275 741 279 758 q 271 688 271 724 q 275 631 271 647 q 294 606 279 614 q 344 593 308 599 l 510 569 q 602 542 565 561 q 663 475 639 522 q 692 300 692 414 z "},"Ŝ":{"ha":746,"x_min":53,"x_max":692,"o":"m 383 -11 q 76 13 210 -11 l 76 182 q 321 168 249 168 q 410 174 378 168 q 456 193 442 179 q 472 224 468 206 q 475 275 475 242 q 469 338 475 319 q 447 365 464 357 q 388 381 429 374 l 233 403 q 90 485 128 418 q 53 676 53 551 q 93 861 53 797 q 203 946 133 925 q 379 967 272 967 q 650 939 511 967 l 650 772 q 428 788 525 788 q 296 768 325 788 q 275 741 279 758 q 271 688 271 724 q 275 631 271 647 q 294 606 279 614 q 344 593 308 599 l 510 569 q 602 542 565 561 q 663 475 639 522 q 692 300 692 414 q 654 99 692 167 q 552 10 617 31 q 383 -11 488 -11 m 158 1040 l 158 1051 l 276 1233 l 469 1233 l 589 1051 l 589 1040 l 454 1040 l 372 1147 l 292 1040 l 158 1040 z "},"Ș":{"ha":746,"x_min":53,"x_max":692,"o":"m 383 -11 q 76 13 210 -11 l 76 182 q 321 168 249 168 q 410 174 378 168 q 456 193 442 179 q 472 224 468 206 q 475 275 475 242 q 469 338 475 319 q 447 365 464 357 q 388 381 429 374 l 233 403 q 90 485 128 418 q 53 676 53 551 q 93 861 53 797 q 203 946 133 925 q 379 967 272 967 q 650 939 511 967 l 650 772 q 428 788 525 788 q 296 768 325 788 q 275 741 279 758 q 271 688 271 724 q 275 631 271 647 q 294 606 279 614 q 344 593 308 599 l 510 569 q 602 542 565 561 q 663 475 639 522 q 692 300 692 414 q 654 99 692 167 q 552 10 617 31 q 383 -11 488 -11 m 267 -321 q 335 -309 319 -321 q 351 -261 351 -297 l 351 -243 l 275 -243 l 275 -85 l 479 -85 l 479 -192 q 465 -324 479 -282 q 407 -384 451 -367 q 267 -401 363 -401 l 267 -321 z "},"Ṣ":{"ha":746,"x_min":53,"x_max":692,"o":"m 383 -11 q 76 13 210 -11 l 76 182 q 321 168 249 168 q 410 174 378 168 q 456 193 442 179 q 472 224 468 206 q 475 275 475 242 q 469 338 475 319 q 447 365 464 357 q 388 381 429 374 l 233 403 q 90 485 128 418 q 53 676 53 551 q 93 861 53 797 q 203 946 133 925 q 379 967 272 967 q 650 939 511 967 l 650 772 q 428 788 525 788 q 296 768 325 788 q 275 741 279 758 q 271 688 271 724 q 275 631 271 647 q 294 606 279 614 q 344 593 308 599 l 510 569 q 602 542 565 561 q 663 475 639 522 q 692 300 692 414 q 654 99 692 167 q 552 10 617 31 q 383 -11 488 -11 m 265 -278 l 265 -86 l 482 -86 l 482 -278 l 265 -278 z "},"ẞ":{"ha":922,"x_min":81,"x_max":864,"o":"m 636 531 q 810 460 756 521 q 864 254 864 399 q 835 103 864 161 q 738 17 806 44 q 553 -11 669 -11 q 463 -3 514 -11 q 375 17 413 6 l 375 179 q 511 165 451 165 q 598 172 571 165 q 636 202 625 179 q 647 276 647 225 q 637 353 647 328 q 603 387 626 378 q 532 396 579 396 l 413 396 l 413 544 l 586 785 q 479 790 531 790 q 353 771 389 790 q 308 692 318 751 q 297 478 297 632 l 297 0 l 81 0 l 81 478 q 108 784 81 683 q 212 926 135 885 q 450 967 289 967 q 638 956 539 967 q 817 928 736 944 l 817 779 l 636 531 z "},"Ə":{"ha":831,"x_min":65,"x_max":763,"o":"m 396 967 q 635 922 558 967 q 738 778 713 878 q 763 478 763 679 q 744 166 763 260 q 654 31 726 72 q 414 -11 582 -11 q 174 31 246 -11 q 83 166 101 72 q 65 478 65 260 l 65 572 l 546 572 q 528 717 543 674 q 474 774 514 761 q 344 788 435 788 q 158 775 251 788 l 158 943 q 269 960 203 954 q 396 967 335 967 m 414 165 q 504 176 479 165 q 539 233 529 188 q 550 393 549 278 l 279 393 q 290 233 281 278 q 324 176 299 188 q 414 165 349 165 z "},"T":{"ha":704,"x_min":18,"x_max":686,"o":"m 243 0 l 243 769 l 18 769 l 18 956 l 686 956 l 686 769 l 460 769 l 460 0 l 243 0 z "},"Ŧ":{"ha":703,"x_min":18,"x_max":686,"o":"m 686 769 l 460 769 l 460 539 l 656 539 l 656 386 l 460 386 l 460 0 l 243 0 l 243 386 l 47 386 l 47 539 l 243 539 l 243 769 l 18 769 l 18 956 l 686 956 l 686 769 z "},"Ť":{"ha":704,"x_min":18,"x_max":686,"o":"m 243 0 l 243 769 l 18 769 l 18 956 l 686 956 l 686 769 l 460 769 l 460 0 l 243 0 m 256 1040 l 138 1222 l 138 1233 l 271 1233 l 353 1126 l 433 1233 l 567 1233 l 567 1222 l 449 1040 l 256 1040 z "},"Ţ":{"ha":704,"x_min":18,"x_max":686,"o":"m 18 956 l 686 956 l 686 769 l 460 769 l 460 0 l 419 0 l 371 -262 l 190 -262 l 190 -256 l 283 0 l 243 0 l 243 769 l 18 769 l 18 956 z "},"Ț":{"ha":704,"x_min":18,"x_max":686,"o":"m 243 0 l 243 769 l 18 769 l 18 956 l 686 956 l 686 769 l 460 769 l 460 0 l 243 0 m 246 -321 q 315 -309 299 -321 q 331 -261 331 -297 l 331 -243 l 254 -243 l 254 -85 l 458 -85 l 458 -192 q 444 -324 458 -282 q 386 -384 431 -367 q 246 -401 342 -401 l 246 -321 z "},"Ṭ":{"ha":704,"x_min":18,"x_max":686,"o":"m 243 0 l 243 769 l 18 769 l 18 956 l 686 956 l 686 769 l 460 769 l 460 0 l 243 0 m 244 -278 l 244 -86 l 461 -86 l 461 -278 l 244 -278 z "},"U":{"ha":836,"x_min":81,"x_max":754,"o":"m 754 956 l 754 428 q 735 150 754 236 q 646 26 715 64 q 418 -11 576 -11 q 190 26 260 -11 q 101 151 121 64 q 81 428 81 238 l 81 956 l 297 956 l 297 371 q 303 231 297 269 q 333 179 310 192 q 418 167 357 167 q 502 179 479 167 q 531 230 525 192 q 538 371 538 268 l 538 956 l 754 956 z "},"Ú":{"ha":836,"x_min":81,"x_max":754,"o":"m 754 956 l 754 428 q 735 150 754 236 q 646 26 715 64 q 418 -11 576 -11 q 190 26 260 -11 q 101 151 121 64 q 81 428 81 238 l 81 956 l 297 956 l 297 371 q 303 231 297 269 q 333 179 310 192 q 418 167 357 167 q 502 179 479 167 q 531 230 525 192 q 538 371 538 268 l 538 956 l 754 956 m 339 1042 l 339 1049 l 440 1243 l 638 1243 l 638 1236 l 489 1042 l 339 1042 z "},"Ŭ":{"ha":836,"x_min":81,"x_max":754,"o":"m 754 956 l 754 428 q 735 150 754 236 q 646 26 715 64 q 418 -11 576 -11 q 190 26 260 -11 q 101 151 121 64 q 81 428 81 238 l 81 956 l 297 956 l 297 371 q 303 231 297 269 q 333 179 310 192 q 418 167 357 167 q 502 179 479 167 q 531 230 525 192 q 538 371 538 268 l 538 956 l 754 956 m 614 1233 q 600 1125 614 1167 q 543 1059 586 1083 q 417 1035 500 1035 q 291 1059 333 1035 q 235 1125 249 1083 q 221 1233 221 1167 l 338 1233 q 342 1183 338 1200 q 363 1156 346 1167 q 417 1146 379 1146 q 472 1156 454 1146 q 494 1184 490 1167 q 499 1233 499 1201 l 614 1233 z "},"Ǔ":{"ha":836,"x_min":81,"x_max":754,"o":"m 754 956 l 754 428 q 735 150 754 236 q 646 26 715 64 q 418 -11 576 -11 q 190 26 260 -11 q 101 151 121 64 q 81 428 81 238 l 81 956 l 297 956 l 297 371 q 303 231 297 269 q 333 179 310 192 q 418 167 357 167 q 502 179 479 167 q 531 230 525 192 q 538 371 538 268 l 538 956 l 754 956 m 321 1040 l 203 1222 l 203 1233 l 336 1233 l 418 1126 l 499 1233 l 632 1233 l 632 1222 l 514 1040 l 321 1040 z "},"Û":{"ha":836,"x_min":81,"x_max":754,"o":"m 754 956 l 754 428 q 735 150 754 236 q 646 26 715 64 q 418 -11 576 -11 q 190 26 260 -11 q 101 151 121 64 q 81 428 81 238 l 81 956 l 297 956 l 297 371 q 303 231 297 269 q 333 179 310 192 q 418 167 357 167 q 502 179 479 167 q 531 230 525 192 q 538 371 538 268 l 538 956 l 754 956 m 204 1042 l 204 1053 l 322 1235 l 515 1235 l 635 1053 l 635 1042 l 500 1042 l 418 1149 l 338 1042 l 204 1042 z "},"Ȕ":{"ha":836,"x_min":81,"x_max":754,"o":"m 754 956 l 754 428 q 735 150 754 236 q 646 26 715 64 q 418 -11 576 -11 q 190 26 260 -11 q 101 151 121 64 q 81 428 81 238 l 81 956 l 297 956 l 297 371 q 303 231 297 269 q 333 179 310 192 q 418 167 357 167 q 502 179 479 167 q 531 230 525 192 q 538 371 538 268 l 538 956 l 754 956 m 374 1049 l 250 1049 l 125 1213 l 125 1218 l 286 1218 l 374 1054 l 374 1049 m 608 1049 l 485 1049 l 360 1213 l 360 1218 l 522 1218 l 608 1054 l 608 1049 z "},"Ü":{"ha":836,"x_min":81,"x_max":754,"o":"m 754 956 l 754 428 q 735 150 754 236 q 646 26 715 64 q 418 -11 576 -11 q 190 26 260 -11 q 101 151 121 64 q 81 428 81 238 l 81 956 l 297 956 l 297 371 q 303 231 297 269 q 333 179 310 192 q 418 167 357 167 q 502 179 479 167 q 531 230 525 192 q 538 371 538 268 l 538 956 l 754 956 m 201 1081 l 201 1228 l 369 1228 l 369 1081 l 201 1081 m 467 1081 l 467 1228 l 635 1228 l 635 1081 l 467 1081 z "},"Ǘ":{"ha":836,"x_min":81,"x_max":754,"o":"m 369 1208 l 369 1068 l 201 1068 l 201 1215 l 338 1215 l 439 1410 l 636 1410 l 636 1403 l 493 1215 l 635 1215 l 635 1068 l 467 1068 l 467 1208 l 369 1208 m 754 956 l 754 428 q 735 150 754 236 q 646 26 715 64 q 418 -11 576 -11 q 190 26 260 -11 q 101 151 121 64 q 81 428 81 238 l 81 956 l 297 956 l 297 371 q 303 231 297 269 q 333 179 310 192 q 418 167 357 167 q 502 179 479 167 q 531 230 525 192 q 538 371 538 268 l 538 956 l 754 956 z "},"Ǚ":{"ha":836,"x_min":81,"x_max":754,"o":"m 754 956 l 754 428 q 735 150 754 236 q 646 26 715 64 q 418 -11 576 -11 q 190 26 260 -11 q 101 151 121 64 q 81 428 81 238 l 81 956 l 297 956 l 297 371 q 303 231 297 269 q 333 179 310 192 q 418 167 357 167 q 502 179 479 167 q 531 230 525 192 q 538 371 538 268 l 538 956 l 754 956 m 201 1068 l 201 1215 l 369 1215 l 369 1068 l 201 1068 m 467 1068 l 467 1215 l 635 1215 l 635 1068 l 467 1068 m 324 1217 l 206 1399 l 206 1410 l 339 1410 l 421 1303 l 501 1410 l 635 1410 l 635 1399 l 517 1217 l 324 1217 z "},"Ǜ":{"ha":836,"x_min":81,"x_max":754,"o":"m 369 1208 l 369 1068 l 201 1068 l 201 1215 l 349 1215 l 206 1403 l 206 1410 l 403 1410 l 504 1215 l 635 1215 l 635 1068 l 467 1068 l 467 1208 l 369 1208 m 754 956 l 754 428 q 735 150 754 236 q 646 26 715 64 q 418 -11 576 -11 q 190 26 260 -11 q 101 151 121 64 q 81 428 81 238 l 81 956 l 297 956 l 297 371 q 303 231 297 269 q 333 179 310 192 q 418 167 357 167 q 502 179 479 167 q 531 230 525 192 q 538 371 538 268 l 538 956 l 754 956 z "},"Ǖ":{"ha":836,"x_min":81,"x_max":754,"o":"m 254 1228 l 254 1379 l 589 1379 l 589 1228 l 254 1228 m 201 1068 l 201 1215 l 369 1215 l 369 1068 l 201 1068 m 467 1068 l 467 1215 l 635 1215 l 635 1068 l 467 1068 m 754 956 l 754 428 q 735 150 754 236 q 646 26 715 64 q 418 -11 576 -11 q 190 26 260 -11 q 101 151 121 64 q 81 428 81 238 l 81 956 l 297 956 l 297 371 q 303 231 297 269 q 333 179 310 192 q 418 167 357 167 q 502 179 479 167 q 531 230 525 192 q 538 371 538 268 l 538 956 l 754 956 z "},"Ụ":{"ha":836,"x_min":81,"x_max":754,"o":"m 754 956 l 754 428 q 735 150 754 236 q 646 26 715 64 q 418 -11 576 -11 q 190 26 260 -11 q 101 151 121 64 q 81 428 81 238 l 81 956 l 297 956 l 297 371 q 303 231 297 269 q 333 179 310 192 q 418 167 357 167 q 502 179 479 167 q 531 230 525 192 q 538 371 538 268 l 538 956 l 754 956 m 310 -278 l 310 -86 l 526 -86 l 526 -278 l 310 -278 z "},"Ù":{"ha":836,"x_min":81,"x_max":754,"o":"m 754 956 l 754 428 q 735 150 754 236 q 646 26 715 64 q 418 -11 576 -11 q 190 26 260 -11 q 101 151 121 64 q 81 428 81 238 l 81 956 l 297 956 l 297 371 q 303 231 297 269 q 333 179 310 192 q 418 167 357 167 q 502 179 479 167 q 531 230 525 192 q 538 371 538 268 l 538 956 l 754 956 m 357 1042 l 208 1236 l 208 1243 l 406 1243 l 507 1049 l 507 1042 l 357 1042 z "},"Ủ":{"ha":836,"x_min":81,"x_max":754,"o":"m 754 956 l 754 428 q 735 150 754 236 q 646 26 715 64 q 418 -11 576 -11 q 190 26 260 -11 q 101 151 121 64 q 81 428 81 238 l 81 956 l 297 956 l 297 371 q 303 231 297 269 q 333 179 310 192 q 418 167 357 167 q 502 179 479 167 q 531 230 525 192 q 538 371 538 268 l 538 956 l 754 956 m 324 1026 q 336 1085 324 1068 q 386 1113 349 1101 l 407 1121 q 449 1139 440 1132 q 458 1163 458 1146 q 444 1190 458 1185 q 385 1196 429 1196 q 243 1189 313 1196 l 243 1292 q 408 1307 328 1307 q 510 1298 471 1307 q 571 1261 549 1289 q 593 1179 593 1233 q 575 1104 593 1128 q 508 1064 557 1081 l 486 1056 q 447 1036 454 1043 q 439 1010 439 1029 l 324 1010 l 324 1026 z "},"Ư":{"ha":836,"x_min":81,"x_max":871,"o":"m 871 1083 l 871 1051 q 863 960 871 993 q 829 907 854 926 q 754 881 804 888 l 754 428 q 735 150 754 236 q 646 26 715 64 q 418 -11 576 -11 q 190 26 260 -11 q 101 151 121 64 q 81 428 81 238 l 81 956 l 297 956 l 297 371 q 303 231 297 269 q 333 179 310 192 q 418 167 357 167 q 502 179 479 167 q 531 230 525 192 q 538 371 538 268 l 538 956 l 651 956 q 709 963 690 956 q 734 985 728 969 q 740 1032 740 1000 l 740 1083 l 871 1083 z "},"Ứ":{"ha":836,"x_min":81,"x_max":871,"o":"m 871 1083 l 871 1051 q 863 960 871 993 q 829 907 854 926 q 754 881 804 888 l 754 428 q 735 150 754 236 q 646 26 715 64 q 418 -11 576 -11 q 190 26 260 -11 q 101 151 121 64 q 81 428 81 238 l 81 956 l 297 956 l 297 371 q 303 231 297 269 q 333 179 310 192 q 418 167 357 167 q 502 179 479 167 q 531 230 525 192 q 538 371 538 268 l 538 956 l 651 956 q 709 963 690 956 q 734 985 728 969 q 740 1032 740 1000 l 740 1083 l 871 1083 m 335 1032 l 335 1039 l 436 1233 l 633 1233 l 633 1226 l 485 1032 l 335 1032 z "},"Ự":{"ha":836,"x_min":81,"x_max":871,"o":"m 871 1083 l 871 1051 q 863 960 871 993 q 829 907 854 926 q 754 881 804 888 l 754 428 q 735 150 754 236 q 646 26 715 64 q 418 -11 576 -11 q 190 26 260 -11 q 101 151 121 64 q 81 428 81 238 l 81 956 l 297 956 l 297 371 q 303 231 297 269 q 333 179 310 192 q 418 167 357 167 q 502 179 479 167 q 531 230 525 192 q 538 371 538 268 l 538 956 l 651 956 q 709 963 690 956 q 734 985 728 969 q 740 1032 740 1000 l 740 1083 l 871 1083 m 310 -278 l 310 -86 l 526 -86 l 526 -278 l 310 -278 z "},"Ừ":{"ha":836,"x_min":81,"x_max":871,"o":"m 871 1083 l 871 1051 q 863 960 871 993 q 829 907 854 926 q 754 881 804 888 l 754 428 q 735 150 754 236 q 646 26 715 64 q 418 -11 576 -11 q 190 26 260 -11 q 101 151 121 64 q 81 428 81 238 l 81 956 l 297 956 l 297 371 q 303 231 297 269 q 333 179 310 192 q 418 167 357 167 q 502 179 479 167 q 531 230 525 192 q 538 371 538 268 l 538 956 l 651 956 q 709 963 690 956 q 734 985 728 969 q 740 1032 740 1000 l 740 1083 l 871 1083 m 351 1032 l 203 1226 l 203 1233 l 400 1233 l 501 1039 l 501 1032 l 351 1032 z "},"Ử":{"ha":836,"x_min":81,"x_max":871,"o":"m 871 1083 l 871 1051 q 863 960 871 993 q 829 907 854 926 q 754 881 804 888 l 754 428 q 735 150 754 236 q 646 26 715 64 q 418 -11 576 -11 q 190 26 260 -11 q 101 151 121 64 q 81 428 81 238 l 81 956 l 297 956 l 297 371 q 303 231 297 269 q 333 179 310 192 q 418 167 357 167 q 502 179 479 167 q 531 230 525 192 q 538 371 538 268 l 538 956 l 651 956 q 709 963 690 956 q 734 985 728 969 q 740 1032 740 1000 l 740 1083 l 871 1083 m 324 1026 q 336 1085 324 1068 q 386 1113 349 1101 l 407 1121 q 449 1139 440 1132 q 458 1163 458 1146 q 444 1190 458 1185 q 385 1196 429 1196 q 243 1189 313 1196 l 243 1292 q 408 1307 328 1307 q 510 1298 471 1307 q 571 1261 549 1289 q 593 1179 593 1233 q 575 1104 593 1128 q 508 1064 557 1081 l 486 1056 q 447 1036 454 1043 q 439 1010 439 1029 l 324 1010 l 324 1026 z "},"Ữ":{"ha":836,"x_min":81,"x_max":871,"o":"m 871 1083 l 871 1051 q 863 960 871 993 q 829 907 854 926 q 754 881 804 888 l 754 428 q 735 150 754 236 q 646 26 715 64 q 418 -11 576 -11 q 190 26 260 -11 q 101 151 121 64 q 81 428 81 238 l 81 956 l 297 956 l 297 371 q 303 231 297 269 q 333 179 310 192 q 418 167 357 167 q 502 179 479 167 q 531 230 525 192 q 538 371 538 268 l 538 956 l 651 956 q 709 963 690 956 q 734 985 728 969 q 740 1032 740 1000 l 740 1083 l 871 1083 m 663 1233 q 656 1124 663 1161 q 625 1065 650 1086 q 546 1044 600 1044 q 482 1051 514 1044 q 403 1069 450 1057 q 360 1080 390 1072 q 311 1088 329 1088 q 285 1076 290 1088 q 281 1029 281 1065 l 174 1029 q 180 1139 174 1101 q 211 1197 186 1176 q 290 1218 236 1218 q 353 1212 322 1218 q 435 1193 383 1206 q 485 1181 460 1186 q 525 1176 510 1176 q 551 1187 546 1176 q 556 1233 556 1197 l 663 1233 z "},"Ű":{"ha":836,"x_min":81,"x_max":754,"o":"m 754 956 l 754 428 q 735 150 754 236 q 646 26 715 64 q 418 -11 576 -11 q 190 26 260 -11 q 101 151 121 64 q 81 428 81 238 l 81 956 l 297 956 l 297 371 q 303 231 297 269 q 333 179 310 192 q 418 167 357 167 q 502 179 479 167 q 531 230 525 192 q 538 371 538 268 l 538 956 l 754 956 m 239 1049 l 239 1054 l 325 1218 l 488 1218 l 488 1213 l 363 1049 l 239 1049 m 474 1049 l 474 1054 l 561 1218 l 722 1218 l 722 1213 l 597 1049 l 474 1049 z "},"Ȗ":{"ha":836,"x_min":81,"x_max":754,"o":"m 754 956 l 754 428 q 735 150 754 236 q 646 26 715 64 q 418 -11 576 -11 q 190 26 260 -11 q 101 151 121 64 q 81 428 81 238 l 81 956 l 297 956 l 297 371 q 303 231 297 269 q 333 179 310 192 q 418 167 357 167 q 502 179 479 167 q 531 230 525 192 q 538 371 538 268 l 538 956 l 754 956 m 222 1043 q 236 1151 222 1110 q 293 1217 250 1193 q 419 1242 336 1242 q 545 1217 503 1242 q 601 1151 588 1193 q 615 1043 615 1110 l 499 1043 q 494 1093 499 1076 q 474 1120 490 1110 q 419 1131 457 1131 q 364 1120 382 1131 q 342 1092 346 1110 q 338 1043 338 1075 l 222 1043 z "},"Ū":{"ha":836,"x_min":81,"x_max":754,"o":"m 754 956 l 754 428 q 735 150 754 236 q 646 26 715 64 q 418 -11 576 -11 q 190 26 260 -11 q 101 151 121 64 q 81 428 81 238 l 81 956 l 297 956 l 297 371 q 303 231 297 269 q 333 179 310 192 q 418 167 357 167 q 502 179 479 167 q 531 230 525 192 q 538 371 538 268 l 538 956 l 754 956 m 251 1064 l 251 1233 l 586 1233 l 586 1064 l 251 1064 z "},"Ų":{"ha":836,"x_min":81,"x_max":754,"o":"m 754 956 l 754 428 q 747 227 754 300 q 718 105 740 154 q 649 29 696 56 q 572 -35 600 -1 q 544 -114 544 -68 q 558 -151 544 -137 q 606 -164 571 -164 q 626 -162 618 -164 l 626 -267 q 542 -272 588 -272 q 383 -154 383 -272 q 451 -11 383 -86 l 417 -11 q 190 26 260 -11 q 101 151 121 64 q 81 428 81 238 l 81 956 l 297 956 l 297 371 q 303 231 297 269 q 333 179 310 192 q 418 167 357 167 q 502 179 479 167 q 531 230 525 192 q 538 371 538 268 l 538 956 l 754 956 z "},"Ů":{"ha":836,"x_min":81,"x_max":754,"o":"m 754 956 l 754 428 q 735 150 754 236 q 646 26 715 64 q 418 -11 576 -11 q 190 26 260 -11 q 101 151 121 64 q 81 428 81 238 l 81 956 l 297 956 l 297 371 q 303 231 297 269 q 333 179 310 192 q 418 167 357 167 q 502 179 479 167 q 531 230 525 192 q 538 371 538 268 l 538 956 l 754 956 m 417 993 q 290 1009 331 993 q 239 1056 250 1025 q 228 1150 228 1088 q 239 1246 228 1214 q 290 1294 250 1278 q 417 1310 331 1310 q 544 1294 504 1310 q 596 1246 585 1278 q 607 1150 607 1214 q 596 1056 607 1088 q 544 1009 585 1025 q 417 993 504 993 m 417 1082 q 470 1088 454 1082 q 490 1106 486 1093 q 493 1150 493 1118 q 490 1195 493 1182 q 470 1215 486 1208 q 417 1221 454 1221 q 365 1215 381 1221 q 347 1195 350 1208 q 343 1150 343 1182 q 347 1106 343 1118 q 365 1088 350 1093 q 417 1082 381 1082 z "},"Ũ":{"ha":836,"x_min":81,"x_max":754,"o":"m 754 956 l 754 428 q 735 150 754 236 q 646 26 715 64 q 418 -11 576 -11 q 190 26 260 -11 q 101 151 121 64 q 81 428 81 238 l 81 956 l 297 956 l 297 371 q 303 231 297 269 q 333 179 310 192 q 418 167 357 167 q 502 179 479 167 q 531 230 525 192 q 538 371 538 268 l 538 956 l 754 956 m 663 1233 q 656 1124 663 1161 q 625 1065 650 1086 q 546 1044 600 1044 q 482 1051 514 1044 q 403 1069 450 1057 q 360 1080 390 1072 q 311 1088 329 1088 q 285 1076 290 1088 q 281 1029 281 1065 l 174 1029 q 180 1139 174 1101 q 211 1197 186 1176 q 290 1218 236 1218 q 353 1212 322 1218 q 435 1193 383 1206 q 485 1181 460 1186 q 525 1176 510 1176 q 551 1187 546 1176 q 556 1233 556 1197 l 663 1233 z "},"V":{"ha":801,"x_min":14,"x_max":788,"o":"m 251 0 l 14 956 l 235 956 l 399 229 l 410 229 l 569 956 l 788 956 l 550 0 l 251 0 z "},"W":{"ha":1210,"x_min":24,"x_max":1206,"o":"m 740 0 l 618 626 l 610 626 l 488 0 l 204 0 l 24 956 l 240 956 l 356 240 l 364 240 l 500 956 l 735 956 l 874 240 l 882 240 l 990 956 l 1206 956 l 1024 0 l 740 0 z "},"Ẃ":{"ha":1210,"x_min":24,"x_max":1206,"o":"m 740 0 l 618 626 l 610 626 l 488 0 l 204 0 l 24 956 l 240 956 l 356 240 l 364 240 l 500 956 l 735 956 l 874 240 l 882 240 l 990 956 l 1206 956 l 1024 0 l 740 0 m 522 1032 l 522 1039 l 624 1233 l 821 1233 l 821 1226 l 672 1032 l 522 1032 z "},"Ŵ":{"ha":1210,"x_min":24,"x_max":1206,"o":"m 740 0 l 618 626 l 610 626 l 488 0 l 204 0 l 24 956 l 240 956 l 356 240 l 364 240 l 500 956 l 735 956 l 874 240 l 882 240 l 990 956 l 1206 956 l 1024 0 l 740 0 m 390 1040 l 390 1051 l 508 1233 l 701 1233 l 821 1051 l 821 1040 l 686 1040 l 604 1147 l 524 1040 l 390 1040 z "},"Ẅ":{"ha":1210,"x_min":24,"x_max":1206,"o":"m 740 0 l 618 626 l 610 626 l 488 0 l 204 0 l 24 956 l 240 956 l 356 240 l 364 240 l 500 956 l 735 956 l 874 240 l 882 240 l 990 956 l 1206 956 l 1024 0 l 740 0 m 389 1068 l 389 1215 l 557 1215 l 557 1068 l 389 1068 m 654 1068 l 654 1215 l 822 1215 l 822 1068 l 654 1068 z "},"Ẁ":{"ha":1210,"x_min":24,"x_max":1206,"o":"m 740 0 l 618 626 l 610 626 l 488 0 l 204 0 l 24 956 l 240 956 l 356 240 l 364 240 l 500 956 l 735 956 l 874 240 l 882 240 l 990 956 l 1206 956 l 1024 0 l 740 0 m 539 1032 l 390 1226 l 390 1233 l 588 1233 l 689 1039 l 689 1032 l 539 1032 z "},"X":{"ha":831,"x_min":18,"x_max":813,"o":"m 572 0 l 417 319 l 406 319 l 250 0 l 18 0 l 275 481 l 22 956 l 263 956 l 413 646 l 424 646 l 576 956 l 810 956 l 557 485 l 813 0 l 572 0 z "},"Y":{"ha":769,"x_min":1,"x_max":767,"o":"m 276 0 l 276 329 l 1 956 l 224 956 l 383 549 l 394 549 l 550 956 l 767 956 l 493 329 l 493 0 l 276 0 z "},"Ý":{"ha":769,"x_min":1,"x_max":767,"o":"m 276 0 l 276 329 l 1 956 l 224 956 l 383 549 l 394 549 l 550 956 l 767 956 l 493 329 l 493 0 l 276 0 m 311 1042 l 311 1049 l 413 1243 l 610 1243 l 610 1236 l 461 1042 l 311 1042 z "},"Ŷ":{"ha":769,"x_min":1,"x_max":767,"o":"m 276 0 l 276 329 l 1 956 l 224 956 l 383 549 l 394 549 l 550 956 l 767 956 l 493 329 l 493 0 l 276 0 m 169 1040 l 169 1051 l 288 1233 l 481 1233 l 600 1051 l 600 1040 l 465 1040 l 383 1147 l 303 1040 l 169 1040 z "},"Ÿ":{"ha":769,"x_min":1,"x_max":767,"o":"m 276 0 l 276 329 l 1 956 l 224 956 l 383 549 l 394 549 l 550 956 l 767 956 l 493 329 l 493 0 l 276 0 m 174 1081 l 174 1228 l 342 1228 l 342 1081 l 174 1081 m 439 1081 l 439 1228 l 607 1228 l 607 1081 l 439 1081 z "},"Ỵ":{"ha":769,"x_min":1,"x_max":767,"o":"m 276 0 l 276 329 l 1 956 l 224 956 l 383 549 l 394 549 l 550 956 l 767 956 l 493 329 l 493 0 l 276 0 m 276 -278 l 276 -86 l 493 -86 l 493 -278 l 276 -278 z "},"Ỳ":{"ha":769,"x_min":1,"x_max":767,"o":"m 276 0 l 276 329 l 1 956 l 224 956 l 383 549 l 394 549 l 550 956 l 767 956 l 493 329 l 493 0 l 276 0 m 318 1032 l 169 1226 l 169 1233 l 367 1233 l 468 1039 l 468 1032 l 318 1032 z "},"Ỷ":{"ha":769,"x_min":1,"x_max":767,"o":"m 276 0 l 276 329 l 1 956 l 224 956 l 383 549 l 394 549 l 550 956 l 767 956 l 493 329 l 493 0 l 276 0 m 290 1026 q 303 1085 290 1068 q 353 1113 315 1101 l 374 1121 q 416 1139 407 1132 q 425 1163 425 1146 q 410 1190 425 1185 q 351 1196 396 1196 q 210 1189 279 1196 l 210 1292 q 375 1307 294 1307 q 476 1298 438 1307 q 538 1261 515 1289 q 560 1179 560 1233 q 542 1104 560 1128 q 475 1064 524 1081 l 453 1056 q 413 1036 421 1043 q 406 1010 406 1029 l 290 1010 l 290 1026 z "},"Ȳ":{"ha":769,"x_min":1,"x_max":767,"o":"m 276 0 l 276 329 l 1 956 l 224 956 l 383 549 l 394 549 l 550 956 l 767 956 l 493 329 l 493 0 l 276 0 m 218 1064 l 218 1233 l 553 1233 l 553 1064 l 218 1064 z "},"Ỹ":{"ha":769,"x_min":1,"x_max":767,"o":"m 276 0 l 276 329 l 1 956 l 224 956 l 383 549 l 394 549 l 550 956 l 767 956 l 493 329 l 493 0 l 276 0 m 629 1233 q 623 1124 629 1161 q 592 1065 617 1086 q 513 1044 567 1044 q 449 1051 481 1044 q 369 1069 417 1057 q 326 1080 357 1072 q 278 1088 296 1088 q 252 1076 257 1088 q 247 1029 247 1065 l 140 1029 q 147 1139 140 1101 q 178 1197 153 1176 q 257 1218 203 1218 q 319 1212 289 1218 q 401 1193 350 1206 q 451 1181 426 1186 q 492 1176 476 1176 q 517 1187 513 1176 q 522 1233 522 1197 l 629 1233 z "},"Z":{"ha":742,"x_min":53,"x_max":690,"o":"m 53 0 l 53 171 l 429 776 l 65 776 l 65 956 l 688 956 l 688 789 l 308 179 l 690 179 l 690 0 l 53 0 z "},"Ź":{"ha":742,"x_min":53,"x_max":690,"o":"m 53 0 l 53 171 l 429 776 l 65 776 l 65 956 l 688 956 l 688 789 l 308 179 l 690 179 l 690 0 l 53 0 m 288 1032 l 288 1039 l 389 1233 l 586 1233 l 586 1226 l 438 1032 l 288 1032 z "},"Ž":{"ha":736,"x_min":53,"x_max":690,"o":"m 53 0 l 53 171 l 429 776 l 65 776 l 65 956 l 688 956 l 688 789 l 308 179 l 690 179 l 690 0 l 53 0 m 283 1042 l 165 1224 l 165 1235 l 299 1235 l 381 1128 l 461 1235 l 594 1235 l 594 1224 l 476 1042 l 283 1042 z "},"Ż":{"ha":742,"x_min":53,"x_max":690,"o":"m 53 0 l 53 171 l 429 776 l 65 776 l 65 956 l 688 956 l 688 789 l 308 179 l 690 179 l 690 0 l 53 0 m 286 1068 l 286 1215 l 454 1215 l 454 1068 l 286 1068 z "},"Ẓ":{"ha":742,"x_min":53,"x_max":690,"o":"m 53 0 l 53 171 l 429 776 l 65 776 l 65 956 l 688 956 l 688 789 l 308 179 l 690 179 l 690 0 l 53 0 m 263 -278 l 263 -86 l 479 -86 l 479 -278 l 263 -278 z "},"a":{"ha":693,"x_min":44,"x_max":618,"o":"m 228 -11 q 88 40 132 -11 q 44 203 44 90 q 63 332 44 285 q 124 400 81 379 q 249 421 168 421 q 417 415 308 421 l 417 444 q 406 524 417 501 q 367 553 396 547 q 265 560 338 560 q 83 550 167 560 l 83 697 q 329 719 201 719 q 516 690 454 719 q 598 602 578 661 q 618 431 618 543 l 618 0 l 426 0 l 421 83 l 410 83 q 335 9 382 29 q 228 -11 289 -11 m 321 146 q 372 153 353 146 q 401 178 390 160 q 417 272 417 206 l 417 303 l 310 303 q 263 297 278 303 q 243 274 249 292 q 238 221 238 257 q 243 174 238 189 q 266 152 249 158 q 321 146 283 146 z "},"á":{"ha":693,"x_min":44,"x_max":618,"o":"m 228 -11 q 88 40 132 -11 q 44 203 44 90 q 63 332 44 285 q 124 400 81 379 q 249 421 168 421 q 417 415 308 421 l 417 444 q 406 524 417 501 q 367 553 396 547 q 265 560 338 560 q 83 550 167 560 l 83 697 q 329 719 201 719 q 516 690 454 719 q 598 602 578 661 q 618 431 618 543 l 618 0 l 426 0 l 421 83 l 410 83 q 335 9 382 29 q 228 -11 289 -11 m 321 146 q 372 153 353 146 q 401 178 390 160 q 417 272 417 206 l 417 303 l 310 303 q 263 297 278 303 q 243 274 249 292 q 238 221 238 257 q 243 174 238 189 q 266 152 249 158 q 321 146 283 146 m 263 831 l 263 838 l 364 1032 l 561 1032 l 561 1025 l 413 831 l 263 831 z "},"ă":{"ha":693,"x_min":44,"x_max":618,"o":"m 228 -11 q 88 40 132 -11 q 44 203 44 90 q 63 332 44 285 q 124 400 81 379 q 249 421 168 421 q 417 415 308 421 l 417 444 q 406 524 417 501 q 367 553 396 547 q 265 560 338 560 q 83 550 167 560 l 83 697 q 329 719 201 719 q 516 690 454 719 q 598 602 578 661 q 618 431 618 543 l 618 0 l 426 0 l 421 83 l 410 83 q 335 9 382 29 q 228 -11 289 -11 m 321 146 q 372 153 353 146 q 401 178 390 160 q 417 272 417 206 l 417 303 l 310 303 q 263 297 278 303 q 243 274 249 292 q 238 221 238 257 q 243 174 238 189 q 266 152 249 158 q 321 146 283 146 m 543 1032 q 529 924 543 965 q 472 858 515 882 q 346 833 429 833 q 220 858 263 833 q 164 924 178 882 q 150 1032 150 965 l 267 1032 q 271 982 267 999 q 292 955 275 965 q 346 944 308 944 q 401 955 383 944 q 424 983 419 965 q 428 1032 428 1000 l 543 1032 z "},"ắ":{"ha":693,"x_min":44,"x_max":618,"o":"m 228 -11 q 88 40 132 -11 q 44 203 44 90 q 63 332 44 285 q 124 400 81 379 q 249 421 168 421 q 417 415 308 421 l 417 444 q 406 524 417 501 q 367 553 396 547 q 265 560 338 560 q 83 550 167 560 l 83 697 q 329 719 201 719 q 516 690 454 719 q 598 602 578 661 q 618 431 618 543 l 618 0 l 426 0 l 421 83 l 410 83 q 335 9 382 29 q 228 -11 289 -11 m 321 146 q 372 153 353 146 q 401 178 390 160 q 417 272 417 206 l 417 303 l 310 303 q 263 297 278 303 q 243 274 249 292 q 238 221 238 257 q 243 174 238 189 q 266 152 249 158 q 321 146 283 146 m 532 1032 q 518 924 532 965 q 461 858 504 882 q 335 833 418 833 q 209 858 251 833 q 153 924 167 882 q 139 1032 139 965 l 256 1032 q 260 982 256 999 q 281 955 264 965 q 335 944 297 944 q 390 955 372 944 q 413 983 408 965 q 417 1032 417 1000 l 532 1032 m 250 1071 l 250 1078 l 351 1272 l 549 1272 l 549 1265 l 400 1071 l 250 1071 z "},"ặ":{"ha":693,"x_min":44,"x_max":618,"o":"m 228 -11 q 88 40 132 -11 q 44 203 44 90 q 63 332 44 285 q 124 400 81 379 q 249 421 168 421 q 417 415 308 421 l 417 444 q 406 524 417 501 q 367 553 396 547 q 265 560 338 560 q 83 550 167 560 l 83 697 q 329 719 201 719 q 516 690 454 719 q 598 602 578 661 q 618 431 618 543 l 618 0 l 426 0 l 421 83 l 410 83 q 335 9 382 29 q 228 -11 289 -11 m 321 146 q 372 153 353 146 q 401 178 390 160 q 417 272 417 206 l 417 303 l 310 303 q 263 297 278 303 q 243 274 249 292 q 238 221 238 257 q 243 174 238 189 q 266 152 249 158 q 321 146 283 146 m 239 -278 l 239 -86 l 456 -86 l 456 -278 l 239 -278 m 543 1032 q 529 924 543 965 q 472 858 515 882 q 346 833 429 833 q 220 858 263 833 q 164 924 178 882 q 150 1032 150 965 l 267 1032 q 271 982 267 999 q 292 955 275 965 q 346 944 308 944 q 401 955 383 944 q 424 983 419 965 q 428 1032 428 1000 l 543 1032 z "},"ằ":{"ha":693,"x_min":44,"x_max":618,"o":"m 228 -11 q 88 40 132 -11 q 44 203 44 90 q 63 332 44 285 q 124 400 81 379 q 249 421 168 421 q 417 415 308 421 l 417 444 q 406 524 417 501 q 367 553 396 547 q 265 560 338 560 q 83 550 167 560 l 83 697 q 329 719 201 719 q 516 690 454 719 q 598 602 578 661 q 618 431 618 543 l 618 0 l 426 0 l 421 83 l 410 83 q 335 9 382 29 q 228 -11 289 -11 m 321 146 q 372 153 353 146 q 401 178 390 160 q 417 272 417 206 l 417 303 l 310 303 q 263 297 278 303 q 243 274 249 292 q 238 221 238 257 q 243 174 238 189 q 266 152 249 158 q 321 146 283 146 m 554 1032 q 540 924 554 965 q 483 858 526 882 q 357 833 440 833 q 231 858 274 833 q 175 924 189 882 q 161 1032 161 965 l 278 1032 q 282 982 278 999 q 303 955 286 965 q 357 944 319 944 q 413 955 394 944 q 435 983 431 965 q 439 1032 439 1000 l 554 1032 m 290 1071 l 142 1265 l 142 1272 l 339 1272 l 440 1078 l 440 1071 l 290 1071 z "},"ẳ":{"ha":693,"x_min":44,"x_max":618,"o":"m 228 -11 q 88 40 132 -11 q 44 203 44 90 q 63 332 44 285 q 124 400 81 379 q 249 421 168 421 q 417 415 308 421 l 417 444 q 406 524 417 501 q 367 553 396 547 q 265 560 338 560 q 83 550 167 560 l 83 697 q 329 719 201 719 q 516 690 454 719 q 598 602 578 661 q 618 431 618 543 l 618 0 l 426 0 l 421 83 l 410 83 q 335 9 382 29 q 228 -11 289 -11 m 321 146 q 372 153 353 146 q 401 178 390 160 q 417 272 417 206 l 417 303 l 310 303 q 263 297 278 303 q 243 274 249 292 q 238 221 238 257 q 243 174 238 189 q 266 152 249 158 q 321 146 283 146 m 538 1032 q 524 924 538 965 q 467 858 510 882 q 340 833 424 833 q 215 858 257 833 q 158 924 172 882 q 144 1032 144 965 l 261 1032 q 265 982 261 999 q 286 955 269 965 q 340 944 303 944 q 396 955 378 944 q 418 983 414 965 q 422 1032 422 1000 l 538 1032 m 271 1056 q 283 1114 271 1097 q 333 1142 296 1131 l 354 1149 q 396 1167 386 1160 q 406 1192 406 1175 q 392 1219 406 1214 q 332 1224 378 1224 q 190 1217 260 1224 l 190 1319 q 356 1335 275 1335 q 457 1326 418 1335 q 518 1289 496 1317 q 540 1207 540 1261 q 522 1133 540 1156 q 456 1092 504 1110 l 433 1083 q 394 1065 401 1072 q 386 1038 386 1057 l 271 1038 l 271 1056 z "},"ẵ":{"ha":693,"x_min":44,"x_max":618,"o":"m 228 -11 q 88 40 132 -11 q 44 203 44 90 q 63 332 44 285 q 124 400 81 379 q 249 421 168 421 q 417 415 308 421 l 417 444 q 406 524 417 501 q 367 553 396 547 q 265 560 338 560 q 83 550 167 560 l 83 697 q 329 719 201 719 q 516 690 454 719 q 598 602 578 661 q 618 431 618 543 l 618 0 l 426 0 l 421 83 l 410 83 q 335 9 382 29 q 228 -11 289 -11 m 321 146 q 372 153 353 146 q 401 178 390 160 q 417 272 417 206 l 417 303 l 310 303 q 263 297 278 303 q 243 274 249 292 q 238 221 238 257 q 243 174 238 189 q 266 152 249 158 q 321 146 283 146 m 540 1032 q 526 924 540 965 q 469 858 513 882 q 343 833 426 833 q 217 858 260 833 q 161 924 175 882 q 147 1032 147 965 l 264 1032 q 268 982 264 999 q 289 955 272 965 q 343 944 306 944 q 399 955 381 944 q 421 983 417 965 q 425 1032 425 1000 l 540 1032 m 592 1299 q 585 1189 592 1226 q 554 1131 579 1151 q 475 1110 529 1110 q 411 1116 443 1110 q 332 1135 379 1122 q 289 1145 319 1138 q 240 1153 258 1153 q 215 1142 219 1153 q 210 1094 210 1131 l 103 1094 q 109 1204 103 1167 q 140 1263 115 1242 q 219 1283 165 1283 q 282 1277 251 1283 q 364 1258 313 1271 q 414 1247 389 1251 q 454 1242 439 1242 q 480 1252 475 1242 q 485 1299 485 1263 l 592 1299 z "},"ǎ":{"ha":693,"x_min":44,"x_max":618,"o":"m 228 -11 q 88 40 132 -11 q 44 203 44 90 q 63 332 44 285 q 124 400 81 379 q 249 421 168 421 q 417 415 308 421 l 417 444 q 406 524 417 501 q 367 553 396 547 q 265 560 338 560 q 83 550 167 560 l 83 697 q 329 719 201 719 q 516 690 454 719 q 598 602 578 661 q 618 431 618 543 l 618 0 l 426 0 l 421 83 l 410 83 q 335 9 382 29 q 228 -11 289 -11 m 321 146 q 372 153 353 146 q 401 178 390 160 q 417 272 417 206 l 417 303 l 310 303 q 263 297 278 303 q 243 274 249 292 q 238 221 238 257 q 243 174 238 189 q 266 152 249 158 q 321 146 283 146 m 250 839 l 132 1021 l 132 1032 l 265 1032 l 347 925 l 428 1032 l 561 1032 l 561 1021 l 443 839 l 250 839 z "},"â":{"ha":693,"x_min":44,"x_max":618,"o":"m 228 -11 q 88 40 132 -11 q 44 203 44 90 q 63 332 44 285 q 124 400 81 379 q 249 421 168 421 q 417 415 308 421 l 417 444 q 406 524 417 501 q 367 553 396 547 q 265 560 338 560 q 83 550 167 560 l 83 697 q 329 719 201 719 q 516 690 454 719 q 598 602 578 661 q 618 431 618 543 l 618 0 l 426 0 l 421 83 l 410 83 q 335 9 382 29 q 228 -11 289 -11 m 321 146 q 372 153 353 146 q 401 178 390 160 q 417 272 417 206 l 417 303 l 310 303 q 263 297 278 303 q 243 274 249 292 q 238 221 238 257 q 243 174 238 189 q 266 152 249 158 q 321 146 283 146 m 133 839 l 133 850 l 251 1032 l 444 1032 l 564 850 l 564 839 l 429 839 l 347 946 l 267 839 l 133 839 z "},"ấ":{"ha":693,"x_min":44,"x_max":668,"o":"m 228 -11 q 88 40 132 -11 q 44 203 44 90 q 63 332 44 285 q 124 400 81 379 q 249 421 168 421 q 417 415 308 421 l 417 444 q 406 524 417 501 q 367 553 396 547 q 265 560 338 560 q 83 550 167 560 l 83 697 q 329 719 201 719 q 516 690 454 719 q 598 602 578 661 q 618 431 618 543 l 618 0 l 426 0 l 421 83 l 410 83 q 335 9 382 29 q 228 -11 289 -11 m 321 146 q 372 153 353 146 q 401 178 390 160 q 417 272 417 206 l 417 303 l 310 303 q 263 297 278 303 q 243 274 249 292 q 238 221 238 257 q 243 174 238 189 q 266 152 249 158 q 321 146 283 146 m 131 839 l 131 850 l 249 1032 l 442 1032 l 561 850 l 561 839 l 426 839 l 344 946 l 264 839 l 131 839 m 369 1071 l 369 1078 l 471 1272 l 668 1272 l 668 1265 l 519 1071 l 369 1071 z "},"ậ":{"ha":693,"x_min":44,"x_max":618,"o":"m 228 -11 q 88 40 132 -11 q 44 203 44 90 q 63 332 44 285 q 124 400 81 379 q 249 421 168 421 q 417 415 308 421 l 417 444 q 406 524 417 501 q 367 553 396 547 q 265 560 338 560 q 83 550 167 560 l 83 697 q 329 719 201 719 q 516 690 454 719 q 598 602 578 661 q 618 431 618 543 l 618 0 l 426 0 l 421 83 l 410 83 q 335 9 382 29 q 228 -11 289 -11 m 321 146 q 372 153 353 146 q 401 178 390 160 q 417 272 417 206 l 417 303 l 310 303 q 263 297 278 303 q 243 274 249 292 q 238 221 238 257 q 243 174 238 189 q 266 152 249 158 q 321 146 283 146 m 239 -278 l 239 -86 l 456 -86 l 456 -278 l 239 -278 m 132 839 l 132 850 l 250 1032 l 443 1032 l 563 850 l 563 839 l 428 839 l 346 946 l 265 839 l 132 839 z "},"ầ":{"ha":693,"x_min":44,"x_max":618,"o":"m 228 -11 q 88 40 132 -11 q 44 203 44 90 q 63 332 44 285 q 124 400 81 379 q 249 421 168 421 q 417 415 308 421 l 417 444 q 406 524 417 501 q 367 553 396 547 q 265 560 338 560 q 83 550 167 560 l 83 697 q 329 719 201 719 q 516 690 454 719 q 598 602 578 661 q 618 431 618 543 l 618 0 l 426 0 l 421 83 l 410 83 q 335 9 382 29 q 228 -11 289 -11 m 321 146 q 372 153 353 146 q 401 178 390 160 q 417 272 417 206 l 417 303 l 310 303 q 263 297 278 303 q 243 274 249 292 q 238 221 238 257 q 243 174 238 189 q 266 152 249 158 q 321 146 283 146 m 124 839 l 124 850 l 242 1032 l 435 1032 l 554 850 l 554 839 l 419 839 l 338 946 l 257 839 l 124 839 m 418 1071 l 269 1265 l 269 1272 l 467 1272 l 568 1078 l 568 1071 l 418 1071 z "},"ẩ":{"ha":693,"x_min":44,"x_max":672,"o":"m 228 -11 q 88 40 132 -11 q 44 203 44 90 q 63 332 44 285 q 124 400 81 379 q 249 421 168 421 q 417 415 308 421 l 417 444 q 406 524 417 501 q 367 553 396 547 q 265 560 338 560 q 83 550 167 560 l 83 697 q 329 719 201 719 q 516 690 454 719 q 598 602 578 661 q 618 431 618 543 l 618 0 l 426 0 l 421 83 l 410 83 q 335 9 382 29 q 228 -11 289 -11 m 321 146 q 372 153 353 146 q 401 178 390 160 q 417 272 417 206 l 417 303 l 310 303 q 263 297 278 303 q 243 274 249 292 q 238 221 238 257 q 243 174 238 189 q 266 152 249 158 q 321 146 283 146 m 132 839 l 132 850 l 250 1032 l 443 1032 l 563 850 l 563 839 l 428 839 l 346 946 l 265 839 l 132 839 m 403 1076 q 415 1135 403 1118 q 465 1163 428 1151 l 486 1169 q 528 1188 518 1181 q 538 1213 538 1196 q 524 1240 538 1235 q 464 1244 510 1244 q 322 1238 392 1244 l 322 1340 q 488 1356 407 1356 q 589 1347 550 1356 q 650 1310 628 1338 q 672 1228 672 1282 q 654 1153 672 1176 q 588 1113 636 1131 l 565 1104 q 526 1085 533 1093 q 518 1058 518 1078 l 403 1058 l 403 1076 z "},"ẫ":{"ha":693,"x_min":44,"x_max":618,"o":"m 228 -11 q 88 40 132 -11 q 44 203 44 90 q 63 332 44 285 q 124 400 81 379 q 249 421 168 421 q 417 415 308 421 l 417 444 q 406 524 417 501 q 367 553 396 547 q 265 560 338 560 q 83 550 167 560 l 83 697 q 329 719 201 719 q 516 690 454 719 q 598 602 578 661 q 618 431 618 543 l 618 0 l 426 0 l 421 83 l 410 83 q 335 9 382 29 q 228 -11 289 -11 m 321 146 q 372 153 353 146 q 401 178 390 160 q 417 272 417 206 l 417 303 l 310 303 q 263 297 278 303 q 243 274 249 292 q 238 221 238 257 q 243 174 238 189 q 266 152 249 158 q 321 146 283 146 m 129 839 l 129 850 l 247 1032 l 440 1032 l 560 850 l 560 839 l 425 839 l 343 946 l 263 839 l 129 839 m 592 1272 q 585 1163 592 1200 q 554 1104 579 1125 q 475 1083 529 1083 q 411 1090 443 1083 q 332 1108 379 1096 q 289 1119 319 1111 q 240 1126 258 1126 q 215 1115 219 1126 q 210 1068 210 1104 l 103 1068 q 109 1178 103 1140 q 140 1236 115 1215 q 219 1257 165 1257 q 282 1251 251 1257 q 364 1232 313 1244 q 414 1220 389 1225 q 454 1215 439 1215 q 480 1226 475 1215 q 485 1272 485 1236 l 592 1272 z "},"ȁ":{"ha":693,"x_min":44,"x_max":618,"o":"m 228 -11 q 88 40 132 -11 q 44 203 44 90 q 63 332 44 285 q 124 400 81 379 q 249 421 168 421 q 417 415 308 421 l 417 444 q 406 524 417 501 q 367 553 396 547 q 265 560 338 560 q 83 550 167 560 l 83 697 q 329 719 201 719 q 516 690 454 719 q 598 602 578 661 q 618 431 618 543 l 618 0 l 426 0 l 421 83 l 410 83 q 335 9 382 29 q 228 -11 289 -11 m 321 146 q 372 153 353 146 q 401 178 390 160 q 417 272 417 206 l 417 303 l 310 303 q 263 297 278 303 q 243 274 249 292 q 238 221 238 257 q 243 174 238 189 q 266 152 249 158 q 321 146 283 146 m 303 847 l 179 847 l 54 1011 l 54 1017 l 215 1017 l 303 853 l 303 847 m 538 847 l 414 847 l 289 1011 l 289 1017 l 451 1017 l 538 853 l 538 847 z "},"ä":{"ha":693,"x_min":44,"x_max":618,"o":"m 228 -11 q 88 40 132 -11 q 44 203 44 90 q 63 332 44 285 q 124 400 81 379 q 249 421 168 421 q 417 415 308 421 l 417 444 q 406 524 417 501 q 367 553 396 547 q 265 560 338 560 q 83 550 167 560 l 83 697 q 329 719 201 719 q 516 690 454 719 q 598 602 578 661 q 618 431 618 543 l 618 0 l 426 0 l 421 83 l 410 83 q 335 9 382 29 q 228 -11 289 -11 m 321 146 q 372 153 353 146 q 401 178 390 160 q 417 272 417 206 l 417 303 l 310 303 q 263 297 278 303 q 243 274 249 292 q 238 221 238 257 q 243 174 238 189 q 266 152 249 158 q 321 146 283 146 m 132 864 l 132 1011 l 300 1011 l 300 864 l 132 864 m 397 864 l 397 1011 l 565 1011 l 565 864 l 397 864 z "},"ạ":{"ha":693,"x_min":44,"x_max":618,"o":"m 228 -11 q 88 40 132 -11 q 44 203 44 90 q 63 332 44 285 q 124 400 81 379 q 249 421 168 421 q 417 415 308 421 l 417 444 q 406 524 417 501 q 367 553 396 547 q 265 560 338 560 q 83 550 167 560 l 83 697 q 329 719 201 719 q 516 690 454 719 q 598 602 578 661 q 618 431 618 543 l 618 0 l 426 0 l 421 83 l 410 83 q 335 9 382 29 q 228 -11 289 -11 m 321 146 q 372 153 353 146 q 401 178 390 160 q 417 272 417 206 l 417 303 l 310 303 q 263 297 278 303 q 243 274 249 292 q 238 221 238 257 q 243 174 238 189 q 266 152 249 158 q 321 146 283 146 m 239 -278 l 239 -86 l 456 -86 l 456 -278 l 239 -278 z "},"à":{"ha":693,"x_min":44,"x_max":618,"o":"m 228 -11 q 88 40 132 -11 q 44 203 44 90 q 63 332 44 285 q 124 400 81 379 q 249 421 168 421 q 417 415 308 421 l 417 444 q 406 524 417 501 q 367 553 396 547 q 265 560 338 560 q 83 550 167 560 l 83 697 q 329 719 201 719 q 516 690 454 719 q 598 602 578 661 q 618 431 618 543 l 618 0 l 426 0 l 421 83 l 410 83 q 335 9 382 29 q 228 -11 289 -11 m 321 146 q 372 153 353 146 q 401 178 390 160 q 417 272 417 206 l 417 303 l 310 303 q 263 297 278 303 q 243 274 249 292 q 238 221 238 257 q 243 174 238 189 q 266 152 249 158 q 321 146 283 146 m 283 831 l 135 1025 l 135 1032 l 332 1032 l 433 838 l 433 831 l 283 831 z "},"ả":{"ha":693,"x_min":44,"x_max":618,"o":"m 228 -11 q 88 40 132 -11 q 44 203 44 90 q 63 332 44 285 q 124 400 81 379 q 249 421 168 421 q 417 415 308 421 l 417 444 q 406 524 417 501 q 367 553 396 547 q 265 560 338 560 q 83 550 167 560 l 83 697 q 329 719 201 719 q 516 690 454 719 q 598 602 578 661 q 618 431 618 543 l 618 0 l 426 0 l 421 83 l 410 83 q 335 9 382 29 q 228 -11 289 -11 m 321 146 q 372 153 353 146 q 401 178 390 160 q 417 272 417 206 l 417 303 l 310 303 q 263 297 278 303 q 243 274 249 292 q 238 221 238 257 q 243 174 238 189 q 266 152 249 158 q 321 146 283 146 m 253 865 q 265 924 253 907 q 315 951 278 940 l 336 958 q 378 977 368 969 q 388 1001 388 985 q 374 1028 388 1024 q 314 1033 360 1033 q 172 1026 242 1033 l 172 1129 q 338 1144 257 1144 q 439 1135 400 1144 q 500 1099 478 1126 q 522 1017 522 1071 q 504 942 522 965 q 438 901 486 919 l 415 893 q 376 874 383 882 q 368 847 368 867 l 253 847 l 253 865 z "},"ȃ":{"ha":693,"x_min":44,"x_max":618,"o":"m 228 -11 q 88 40 132 -11 q 44 203 44 90 q 63 332 44 285 q 124 400 81 379 q 249 421 168 421 q 417 415 308 421 l 417 444 q 406 524 417 501 q 367 553 396 547 q 265 560 338 560 q 83 550 167 560 l 83 697 q 329 719 201 719 q 516 690 454 719 q 598 602 578 661 q 618 431 618 543 l 618 0 l 426 0 l 421 83 l 410 83 q 335 9 382 29 q 228 -11 289 -11 m 321 146 q 372 153 353 146 q 401 178 390 160 q 417 272 417 206 l 417 303 l 310 303 q 263 297 278 303 q 243 274 249 292 q 238 221 238 257 q 243 174 238 189 q 266 152 249 158 q 321 146 283 146 m 151 842 q 165 950 151 908 q 222 1016 179 992 q 349 1040 265 1040 q 474 1016 432 1040 q 531 950 517 992 q 544 842 544 908 l 428 842 q 424 892 428 875 q 403 919 419 908 q 349 929 386 929 q 293 919 311 929 q 271 891 275 908 q 267 842 267 874 l 151 842 z "},"ā":{"ha":693,"x_min":44,"x_max":618,"o":"m 228 -11 q 88 40 132 -11 q 44 203 44 90 q 63 332 44 285 q 124 400 81 379 q 249 421 168 421 q 417 415 308 421 l 417 444 q 406 524 417 501 q 367 553 396 547 q 265 560 338 560 q 83 550 167 560 l 83 697 q 329 719 201 719 q 516 690 454 719 q 598 602 578 661 q 618 431 618 543 l 618 0 l 426 0 l 421 83 l 410 83 q 335 9 382 29 q 228 -11 289 -11 m 321 146 q 372 153 353 146 q 401 178 390 160 q 417 272 417 206 l 417 303 l 310 303 q 263 297 278 303 q 243 274 249 292 q 238 221 238 257 q 243 174 238 189 q 266 152 249 158 q 321 146 283 146 m 181 863 l 181 1032 l 515 1032 l 515 863 l 181 863 z "},"ą":{"ha":693,"x_min":44,"x_max":619,"o":"m 597 -164 q 619 -162 611 -164 l 619 -267 q 536 -272 581 -272 q 413 -240 450 -272 q 376 -158 376 -208 q 460 0 376 -79 l 426 0 l 421 83 l 410 83 q 335 9 382 29 q 228 -11 289 -11 q 88 40 132 -11 q 44 203 44 90 q 63 332 44 285 q 124 400 81 379 q 249 421 168 421 q 417 415 308 421 l 417 444 q 406 524 417 501 q 367 553 396 547 q 265 560 338 560 q 172 556 229 560 q 83 550 115 553 l 83 697 q 329 719 201 719 q 516 690 454 719 q 598 602 578 661 q 618 431 618 543 l 618 0 q 563 -51 588 -18 q 538 -118 538 -85 q 597 -164 538 -164 m 417 303 l 310 303 q 263 297 278 303 q 243 274 249 292 q 238 221 238 257 q 243 174 238 189 q 266 152 249 158 q 321 146 283 146 q 372 153 353 146 q 401 178 390 160 q 417 272 417 206 l 417 303 z "},"å":{"ha":693,"x_min":44,"x_max":618,"o":"m 228 -11 q 88 40 132 -11 q 44 203 44 90 q 63 332 44 285 q 124 400 81 379 q 249 421 168 421 q 417 415 308 421 l 417 444 q 406 524 417 501 q 367 553 396 547 q 265 560 338 560 q 83 550 167 560 l 83 697 q 329 719 201 719 q 516 690 454 719 q 598 602 578 661 q 618 431 618 543 l 618 0 l 426 0 l 421 83 l 410 83 q 335 9 382 29 q 228 -11 289 -11 m 321 146 q 372 153 353 146 q 401 178 390 160 q 417 272 417 206 l 417 303 l 310 303 q 263 297 278 303 q 243 274 249 292 q 238 221 238 257 q 243 174 238 189 q 266 152 249 158 q 321 146 283 146 m 347 807 q 221 823 261 807 q 169 870 181 839 q 158 964 158 901 q 169 1060 158 1028 q 221 1108 181 1092 q 347 1124 261 1124 q 475 1108 435 1124 q 526 1060 515 1092 q 538 964 538 1028 q 526 870 538 901 q 475 823 515 839 q 347 807 435 807 m 347 896 q 401 901 385 896 q 420 919 417 907 q 424 964 424 932 q 420 1009 424 996 q 401 1028 417 1022 q 347 1035 385 1035 q 296 1028 311 1035 q 277 1009 281 1022 q 274 964 274 996 q 277 919 274 932 q 296 901 281 907 q 347 896 311 896 z "},"ǻ":{"ha":693,"x_min":44,"x_max":618,"o":"m 228 -11 q 88 40 132 -11 q 44 203 44 90 q 63 332 44 285 q 124 400 81 379 q 249 421 168 421 q 417 415 308 421 l 417 444 q 406 524 417 501 q 367 553 396 547 q 265 560 338 560 q 83 550 167 560 l 83 697 q 329 719 201 719 q 516 690 454 719 q 598 602 578 661 q 618 431 618 543 l 618 0 l 426 0 l 421 83 l 410 83 q 335 9 382 29 q 228 -11 289 -11 m 321 146 q 372 153 353 146 q 401 178 390 160 q 417 272 417 206 l 417 303 l 310 303 q 263 297 278 303 q 243 274 249 292 q 238 221 238 257 q 243 174 238 189 q 266 152 249 158 q 321 146 283 146 m 346 833 q 219 849 260 833 q 168 897 179 865 q 157 990 157 928 q 168 1086 157 1054 q 219 1134 179 1118 q 346 1150 260 1150 q 474 1134 433 1150 q 525 1086 514 1118 q 536 990 536 1054 q 525 897 536 928 q 474 849 514 865 q 346 833 433 833 m 346 922 q 399 928 383 922 q 419 946 415 933 q 422 990 422 958 q 419 1035 422 1022 q 399 1055 415 1049 q 346 1061 383 1061 q 294 1055 310 1061 q 276 1035 279 1049 q 272 990 272 1022 q 276 946 272 958 q 294 928 279 933 q 346 922 310 922 m 267 1189 l 267 1196 l 368 1390 l 565 1390 l 565 1383 l 417 1189 l 267 1189 z "},"ã":{"ha":693,"x_min":44,"x_max":618,"o":"m 228 -11 q 88 40 132 -11 q 44 203 44 90 q 63 332 44 285 q 124 400 81 379 q 249 421 168 421 q 417 415 308 421 l 417 444 q 406 524 417 501 q 367 553 396 547 q 265 560 338 560 q 83 550 167 560 l 83 697 q 329 719 201 719 q 516 690 454 719 q 598 602 578 661 q 618 431 618 543 l 618 0 l 426 0 l 421 83 l 410 83 q 335 9 382 29 q 228 -11 289 -11 m 321 146 q 372 153 353 146 q 401 178 390 160 q 417 272 417 206 l 417 303 l 310 303 q 263 297 278 303 q 243 274 249 292 q 238 221 238 257 q 243 174 238 189 q 266 152 249 158 q 321 146 283 146 m 590 1032 q 584 922 590 960 q 553 864 578 885 q 474 843 528 843 q 410 849 442 843 q 331 868 378 856 q 288 878 318 871 q 239 886 257 886 q 213 875 218 886 q 208 828 208 864 l 101 828 q 108 938 101 900 q 139 996 114 975 q 218 1017 164 1017 q 281 1010 250 1017 q 363 992 311 1004 q 413 980 388 985 q 453 975 438 975 q 478 985 474 975 q 483 1032 483 996 l 590 1032 z "},"æ":{"ha":1050,"x_min":44,"x_max":992,"o":"m 992 300 l 618 300 q 627 196 618 225 q 667 157 636 167 q 778 147 699 147 q 969 158 842 147 l 969 11 q 860 -5 928 1 q 731 -11 793 -11 q 585 4 640 -11 q 499 54 529 19 q 399 2 456 15 q 271 -11 342 -11 q 94 38 144 -11 q 44 201 44 88 q 63 331 44 285 q 124 399 81 378 q 249 421 168 421 q 417 415 306 421 l 417 443 q 406 524 417 500 q 367 553 396 547 q 265 560 338 560 q 82 550 175 560 l 82 697 q 321 719 213 719 q 522 667 460 719 q 721 719 588 719 q 908 684 851 719 q 978 578 964 649 q 992 353 992 508 l 992 300 m 713 565 q 651 556 669 565 q 626 516 632 546 q 618 417 619 486 l 803 417 q 796 517 803 486 q 771 556 789 547 q 713 565 753 565 m 417 300 l 308 300 q 262 294 276 300 q 242 273 247 289 q 236 221 236 257 q 242 172 236 188 q 265 149 247 156 q 319 142 282 142 q 377 152 357 142 q 407 189 397 163 q 417 269 417 217 l 417 300 z "},"ǽ":{"ha":1050,"x_min":44,"x_max":992,"o":"m 992 300 l 618 300 q 627 196 618 225 q 667 157 636 167 q 778 147 699 147 q 969 158 842 147 l 969 11 q 860 -5 928 1 q 731 -11 793 -11 q 585 4 640 -11 q 499 54 529 19 q 399 2 456 15 q 271 -11 342 -11 q 94 38 144 -11 q 44 201 44 88 q 63 331 44 285 q 124 399 81 378 q 249 421 168 421 q 417 415 306 421 l 417 443 q 406 524 417 500 q 367 553 396 547 q 265 560 338 560 q 82 550 175 560 l 82 697 q 321 719 213 719 q 522 667 460 719 q 721 719 588 719 q 908 684 851 719 q 978 578 964 649 q 992 353 992 508 l 992 300 m 713 565 q 651 556 669 565 q 626 516 632 546 q 618 417 619 486 l 803 417 q 796 517 803 486 q 771 556 789 547 q 713 565 753 565 m 417 300 l 308 300 q 262 294 276 300 q 242 273 247 289 q 236 221 236 257 q 242 172 236 188 q 265 149 247 156 q 319 142 282 142 q 377 152 357 142 q 407 189 397 163 q 417 269 417 217 l 417 300 m 442 831 l 442 838 l 543 1032 l 740 1032 l 740 1025 l 592 831 l 442 831 z "},"b":{"ha":719,"x_min":75,"x_max":665,"o":"m 458 -11 q 351 10 397 -11 q 283 85 306 31 l 272 85 l 267 0 l 75 0 l 75 1032 l 276 1032 l 276 633 l 288 633 q 355 700 313 681 q 460 719 397 719 q 581 686 538 719 q 645 574 625 653 q 665 353 665 494 q 645 131 665 210 q 581 21 625 53 q 458 -11 536 -11 m 369 161 q 435 172 417 161 q 458 221 453 183 q 464 354 464 258 q 458 488 464 450 q 435 536 453 525 q 369 547 417 547 q 319 539 336 547 q 292 508 301 531 q 280 451 283 488 q 276 354 276 415 q 290 203 276 242 q 317 170 299 179 q 369 161 335 161 z "},"c":{"ha":563,"x_min":56,"x_max":515,"o":"m 515 11 q 328 -11 429 -11 q 147 28 206 -11 q 72 142 89 68 q 56 354 56 217 q 74 565 56 490 q 149 680 92 640 q 326 719 207 719 q 511 699 431 719 l 511 550 q 383 560 449 560 q 300 545 325 560 q 267 490 275 531 q 258 354 258 450 q 267 217 258 257 q 299 163 275 176 q 383 149 324 149 q 515 158 456 149 l 515 11 z "},"ć":{"ha":563,"x_min":56,"x_max":515,"o":"m 515 11 q 328 -11 429 -11 q 147 28 206 -11 q 72 142 89 68 q 56 354 56 217 q 74 565 56 490 q 149 680 92 640 q 326 719 207 719 q 511 699 431 719 l 511 550 q 383 560 449 560 q 300 545 325 560 q 267 490 275 531 q 258 354 258 450 q 267 217 258 257 q 299 163 275 176 q 383 149 324 149 q 515 158 456 149 l 515 11 m 199 831 l 199 838 l 300 1032 l 497 1032 l 497 1025 l 349 831 l 199 831 z "},"č":{"ha":563,"x_min":56,"x_max":515,"o":"m 515 11 q 328 -11 429 -11 q 147 28 206 -11 q 72 142 89 68 q 56 354 56 217 q 74 565 56 490 q 149 680 92 640 q 326 719 207 719 q 511 699 431 719 l 511 550 q 383 560 449 560 q 300 545 325 560 q 267 490 275 531 q 258 354 258 450 q 267 217 258 257 q 299 163 275 176 q 383 149 324 149 q 515 158 456 149 l 515 11 m 185 839 l 67 1021 l 67 1032 l 200 1032 l 282 925 l 363 1032 l 496 1032 l 496 1021 l 378 839 l 185 839 z "},"ç":{"ha":563,"x_min":56,"x_max":515,"o":"m 515 11 q 347 -11 438 -8 l 300 -262 l 119 -262 l 119 -256 l 213 1 q 109 63 143 18 q 65 174 75 107 q 56 354 56 242 q 74 565 56 490 q 149 680 92 640 q 326 719 207 719 q 511 699 431 719 l 511 550 q 383 560 449 560 q 300 545 325 560 q 267 490 275 531 q 258 354 258 450 q 267 217 258 257 q 299 163 275 176 q 383 149 324 149 q 515 158 456 149 l 515 11 z "},"ĉ":{"ha":563,"x_min":56,"x_max":515,"o":"m 515 11 q 328 -11 429 -11 q 147 28 206 -11 q 72 142 89 68 q 56 354 56 217 q 74 565 56 490 q 149 680 92 640 q 326 719 207 719 q 511 699 431 719 l 511 550 q 383 560 449 560 q 300 545 325 560 q 267 490 275 531 q 258 354 258 450 q 267 217 258 257 q 299 163 275 176 q 383 149 324 149 q 515 158 456 149 l 515 11 m 67 839 l 67 850 l 185 1032 l 378 1032 l 497 850 l 497 839 l 363 839 l 281 946 l 200 839 l 67 839 z "},"ċ":{"ha":563,"x_min":56,"x_max":515,"o":"m 515 11 q 328 -11 429 -11 q 147 28 206 -11 q 72 142 89 68 q 56 354 56 217 q 74 565 56 490 q 149 680 92 640 q 326 719 207 719 q 511 699 431 719 l 511 550 q 383 560 449 560 q 300 545 325 560 q 267 490 275 531 q 258 354 258 450 q 267 217 258 257 q 299 163 275 176 q 383 149 324 149 q 515 158 456 149 l 515 11 m 197 867 l 197 1014 l 365 1014 l 365 867 l 197 867 z "},"d":{"ha":719,"x_min":56,"x_max":644,"o":"m 263 -11 q 140 21 185 -11 q 76 131 96 53 q 56 353 56 208 q 75 574 56 494 q 138 686 94 653 q 260 719 182 719 q 365 700 322 719 q 432 633 407 681 l 443 633 l 443 1032 l 644 1032 l 644 0 l 454 0 l 449 85 l 436 85 q 368 10 414 31 q 263 -11 322 -11 m 351 161 q 406 171 388 161 q 432 208 424 181 q 441 265 439 232 q 443 354 443 299 q 433 489 443 456 q 408 535 426 524 q 351 547 389 547 q 286 536 304 547 q 263 488 268 525 q 257 354 257 450 q 263 221 257 258 q 286 172 268 183 q 351 161 304 161 z "},"ð":{"ha":708,"x_min":56,"x_max":649,"o":"m 353 -11 q 151 21 213 -11 q 73 124 90 53 q 56 353 56 196 q 70 567 56 493 q 134 680 85 642 q 286 718 183 718 q 404 700 350 718 l 408 706 q 361 826 393 760 l 211 804 l 211 921 l 294 932 q 211 1026 250 988 l 211 1032 l 422 1032 q 485 960 457 997 l 633 982 l 633 867 l 554 854 q 629 625 601 764 q 649 361 649 521 q 632 126 649 199 q 554 21 615 53 q 353 -11 493 -11 m 353 147 q 422 160 403 147 q 444 209 440 172 q 449 353 449 246 q 444 494 449 456 q 422 546 440 532 q 353 560 403 560 q 284 548 303 560 q 261 499 265 536 q 257 353 257 461 q 261 209 257 246 q 284 160 265 172 q 353 147 303 147 z "},"ď":{"ha":804,"x_min":56,"x_max":890,"o":"m 263 -11 q 140 21 185 -11 q 76 131 96 53 q 56 353 56 208 q 75 574 56 494 q 138 686 94 653 q 260 719 182 719 q 365 700 322 719 q 432 633 407 681 l 443 633 l 443 1032 l 644 1032 l 644 0 l 454 0 l 449 85 l 436 85 q 368 10 414 31 q 263 -11 322 -11 m 351 161 q 406 171 388 161 q 432 208 424 181 q 441 265 439 232 q 443 354 443 299 q 433 489 443 456 q 408 535 426 524 q 351 547 389 547 q 286 536 304 547 q 263 488 268 525 q 257 354 257 450 q 263 221 257 258 q 286 172 268 183 q 351 161 304 161 m 686 596 l 707 878 l 707 956 l 890 956 l 890 878 l 826 596 l 686 596 z "},"đ":{"ha":719,"x_min":56,"x_max":715,"o":"m 715 801 l 644 801 l 644 0 l 454 0 l 449 85 l 436 85 q 368 10 414 31 q 263 -11 322 -11 q 140 21 185 -11 q 76 131 96 53 q 56 353 56 208 q 75 574 56 494 q 138 686 94 653 q 260 719 182 719 q 365 700 322 719 q 432 633 407 681 l 443 633 l 443 801 l 293 801 l 293 956 l 443 956 l 443 1032 l 644 1032 l 644 956 l 715 956 l 715 801 m 432 208 q 441 265 439 232 q 443 354 443 299 q 433 489 443 456 q 408 535 426 524 q 351 547 389 547 q 286 536 304 547 q 263 488 268 525 q 257 354 257 450 q 263 221 257 258 q 286 172 268 183 q 351 161 304 161 q 406 171 388 161 q 432 208 424 181 z "},"ḍ":{"ha":719,"x_min":56,"x_max":644,"o":"m 263 -11 q 140 21 185 -11 q 76 131 96 53 q 56 353 56 208 q 75 574 56 494 q 138 686 94 653 q 260 719 182 719 q 365 700 322 719 q 432 633 407 681 l 443 633 l 443 1032 l 644 1032 l 644 0 l 454 0 l 449 85 l 436 85 q 368 10 414 31 q 263 -11 322 -11 m 351 161 q 406 171 388 161 q 432 208 424 181 q 441 265 439 232 q 443 354 443 299 q 433 489 443 456 q 408 535 426 524 q 351 547 389 547 q 286 536 304 547 q 263 488 268 525 q 257 354 257 450 q 263 221 257 258 q 286 172 268 183 q 351 161 304 161 m 251 -278 l 251 -86 l 468 -86 l 468 -278 l 251 -278 z "},"ǳ":{"ha":1363,"x_min":56,"x_max":1310,"o":"m 263 -11 q 140 21 185 -11 q 76 131 96 53 q 56 353 56 208 q 75 574 56 494 q 138 686 94 653 q 260 719 182 719 q 365 700 322 719 q 432 633 407 681 l 443 633 l 443 1032 l 644 1032 l 644 0 l 454 0 l 449 85 l 436 85 q 368 10 414 31 q 263 -11 322 -11 m 351 161 q 406 171 388 161 q 432 208 424 181 q 441 265 439 232 q 443 354 443 299 q 433 489 443 456 q 408 535 426 524 q 351 547 389 547 q 286 536 304 547 q 263 488 268 525 q 257 354 257 450 q 263 221 257 258 q 286 172 268 183 q 351 161 304 161 m 772 0 l 772 149 l 1061 549 l 786 549 l 786 708 l 1307 708 l 1307 560 l 1018 160 l 1310 160 l 1310 0 l 772 0 z "},"ǆ":{"ha":1363,"x_min":56,"x_max":1310,"o":"m 263 -11 q 140 21 185 -11 q 76 131 96 53 q 56 353 56 208 q 75 574 56 494 q 138 686 94 653 q 260 719 182 719 q 365 700 322 719 q 432 633 407 681 l 443 633 l 443 1032 l 644 1032 l 644 0 l 454 0 l 449 85 l 436 85 q 368 10 414 31 q 263 -11 322 -11 m 351 161 q 406 171 388 161 q 432 208 424 181 q 441 265 439 232 q 443 354 443 299 q 433 489 443 456 q 408 535 426 524 q 351 547 389 547 q 286 536 304 547 q 263 488 268 525 q 257 354 257 450 q 263 221 257 258 q 286 172 268 183 q 351 161 304 161 m 772 0 l 772 149 l 1061 549 l 786 549 l 786 708 l 1307 708 l 1307 560 l 1018 160 l 1310 160 l 1310 0 l 772 0 m 940 839 l 822 1021 l 822 1032 l 956 1032 l 1038 925 l 1118 1032 l 1251 1032 l 1251 1021 l 1133 839 l 940 839 z "},"e":{"ha":686,"x_min":56,"x_max":629,"o":"m 629 299 l 256 299 q 264 195 256 224 q 303 157 272 167 q 414 147 335 147 q 607 158 474 147 l 607 11 q 498 -5 565 1 q 367 -11 431 -11 q 158 25 224 -11 q 74 133 92 61 q 56 353 56 206 q 74 571 56 497 q 154 682 92 644 q 351 719 217 719 q 543 684 485 719 q 615 578 601 649 q 629 353 629 507 l 629 299 m 349 565 q 287 556 306 565 q 262 516 268 546 q 256 417 256 486 l 439 417 q 432 517 439 488 q 407 556 425 547 q 349 565 389 565 z "},"é":{"ha":686,"x_min":56,"x_max":629,"o":"m 629 299 l 256 299 q 264 195 256 224 q 303 157 272 167 q 414 147 335 147 q 607 158 474 147 l 607 11 q 498 -5 565 1 q 367 -11 431 -11 q 158 25 224 -11 q 74 133 92 61 q 56 353 56 206 q 74 571 56 497 q 154 682 92 644 q 351 719 217 719 q 543 684 485 719 q 615 578 601 649 q 629 353 629 507 l 629 299 m 349 565 q 287 556 306 565 q 262 516 268 546 q 256 417 256 486 l 439 417 q 432 517 439 488 q 407 556 425 547 q 349 565 389 565 m 269 831 l 269 838 l 371 1032 l 568 1032 l 568 1025 l 419 831 l 269 831 z "},"ĕ":{"ha":686,"x_min":56,"x_max":629,"o":"m 629 299 l 256 299 q 264 195 256 224 q 303 157 272 167 q 414 147 335 147 q 607 158 474 147 l 607 11 q 498 -5 565 1 q 367 -11 431 -11 q 158 25 224 -11 q 74 133 92 61 q 56 353 56 206 q 74 571 56 497 q 154 682 92 644 q 351 719 217 719 q 543 684 485 719 q 615 578 601 649 q 629 353 629 507 l 629 299 m 349 565 q 287 556 306 565 q 262 516 268 546 q 256 417 256 486 l 439 417 q 432 517 439 488 q 407 556 425 547 q 349 565 389 565 m 539 1032 q 525 924 539 965 q 468 858 511 882 q 342 833 425 833 q 216 858 258 833 q 160 924 174 882 q 146 1032 146 965 l 263 1032 q 267 982 263 999 q 288 955 271 965 q 342 944 304 944 q 397 955 379 944 q 419 983 415 965 q 424 1032 424 1000 l 539 1032 z "},"ě":{"ha":686,"x_min":56,"x_max":629,"o":"m 629 299 l 256 299 q 264 195 256 224 q 303 157 272 167 q 414 147 335 147 q 607 158 474 147 l 607 11 q 498 -5 565 1 q 367 -11 431 -11 q 158 25 224 -11 q 74 133 92 61 q 56 353 56 206 q 74 571 56 497 q 154 682 92 644 q 351 719 217 719 q 543 684 485 719 q 615 578 601 649 q 629 353 629 507 l 629 299 m 349 565 q 287 556 306 565 q 262 516 268 546 q 256 417 256 486 l 439 417 q 432 517 439 488 q 407 556 425 547 q 349 565 389 565 m 246 839 l 128 1021 l 128 1032 l 261 1032 l 343 925 l 424 1032 l 557 1032 l 557 1021 l 439 839 l 246 839 z "},"ê":{"ha":686,"x_min":56,"x_max":629,"o":"m 629 299 l 256 299 q 264 195 256 224 q 303 157 272 167 q 414 147 335 147 q 607 158 474 147 l 607 11 q 498 -5 565 1 q 367 -11 431 -11 q 158 25 224 -11 q 74 133 92 61 q 56 353 56 206 q 74 571 56 497 q 154 682 92 644 q 351 719 217 719 q 543 684 485 719 q 615 578 601 649 q 629 353 629 507 l 629 299 m 349 565 q 287 556 306 565 q 262 516 268 546 q 256 417 256 486 l 439 417 q 432 517 439 488 q 407 556 425 547 q 349 565 389 565 m 138 839 l 138 850 l 256 1032 l 449 1032 l 568 850 l 568 839 l 433 839 l 351 946 l 271 839 l 138 839 z "},"ế":{"ha":686,"x_min":56,"x_max":664,"o":"m 629 299 l 256 299 q 264 195 256 224 q 303 157 272 167 q 414 147 335 147 q 607 158 474 147 l 607 11 q 498 -5 565 1 q 367 -11 431 -11 q 158 25 224 -11 q 74 133 92 61 q 56 353 56 206 q 74 571 56 497 q 154 682 92 644 q 351 719 217 719 q 543 684 485 719 q 615 578 601 649 q 629 353 629 507 l 629 299 m 349 565 q 287 556 306 565 q 262 516 268 546 q 256 417 256 486 l 439 417 q 432 517 439 488 q 407 556 425 547 q 349 565 389 565 m 126 839 l 126 850 l 244 1032 l 438 1032 l 557 850 l 557 839 l 422 839 l 340 946 l 260 839 l 126 839 m 365 1071 l 365 1078 l 467 1272 l 664 1272 l 664 1265 l 515 1071 l 365 1071 z "},"ệ":{"ha":686,"x_min":56,"x_max":629,"o":"m 629 299 l 256 299 q 264 195 256 224 q 303 157 272 167 q 414 147 335 147 q 607 158 474 147 l 607 11 q 498 -5 565 1 q 367 -11 431 -11 q 158 25 224 -11 q 74 133 92 61 q 56 353 56 206 q 74 571 56 497 q 154 682 92 644 q 351 719 217 719 q 543 684 485 719 q 615 578 601 649 q 629 353 629 507 l 629 299 m 349 565 q 287 556 306 565 q 262 516 268 546 q 256 417 256 486 l 439 417 q 432 517 439 488 q 407 556 425 547 q 349 565 389 565 m 235 -278 l 235 -86 l 451 -86 l 451 -278 l 235 -278 m 128 839 l 128 850 l 246 1032 l 439 1032 l 558 850 l 558 839 l 424 839 l 342 946 l 261 839 l 128 839 z "},"ề":{"ha":686,"x_min":56,"x_max":629,"o":"m 629 299 l 256 299 q 264 195 256 224 q 303 157 272 167 q 414 147 335 147 q 607 158 474 147 l 607 11 q 498 -5 565 1 q 367 -11 431 -11 q 158 25 224 -11 q 74 133 92 61 q 56 353 56 206 q 74 571 56 497 q 154 682 92 644 q 351 719 217 719 q 543 684 485 719 q 615 578 601 649 q 629 353 629 507 l 629 299 m 349 565 q 287 556 306 565 q 262 516 268 546 q 256 417 256 486 l 439 417 q 432 517 439 488 q 407 556 425 547 q 349 565 389 565 m 119 839 l 119 850 l 238 1032 l 431 1032 l 550 850 l 550 839 l 415 839 l 333 946 l 253 839 l 119 839 m 414 1071 l 265 1265 l 265 1272 l 463 1272 l 564 1078 l 564 1071 l 414 1071 z "},"ể":{"ha":686,"x_min":56,"x_max":668,"o":"m 629 299 l 256 299 q 264 195 256 224 q 303 157 272 167 q 414 147 335 147 q 607 158 474 147 l 607 11 q 498 -5 565 1 q 367 -11 431 -11 q 158 25 224 -11 q 74 133 92 61 q 56 353 56 206 q 74 571 56 497 q 154 682 92 644 q 351 719 217 719 q 543 684 485 719 q 615 578 601 649 q 629 353 629 507 l 629 299 m 349 565 q 287 556 306 565 q 262 516 268 546 q 256 417 256 486 l 439 417 q 432 517 439 488 q 407 556 425 547 q 349 565 389 565 m 128 839 l 128 850 l 246 1032 l 439 1032 l 558 850 l 558 839 l 424 839 l 342 946 l 261 839 l 128 839 m 399 1076 q 411 1135 399 1118 q 461 1163 424 1151 l 482 1169 q 524 1188 514 1181 q 533 1213 533 1196 q 519 1240 533 1235 q 460 1244 506 1244 q 318 1238 388 1244 l 318 1340 q 483 1356 403 1356 q 585 1347 546 1356 q 646 1310 624 1338 q 668 1228 668 1282 q 650 1153 668 1176 q 583 1113 632 1131 l 561 1104 q 522 1085 529 1093 q 514 1058 514 1078 l 399 1058 l 399 1076 z "},"ễ":{"ha":686,"x_min":56,"x_max":629,"o":"m 629 299 l 256 299 q 264 195 256 224 q 303 157 272 167 q 414 147 335 147 q 607 158 474 147 l 607 11 q 498 -5 565 1 q 367 -11 431 -11 q 158 25 224 -11 q 74 133 92 61 q 56 353 56 206 q 74 571 56 497 q 154 682 92 644 q 351 719 217 719 q 543 684 485 719 q 615 578 601 649 q 629 353 629 507 l 629 299 m 349 565 q 287 556 306 565 q 262 516 268 546 q 256 417 256 486 l 439 417 q 432 517 439 488 q 407 556 425 547 q 349 565 389 565 m 125 839 l 125 850 l 243 1032 l 436 1032 l 556 850 l 556 839 l 421 839 l 339 946 l 258 839 l 125 839 m 588 1272 q 581 1163 588 1200 q 550 1104 575 1125 q 471 1083 525 1083 q 407 1090 439 1083 q 328 1108 375 1096 q 285 1119 315 1111 q 236 1126 254 1126 q 210 1115 215 1126 q 206 1068 206 1104 l 99 1068 q 105 1178 99 1140 q 136 1236 111 1215 q 215 1257 161 1257 q 278 1251 247 1257 q 360 1232 308 1244 q 410 1220 385 1225 q 450 1215 435 1215 q 476 1226 471 1215 q 481 1272 481 1236 l 588 1272 z "},"ȅ":{"ha":686,"x_min":50,"x_max":629,"o":"m 629 299 l 256 299 q 264 195 256 224 q 303 157 272 167 q 414 147 335 147 q 607 158 474 147 l 607 11 q 498 -5 565 1 q 367 -11 431 -11 q 158 25 224 -11 q 74 133 92 61 q 56 353 56 206 q 74 571 56 497 q 154 682 92 644 q 351 719 217 719 q 543 684 485 719 q 615 578 601 649 q 629 353 629 507 l 629 299 m 349 565 q 287 556 306 565 q 262 516 268 546 q 256 417 256 486 l 439 417 q 432 517 439 488 q 407 556 425 547 q 349 565 389 565 m 299 847 l 175 847 l 50 1011 l 50 1017 l 211 1017 l 299 853 l 299 847 m 533 847 l 410 847 l 285 1011 l 285 1017 l 447 1017 l 533 853 l 533 847 z "},"ë":{"ha":686,"x_min":56,"x_max":629,"o":"m 629 299 l 256 299 q 264 195 256 224 q 303 157 272 167 q 414 147 335 147 q 607 158 474 147 l 607 11 q 498 -5 565 1 q 367 -11 431 -11 q 158 25 224 -11 q 74 133 92 61 q 56 353 56 206 q 74 571 56 497 q 154 682 92 644 q 351 719 217 719 q 543 684 485 719 q 615 578 601 649 q 629 353 629 507 l 629 299 m 349 565 q 287 556 306 565 q 262 516 268 546 q 256 417 256 486 l 439 417 q 432 517 439 488 q 407 556 425 547 q 349 565 389 565 m 138 864 l 138 1011 l 306 1011 l 306 864 l 138 864 m 403 864 l 403 1011 l 571 1011 l 571 864 l 403 864 z "},"ė":{"ha":686,"x_min":56,"x_max":629,"o":"m 629 299 l 256 299 q 264 195 256 224 q 303 157 272 167 q 414 147 335 147 q 607 158 474 147 l 607 11 q 498 -5 565 1 q 367 -11 431 -11 q 158 25 224 -11 q 74 133 92 61 q 56 353 56 206 q 74 571 56 497 q 154 682 92 644 q 351 719 217 719 q 543 684 485 719 q 615 578 601 649 q 629 353 629 507 l 629 299 m 349 565 q 287 556 306 565 q 262 516 268 546 q 256 417 256 486 l 439 417 q 432 517 439 488 q 407 556 425 547 q 349 565 389 565 m 258 867 l 258 1014 l 426 1014 l 426 867 l 258 867 z "},"ẹ":{"ha":686,"x_min":56,"x_max":629,"o":"m 629 299 l 256 299 q 264 195 256 224 q 303 157 272 167 q 414 147 335 147 q 607 158 474 147 l 607 11 q 498 -5 565 1 q 367 -11 431 -11 q 158 25 224 -11 q 74 133 92 61 q 56 353 56 206 q 74 571 56 497 q 154 682 92 644 q 351 719 217 719 q 543 684 485 719 q 615 578 601 649 q 629 353 629 507 l 629 299 m 349 565 q 287 556 306 565 q 262 516 268 546 q 256 417 256 486 l 439 417 q 432 517 439 488 q 407 556 425 547 q 349 565 389 565 m 235 -278 l 235 -86 l 451 -86 l 451 -278 l 235 -278 z "},"è":{"ha":686,"x_min":56,"x_max":629,"o":"m 629 299 l 256 299 q 264 195 256 224 q 303 157 272 167 q 414 147 335 147 q 607 158 474 147 l 607 11 q 498 -5 565 1 q 367 -11 431 -11 q 158 25 224 -11 q 74 133 92 61 q 56 353 56 206 q 74 571 56 497 q 154 682 92 644 q 351 719 217 719 q 543 684 485 719 q 615 578 601 649 q 629 353 629 507 l 629 299 m 349 565 q 287 556 306 565 q 262 516 268 546 q 256 417 256 486 l 439 417 q 432 517 439 488 q 407 556 425 547 q 349 565 389 565 m 289 831 l 140 1025 l 140 1032 l 338 1032 l 439 838 l 439 831 l 289 831 z "},"ẻ":{"ha":686,"x_min":56,"x_max":629,"o":"m 629 299 l 256 299 q 264 195 256 224 q 303 157 272 167 q 414 147 335 147 q 607 158 474 147 l 607 11 q 498 -5 565 1 q 367 -11 431 -11 q 158 25 224 -11 q 74 133 92 61 q 56 353 56 206 q 74 571 56 497 q 154 682 92 644 q 351 719 217 719 q 543 684 485 719 q 615 578 601 649 q 629 353 629 507 l 629 299 m 349 565 q 287 556 306 565 q 262 516 268 546 q 256 417 256 486 l 439 417 q 432 517 439 488 q 407 556 425 547 q 349 565 389 565 m 249 865 q 261 924 249 907 q 311 951 274 940 l 332 958 q 374 977 364 969 q 383 1001 383 985 q 369 1028 383 1024 q 310 1033 356 1033 q 168 1026 238 1033 l 168 1129 q 333 1144 253 1144 q 435 1135 396 1144 q 496 1099 474 1126 q 518 1017 518 1071 q 500 942 518 965 q 433 901 482 919 l 411 893 q 372 874 379 882 q 364 847 364 867 l 249 847 l 249 865 z "},"ȇ":{"ha":686,"x_min":56,"x_max":629,"o":"m 629 299 l 256 299 q 264 195 256 224 q 303 157 272 167 q 414 147 335 147 q 607 158 474 147 l 607 11 q 498 -5 565 1 q 367 -11 431 -11 q 158 25 224 -11 q 74 133 92 61 q 56 353 56 206 q 74 571 56 497 q 154 682 92 644 q 351 719 217 719 q 543 684 485 719 q 615 578 601 649 q 629 353 629 507 l 629 299 m 349 565 q 287 556 306 565 q 262 516 268 546 q 256 417 256 486 l 439 417 q 432 517 439 488 q 407 556 425 547 q 349 565 389 565 m 147 842 q 161 950 147 908 q 218 1016 175 992 q 344 1040 261 1040 q 470 1016 428 1040 q 526 950 513 992 q 540 842 540 908 l 424 842 q 419 892 424 875 q 399 919 415 908 q 344 929 382 929 q 289 919 307 929 q 267 891 271 908 q 263 842 263 874 l 147 842 z "},"ē":{"ha":686,"x_min":56,"x_max":629,"o":"m 629 299 l 256 299 q 264 195 256 224 q 303 157 272 167 q 414 147 335 147 q 607 158 474 147 l 607 11 q 498 -5 565 1 q 367 -11 431 -11 q 158 25 224 -11 q 74 133 92 61 q 56 353 56 206 q 74 571 56 497 q 154 682 92 644 q 351 719 217 719 q 543 684 485 719 q 615 578 601 649 q 629 353 629 507 l 629 299 m 349 565 q 287 556 306 565 q 262 516 268 546 q 256 417 256 486 l 439 417 q 432 517 439 488 q 407 556 425 547 q 349 565 389 565 m 176 863 l 176 1032 l 511 1032 l 511 863 l 176 863 z "},"ę":{"ha":686,"x_min":56,"x_max":629,"o":"m 629 299 l 256 299 q 264 195 256 224 q 303 157 272 167 q 414 147 335 147 q 607 158 474 147 l 607 11 q 531 -46 565 -10 q 496 -118 496 -82 q 554 -164 496 -164 q 576 -162 571 -164 l 576 -267 q 494 -272 543 -272 q 372 -240 408 -272 q 335 -160 335 -208 q 421 -10 335 -85 q 367 -11 403 -11 q 158 25 224 -11 q 74 133 92 61 q 56 353 56 206 q 74 571 56 497 q 154 682 92 644 q 351 719 217 719 q 543 684 485 719 q 615 578 601 649 q 629 353 629 507 l 629 299 m 349 565 q 287 556 306 565 q 262 516 268 546 q 256 417 256 486 l 439 417 q 432 517 439 488 q 407 556 425 547 q 349 565 389 565 z "},"ẽ":{"ha":686,"x_min":56,"x_max":629,"o":"m 629 299 l 256 299 q 264 195 256 224 q 303 157 272 167 q 414 147 335 147 q 607 158 474 147 l 607 11 q 498 -5 565 1 q 367 -11 431 -11 q 158 25 224 -11 q 74 133 92 61 q 56 353 56 206 q 74 571 56 497 q 154 682 92 644 q 351 719 217 719 q 543 684 485 719 q 615 578 601 649 q 629 353 629 507 l 629 299 m 349 565 q 287 556 306 565 q 262 516 268 546 q 256 417 256 486 l 439 417 q 432 517 439 488 q 407 556 425 547 q 349 565 389 565 m 588 1032 q 581 922 588 960 q 550 864 575 885 q 471 843 525 843 q 407 849 439 843 q 328 868 375 856 q 285 878 315 871 q 236 886 254 886 q 210 875 215 886 q 206 828 206 864 l 99 828 q 105 938 99 900 q 136 996 111 975 q 215 1017 161 1017 q 278 1010 247 1017 q 360 992 308 1004 q 410 980 385 985 q 450 975 435 975 q 476 985 471 975 q 481 1032 481 996 l 588 1032 z "},"ə":{"ha":686,"x_min":57,"x_max":631,"o":"m 319 719 q 528 683 463 719 q 613 575 594 647 q 631 356 631 503 q 613 138 631 211 q 532 26 594 64 q 335 -11 469 -11 q 143 24 201 -11 q 71 131 85 60 q 57 356 57 201 l 57 410 l 431 410 q 422 513 431 485 q 383 551 414 542 q 272 561 351 561 q 79 550 213 561 l 79 697 q 188 713 121 707 q 319 719 256 719 m 338 143 q 399 153 381 143 q 424 192 418 163 q 431 292 431 222 l 247 292 q 254 191 247 221 q 279 152 261 161 q 338 143 297 143 z "},"f":{"ha":511,"x_min":25,"x_max":481,"o":"m 135 549 l 25 549 l 25 708 l 135 708 l 135 756 q 161 945 135 889 q 254 1016 188 1001 q 481 1031 321 1031 l 481 888 q 383 882 411 888 q 347 857 356 876 q 338 790 338 838 l 338 708 l 481 708 l 481 549 l 338 549 l 338 0 l 135 0 l 135 549 z "},"g":{"ha":719,"x_min":56,"x_max":644,"o":"m 331 -283 q 208 -278 271 -283 q 106 -267 144 -274 l 106 -121 q 281 -124 167 -124 q 393 -113 361 -124 q 434 -72 425 -103 q 443 39 443 -40 l 443 89 l 432 89 q 366 22 408 42 q 263 3 324 3 q 139 35 183 3 q 75 144 94 67 q 56 360 56 221 q 76 579 56 501 q 140 688 96 657 q 263 719 185 719 q 436 624 394 719 l 447 624 l 453 708 l 644 708 l 644 83 q 626 -133 644 -60 q 540 -245 607 -207 q 331 -283 474 -283 m 350 172 q 404 182 386 172 q 431 218 422 192 q 441 271 439 239 q 443 360 443 303 q 441 444 443 413 q 432 494 439 475 q 406 536 424 525 q 350 547 388 547 q 285 537 303 547 q 263 490 268 526 q 257 360 257 454 q 263 231 257 267 q 286 183 268 194 q 350 172 304 172 z "},"ǵ":{"ha":719,"x_min":56,"x_max":644,"o":"m 331 -283 q 208 -278 271 -283 q 106 -267 144 -274 l 106 -121 q 281 -124 167 -124 q 393 -113 361 -124 q 434 -72 425 -103 q 443 39 443 -40 l 443 89 l 432 89 q 366 22 408 42 q 263 3 324 3 q 139 35 183 3 q 75 144 94 67 q 56 360 56 221 q 76 579 56 501 q 140 688 96 657 q 263 719 185 719 q 436 624 394 719 l 447 624 l 453 708 l 644 708 l 644 83 q 626 -133 644 -60 q 540 -245 607 -207 q 331 -283 474 -283 m 350 172 q 404 182 386 172 q 431 218 422 192 q 441 271 439 239 q 443 360 443 303 q 441 444 443 413 q 432 494 439 475 q 406 536 424 525 q 350 547 388 547 q 285 537 303 547 q 263 490 268 526 q 257 360 257 454 q 263 231 257 267 q 286 183 268 194 q 350 172 304 172 m 276 831 l 276 838 l 378 1032 l 575 1032 l 575 1025 l 426 831 l 276 831 z "},"ğ":{"ha":719,"x_min":56,"x_max":644,"o":"m 331 -283 q 208 -278 271 -283 q 106 -267 144 -274 l 106 -121 q 281 -124 167 -124 q 393 -113 361 -124 q 434 -72 425 -103 q 443 39 443 -40 l 443 89 l 432 89 q 366 22 408 42 q 263 3 324 3 q 139 35 183 3 q 75 144 94 67 q 56 360 56 221 q 76 579 56 501 q 140 688 96 657 q 263 719 185 719 q 436 624 394 719 l 447 624 l 453 708 l 644 708 l 644 83 q 626 -133 644 -60 q 540 -245 607 -207 q 331 -283 474 -283 m 350 172 q 404 182 386 172 q 431 218 422 192 q 441 271 439 239 q 443 360 443 303 q 441 444 443 413 q 432 494 439 475 q 406 536 424 525 q 350 547 388 547 q 285 537 303 547 q 263 490 268 526 q 257 360 257 454 q 263 231 257 267 q 286 183 268 194 q 350 172 304 172 m 556 1032 q 542 924 556 965 q 485 858 528 882 q 358 833 442 833 q 233 858 275 833 q 176 924 190 882 q 163 1032 163 965 l 279 1032 q 283 982 279 999 q 304 955 288 965 q 358 944 321 944 q 414 955 396 944 q 436 983 432 965 q 440 1032 440 1000 l 556 1032 z "},"ǧ":{"ha":719,"x_min":56,"x_max":644,"o":"m 331 -283 q 208 -278 271 -283 q 106 -267 144 -274 l 106 -121 q 281 -124 167 -124 q 393 -113 361 -124 q 434 -72 425 -103 q 443 39 443 -40 l 443 89 l 432 89 q 366 22 408 42 q 263 3 324 3 q 139 35 183 3 q 75 144 94 67 q 56 360 56 221 q 76 579 56 501 q 140 688 96 657 q 263 719 185 719 q 436 624 394 719 l 447 624 l 453 708 l 644 708 l 644 83 q 626 -133 644 -60 q 540 -245 607 -207 q 331 -283 474 -283 m 350 172 q 404 182 386 172 q 431 218 422 192 q 441 271 439 239 q 443 360 443 303 q 441 444 443 413 q 432 494 439 475 q 406 536 424 525 q 350 547 388 547 q 285 537 303 547 q 263 490 268 526 q 257 360 257 454 q 263 231 257 267 q 286 183 268 194 q 350 172 304 172 m 263 839 l 144 1021 l 144 1032 l 278 1032 l 360 925 l 440 1032 l 574 1032 l 574 1021 l 456 839 l 263 839 z "},"ĝ":{"ha":719,"x_min":56,"x_max":644,"o":"m 331 -283 q 208 -278 271 -283 q 106 -267 144 -274 l 106 -121 q 281 -124 167 -124 q 393 -113 361 -124 q 434 -72 425 -103 q 443 39 443 -40 l 443 89 l 432 89 q 366 22 408 42 q 263 3 324 3 q 139 35 183 3 q 75 144 94 67 q 56 360 56 221 q 76 579 56 501 q 140 688 96 657 q 263 719 185 719 q 436 624 394 719 l 447 624 l 453 708 l 644 708 l 644 83 q 626 -133 644 -60 q 540 -245 607 -207 q 331 -283 474 -283 m 350 172 q 404 182 386 172 q 431 218 422 192 q 441 271 439 239 q 443 360 443 303 q 441 444 443 413 q 432 494 439 475 q 406 536 424 525 q 350 547 388 547 q 285 537 303 547 q 263 490 268 526 q 257 360 257 454 q 263 231 257 267 q 286 183 268 194 q 350 172 304 172 m 144 839 l 144 850 l 263 1032 l 456 1032 l 575 850 l 575 839 l 440 839 l 358 946 l 278 839 l 144 839 z "},"ģ":{"ha":719,"x_min":56,"x_max":644,"o":"m 331 -283 q 208 -278 271 -283 q 106 -267 144 -274 l 106 -121 q 281 -124 167 -124 q 393 -113 361 -124 q 434 -72 425 -103 q 443 39 443 -40 l 443 89 l 432 89 q 366 22 408 42 q 263 3 324 3 q 139 35 183 3 q 75 144 94 67 q 56 360 56 221 q 76 579 56 501 q 140 688 96 657 q 263 719 185 719 q 436 624 394 719 l 447 624 l 453 708 l 644 708 l 644 83 q 626 -133 644 -60 q 540 -245 607 -207 q 331 -283 474 -283 m 350 172 q 404 182 386 172 q 431 218 422 192 q 441 271 439 239 q 443 360 443 303 q 441 444 443 413 q 432 494 439 475 q 406 536 424 525 q 350 547 388 547 q 285 537 303 547 q 263 490 268 526 q 257 360 257 454 q 263 231 257 267 q 286 183 268 194 q 350 172 304 172 m 469 1067 q 401 1056 417 1067 q 385 1008 385 1044 l 385 989 l 461 989 l 461 831 l 257 831 l 257 938 q 271 1070 257 1028 q 329 1131 285 1113 q 469 1149 374 1149 l 469 1067 z "},"ġ":{"ha":719,"x_min":56,"x_max":644,"o":"m 331 -283 q 208 -278 271 -283 q 106 -267 144 -274 l 106 -121 q 281 -124 167 -124 q 393 -113 361 -124 q 434 -72 425 -103 q 443 39 443 -40 l 443 89 l 432 89 q 366 22 408 42 q 263 3 324 3 q 139 35 183 3 q 75 144 94 67 q 56 360 56 221 q 76 579 56 501 q 140 688 96 657 q 263 719 185 719 q 436 624 394 719 l 447 624 l 453 708 l 644 708 l 644 83 q 626 -133 644 -60 q 540 -245 607 -207 q 331 -283 474 -283 m 350 172 q 404 182 386 172 q 431 218 422 192 q 441 271 439 239 q 443 360 443 303 q 441 444 443 413 q 432 494 439 475 q 406 536 424 525 q 350 547 388 547 q 285 537 303 547 q 263 490 268 526 q 257 360 257 454 q 263 231 257 267 q 286 183 268 194 q 350 172 304 172 m 275 867 l 275 1014 l 443 1014 l 443 867 l 275 867 z "},"h":{"ha":728,"x_min":75,"x_max":653,"o":"m 451 379 q 447 497 451 464 q 426 538 442 529 q 368 547 410 547 q 306 533 325 547 q 282 483 288 518 q 276 367 276 447 l 276 0 l 75 0 l 75 1032 l 276 1032 l 276 626 l 288 626 q 357 698 313 676 q 464 719 401 719 q 585 691 544 719 q 639 607 625 663 q 653 456 653 551 l 653 0 l 451 0 l 451 379 z "},"ħ":{"ha":728,"x_min":4,"x_max":653,"o":"m 464 719 q 585 691 544 719 q 639 607 625 663 q 653 456 653 551 l 653 0 l 451 0 l 451 379 q 447 497 451 464 q 426 538 442 529 q 368 547 410 547 q 306 533 325 547 q 282 483 288 518 q 276 367 276 447 l 276 0 l 75 0 l 75 801 l 4 801 l 4 956 l 75 956 l 75 1032 l 276 1032 l 276 956 l 426 956 l 426 801 l 276 801 l 276 626 l 288 626 q 357 698 313 676 q 464 719 401 719 z "},"ĥ":{"ha":728,"x_min":-39,"x_max":653,"o":"m 451 379 q 447 497 451 464 q 426 538 442 529 q 368 547 410 547 q 306 533 325 547 q 282 483 288 518 q 276 367 276 447 l 276 0 l 75 0 l 75 1032 l 276 1032 l 276 626 l 288 626 q 357 698 313 676 q 464 719 401 719 q 585 691 544 719 q 639 607 625 663 q 653 456 653 551 l 653 0 l 451 0 l 451 379 m -39 1086 l -39 1097 l 79 1279 l 272 1279 l 392 1097 l 392 1086 l 257 1086 l 175 1193 l 94 1086 l -39 1086 z "},"ḥ":{"ha":728,"x_min":75,"x_max":653,"o":"m 451 379 q 447 497 451 464 q 426 538 442 529 q 368 547 410 547 q 306 533 325 547 q 282 483 288 518 q 276 367 276 447 l 276 0 l 75 0 l 75 1032 l 276 1032 l 276 626 l 288 626 q 357 698 313 676 q 464 719 401 719 q 585 691 544 719 q 639 607 625 663 q 653 456 653 551 l 653 0 l 451 0 l 451 379 m 256 -278 l 256 -86 l 472 -86 l 472 -278 l 256 -278 z "},"i":{"ha":354,"x_min":74,"x_max":279,"o":"m 74 858 l 74 1032 l 279 1032 l 279 858 l 74 858 m 75 0 l 75 708 l 278 708 l 278 0 l 75 0 z "},"ı":{"ha":354,"x_min":75,"x_max":278,"o":"m 75 0 l 75 708 l 278 708 l 278 0 l 75 0 z "},"í":{"ha":354,"x_min":75,"x_max":375,"o":"m 75 0 l 75 708 l 278 708 l 278 0 l 75 0 m 76 831 l 76 838 l 178 1032 l 375 1032 l 375 1025 l 226 831 l 76 831 z "},"ĭ":{"ha":354,"x_min":-21,"x_max":372,"o":"m 75 0 l 75 708 l 278 708 l 278 0 l 75 0 m 372 1032 q 358 924 372 965 q 301 858 344 882 q 175 833 258 833 q 49 858 92 833 q -7 924 7 882 q -21 1032 -21 965 l 96 1032 q 100 982 96 999 q 121 955 104 965 q 175 944 138 944 q 231 955 213 944 q 253 983 249 965 q 257 1032 257 1000 l 372 1032 z "},"ǐ":{"ha":354,"x_min":-39,"x_max":390,"o":"m 75 0 l 75 708 l 278 708 l 278 0 l 75 0 m 79 839 l -39 1021 l -39 1032 l 94 1032 l 176 925 l 257 1032 l 390 1032 l 390 1021 l 272 839 l 79 839 z "},"î":{"ha":354,"x_min":-37,"x_max":393,"o":"m 75 0 l 75 708 l 278 708 l 278 0 l 75 0 m -37 839 l -37 850 l 81 1032 l 274 1032 l 393 850 l 393 839 l 258 839 l 176 946 l 96 839 l -37 839 z "},"ȉ":{"ha":354,"x_min":-117,"x_max":367,"o":"m 75 0 l 75 708 l 278 708 l 278 0 l 75 0 m 132 847 l 8 847 l -117 1011 l -117 1017 l 44 1017 l 132 853 l 132 847 m 367 847 l 243 847 l 118 1011 l 118 1017 l 281 1017 l 367 853 l 367 847 z "},"ï":{"ha":354,"x_min":-39,"x_max":394,"o":"m 75 0 l 75 708 l 278 708 l 278 0 l 75 0 m -39 864 l -39 1011 l 129 1011 l 129 864 l -39 864 m 226 864 l 226 1011 l 394 1011 l 394 864 l 226 864 z "},"ị":{"ha":354,"x_min":74,"x_max":297,"o":"m 74 858 l 74 1032 l 279 1032 l 279 858 l 74 858 m 75 0 l 75 708 l 278 708 l 278 0 l 75 0 m 81 -278 l 81 -86 l 297 -86 l 297 -278 l 81 -278 z "},"ì":{"ha":354,"x_min":-21,"x_max":278,"o":"m 75 0 l 75 708 l 278 708 l 278 0 l 75 0 m 128 831 l -21 1025 l -21 1032 l 176 1032 l 278 838 l 278 831 l 128 831 z "},"ỉ":{"ha":354,"x_min":1,"x_max":351,"o":"m 75 0 l 75 708 l 278 708 l 278 0 l 75 0 m 82 865 q 94 924 82 907 q 144 951 107 940 l 165 958 q 207 977 197 969 q 217 1001 217 985 q 203 1028 217 1024 q 143 1033 189 1033 q 1 1026 71 1033 l 1 1129 q 167 1144 86 1144 q 268 1135 229 1144 q 329 1099 307 1126 q 351 1017 351 1071 q 333 942 351 965 q 267 901 315 919 l 244 893 q 205 874 213 882 q 197 847 197 867 l 82 847 l 82 865 z "},"ȋ":{"ha":354,"x_min":-19,"x_max":374,"o":"m 75 0 l 75 708 l 278 708 l 278 0 l 75 0 m -19 842 q -6 950 -19 908 q 51 1016 8 992 q 178 1040 94 1040 q 303 1016 261 1040 q 360 950 346 992 q 374 842 374 908 l 257 842 q 253 892 257 875 q 232 919 249 908 q 178 929 215 929 q 122 919 140 929 q 100 891 104 908 q 96 842 96 874 l -19 842 z "},"ĳ":{"ha":708,"x_min":74,"x_max":633,"o":"m 74 858 l 74 1032 l 279 1032 l 279 858 l 74 858 m 75 0 l 75 708 l 278 708 l 278 0 l 75 0 m 428 858 l 428 1032 l 633 1032 l 633 858 l 428 858 m 331 -129 q 397 -122 376 -129 q 424 -101 418 -115 q 429 -56 429 -86 l 429 708 l 632 708 l 632 3 q 608 -183 632 -126 q 524 -258 583 -240 q 331 -275 464 -275 l 331 -129 z "},"ī":{"ha":354,"x_min":10,"x_max":344,"o":"m 75 0 l 75 708 l 278 708 l 278 0 l 75 0 m 10 863 l 10 1032 l 344 1032 l 344 863 l 10 863 z "},"į":{"ha":354,"x_min":36,"x_max":279,"o":"m 260 1014 l 260 867 l 92 867 l 92 1014 l 260 1014 m 257 -164 q 279 -162 271 -164 l 279 -267 q 196 -272 240 -272 q 73 -240 110 -272 q 36 -158 36 -208 q 119 0 36 -79 l 75 0 l 75 708 l 278 708 l 278 0 q 223 -51 247 -18 q 199 -118 199 -85 q 257 -164 199 -164 z "},"ĩ":{"ha":354,"x_min":-68,"x_max":421,"o":"m 75 0 l 75 708 l 278 708 l 278 0 l 75 0 m 421 1032 q 415 922 421 960 q 383 864 408 885 q 304 843 358 843 q 240 849 272 843 q 161 868 208 856 q 118 878 149 871 q 69 886 88 886 q 44 875 49 886 q 39 828 39 864 l -68 828 q -62 938 -68 900 q -31 996 -56 975 q 49 1017 -6 1017 q 111 1010 81 1017 q 193 992 142 1004 q 243 980 218 985 q 283 975 268 975 q 309 985 304 975 q 314 1032 314 996 l 421 1032 z "},"j":{"ha":354,"x_min":-24,"x_max":279,"o":"m 74 858 l 74 1032 l 279 1032 l 279 858 l 74 858 m -24 -129 q 43 -122 22 -129 q 69 -101 64 -115 q 75 -56 75 -86 l 75 708 l 278 708 l 278 3 q 253 -183 278 -126 q 169 -258 229 -240 q -24 -275 110 -275 l -24 -129 z "},"ȷ":{"ha":354,"x_min":-24,"x_max":278,"o":"m -24 -129 q 43 -122 22 -129 q 69 -101 64 -115 q 75 -56 75 -86 l 75 708 l 278 708 l 278 3 q 253 -183 278 -126 q 169 -258 229 -240 q -24 -275 110 -275 l -24 -129 z "},"ĵ":{"ha":354,"x_min":-39,"x_max":392,"o":"m -24 -129 q 43 -122 22 -129 q 69 -101 64 -115 q 75 -56 75 -86 l 75 708 l 278 708 l 278 3 q 253 -183 278 -126 q 169 -258 229 -240 q -24 -275 110 -275 l -24 -129 m -39 839 l -39 850 l 79 1032 l 272 1032 l 392 850 l 392 839 l 257 839 l 175 946 l 94 839 l -39 839 z "},"k":{"ha":700,"x_min":75,"x_max":685,"o":"m 465 0 l 318 274 l 276 274 l 276 0 l 75 0 l 75 1032 l 276 1032 l 276 432 l 318 432 l 471 708 l 682 708 l 483 369 l 685 0 l 465 0 z "},"ķ":{"ha":700,"x_min":75,"x_max":685,"o":"m 465 0 l 318 274 l 276 274 l 276 0 l 75 0 l 75 1032 l 276 1032 l 276 432 l 318 432 l 471 708 l 682 708 l 483 369 l 685 0 l 465 0 m 243 -321 q 312 -309 296 -321 q 328 -261 328 -297 l 328 -243 l 251 -243 l 251 -85 l 456 -85 l 456 -192 q 442 -324 456 -282 q 383 -384 428 -367 q 243 -401 339 -401 l 243 -321 z "},"ĸ":{"ha":700,"x_min":75,"x_max":685,"o":"m 465 0 l 318 274 l 276 274 l 276 0 l 75 0 l 75 708 l 276 708 l 276 432 l 318 432 l 471 708 l 682 708 l 483 369 l 685 0 l 465 0 z "},"l":{"ha":354,"x_min":75,"x_max":278,"o":"m 75 0 l 75 1032 l 278 1032 l 278 0 l 75 0 z "},"ĺ":{"ha":354,"x_min":75,"x_max":392,"o":"m 75 0 l 75 1032 l 278 1032 l 278 0 l 75 0 m 93 1078 l 93 1085 l 194 1279 l 392 1279 l 392 1272 l 243 1078 l 93 1078 z "},"ľ":{"ha":447,"x_min":75,"x_max":525,"o":"m 75 0 l 75 1032 l 278 1032 l 278 0 l 75 0 m 321 596 l 342 878 l 342 956 l 525 956 l 525 878 l 461 596 l 321 596 z "},"ļ":{"ha":354,"x_min":69,"x_max":282,"o":"m 75 0 l 75 1032 l 278 1032 l 278 0 l 75 0 m 69 -321 q 138 -309 122 -321 q 154 -261 154 -297 l 154 -243 l 78 -243 l 78 -85 l 282 -85 l 282 -192 q 268 -324 282 -282 q 210 -384 254 -367 q 69 -401 165 -401 l 69 -321 z "},"ŀ":{"ha":486,"x_min":75,"x_max":524,"o":"m 75 0 l 75 1032 l 278 1032 l 278 0 l 75 0 m 325 319 l 325 511 l 524 511 l 524 319 l 325 319 z "},"ǉ":{"ha":708,"x_min":75,"x_max":633,"o":"m 75 0 l 75 1032 l 278 1032 l 278 0 l 75 0 m 428 858 l 428 1032 l 633 1032 l 633 858 l 428 858 m 331 -129 q 397 -122 376 -129 q 424 -101 418 -115 q 429 -56 429 -86 l 429 708 l 632 708 l 632 3 q 608 -183 632 -126 q 524 -258 583 -240 q 331 -275 464 -275 l 331 -129 z "},"ł":{"ha":374,"x_min":18,"x_max":354,"o":"m 83 0 l 83 401 l 18 378 l 18 535 l 83 557 l 83 1032 l 286 1032 l 286 628 l 354 653 l 354 496 l 286 471 l 286 0 l 83 0 z "},"m":{"ha":1075,"x_min":75,"x_max":1000,"o":"m 799 379 q 794 496 799 463 q 774 538 789 529 q 721 547 758 547 q 665 533 682 547 q 642 483 647 519 q 638 367 638 447 l 638 0 l 438 0 l 438 379 q 433 496 438 463 q 413 538 428 529 q 360 547 397 547 q 303 533 321 547 q 281 483 286 518 q 276 367 276 447 l 276 0 l 75 0 l 75 708 l 267 708 l 272 624 l 282 624 q 351 697 307 675 q 460 719 396 719 q 571 697 532 719 q 625 624 610 674 l 638 624 q 817 719 685 719 q 931 691 892 719 q 985 607 971 663 q 1000 457 1000 551 l 1000 0 l 799 0 l 799 379 z "},"n":{"ha":728,"x_min":75,"x_max":653,"o":"m 451 379 q 447 497 451 464 q 426 538 442 529 q 368 547 410 547 q 306 533 325 547 q 282 483 288 518 q 276 367 276 447 l 276 0 l 75 0 l 75 708 l 267 708 l 272 624 l 283 624 q 464 719 328 719 q 585 691 544 719 q 639 607 625 663 q 653 454 653 551 l 653 0 l 451 0 l 451 379 z "},"ń":{"ha":728,"x_min":75,"x_max":653,"o":"m 451 379 q 447 497 451 464 q 426 538 442 529 q 368 547 410 547 q 306 533 325 547 q 282 483 288 518 q 276 367 276 447 l 276 0 l 75 0 l 75 708 l 267 708 l 272 624 l 283 624 q 464 719 328 719 q 585 691 544 719 q 639 607 625 663 q 653 454 653 551 l 653 0 l 451 0 l 451 379 m 281 831 l 281 838 l 382 1032 l 579 1032 l 579 1025 l 431 831 l 281 831 z "},"ŉ":{"ha":897,"x_min":22,"x_max":822,"o":"m 22 775 q 91 793 75 775 q 107 867 107 811 l 107 889 l 31 889 l 31 1032 l 235 1032 l 235 938 q 221 784 235 833 q 163 714 207 735 q 22 693 118 693 l 22 775 m 621 379 q 616 497 621 464 q 595 538 611 529 q 538 547 579 547 q 476 533 494 547 q 451 483 457 518 q 446 367 446 447 l 446 0 l 244 0 l 244 708 l 436 708 l 442 624 l 453 624 q 633 719 497 719 q 754 691 714 719 q 808 607 794 663 q 822 454 822 551 l 822 0 l 621 0 l 621 379 z "},"ň":{"ha":728,"x_min":75,"x_max":653,"o":"m 451 379 q 447 497 451 464 q 426 538 442 529 q 368 547 410 547 q 306 533 325 547 q 282 483 288 518 q 276 367 276 447 l 276 0 l 75 0 l 75 708 l 267 708 l 272 624 l 283 624 q 464 719 328 719 q 585 691 544 719 q 639 607 625 663 q 653 454 653 551 l 653 0 l 451 0 l 451 379 m 267 839 l 149 1021 l 149 1032 l 282 1032 l 364 925 l 444 1032 l 578 1032 l 578 1021 l 460 839 l 267 839 z "},"ņ":{"ha":728,"x_min":75,"x_max":653,"o":"m 451 379 q 447 497 451 464 q 426 538 442 529 q 368 547 410 547 q 306 533 325 547 q 282 483 288 518 q 276 367 276 447 l 276 0 l 75 0 l 75 708 l 267 708 l 272 624 l 283 624 q 464 719 328 719 q 585 691 544 719 q 639 607 625 663 q 653 454 653 551 l 653 0 l 451 0 l 451 379 m 257 -321 q 326 -309 310 -321 q 342 -261 342 -297 l 342 -243 l 265 -243 l 265 -85 l 469 -85 l 469 -192 q 456 -324 469 -282 q 397 -384 442 -367 q 257 -401 353 -401 l 257 -321 z "},"ṅ":{"ha":728,"x_min":75,"x_max":653,"o":"m 451 379 q 447 497 451 464 q 426 538 442 529 q 368 547 410 547 q 306 533 325 547 q 282 483 288 518 q 276 367 276 447 l 276 0 l 75 0 l 75 708 l 267 708 l 272 624 l 283 624 q 464 719 328 719 q 585 691 544 719 q 639 607 625 663 q 653 454 653 551 l 653 0 l 451 0 l 451 379 m 279 867 l 279 1014 l 447 1014 l 447 867 l 279 867 z "},"ŋ":{"ha":728,"x_min":75,"x_max":653,"o":"m 464 719 q 585 691 544 719 q 639 607 625 663 q 653 454 653 551 l 653 3 q 629 -183 653 -126 q 546 -258 606 -240 q 353 -275 486 -275 l 353 -129 q 419 -122 399 -129 q 446 -101 440 -115 q 451 -56 451 -86 l 451 379 q 447 497 451 464 q 426 538 442 529 q 368 547 410 547 q 306 533 325 547 q 282 483 288 518 q 276 367 276 447 l 276 0 l 75 0 l 75 708 l 267 708 l 272 624 l 283 624 q 464 719 328 719 z "},"ɲ":{"ha":728,"x_min":-24,"x_max":653,"o":"m -24 -129 q 43 -122 22 -129 q 69 -101 64 -115 q 75 -56 75 -86 l 75 708 l 267 708 l 272 624 l 283 624 q 464 719 328 719 q 585 691 544 719 q 639 607 625 663 q 653 454 653 551 l 653 0 l 451 0 l 451 379 q 447 497 451 464 q 426 538 442 529 q 368 547 410 547 q 306 533 325 547 q 282 483 288 518 q 276 367 276 447 l 276 3 q 253 -183 276 -126 q 169 -258 229 -240 q -24 -275 110 -275 l -24 -129 z "},"ǌ":{"ha":1082,"x_min":75,"x_max":1007,"o":"m 451 379 q 447 497 451 464 q 426 538 442 529 q 368 547 410 547 q 306 533 325 547 q 282 483 288 518 q 276 367 276 447 l 276 0 l 75 0 l 75 708 l 267 708 l 272 624 l 283 624 q 464 719 328 719 q 585 691 544 719 q 639 607 625 663 q 653 454 653 551 l 653 0 l 451 0 l 451 379 m 801 858 l 801 1032 l 1007 1032 l 1007 858 l 801 858 m 704 -129 q 771 -122 750 -129 q 797 -101 792 -115 q 803 -56 803 -86 l 803 708 l 1006 708 l 1006 3 q 981 -183 1006 -126 q 897 -258 957 -240 q 704 -275 838 -275 l 704 -129 z "},"ñ":{"ha":728,"x_min":75,"x_max":653,"o":"m 451 379 q 447 497 451 464 q 426 538 442 529 q 368 547 410 547 q 306 533 325 547 q 282 483 288 518 q 276 367 276 447 l 276 0 l 75 0 l 75 708 l 267 708 l 272 624 l 283 624 q 464 719 328 719 q 585 691 544 719 q 639 607 625 663 q 653 454 653 551 l 653 0 l 451 0 l 451 379 m 613 1032 q 606 922 613 960 q 575 864 600 885 q 496 843 550 843 q 432 849 464 843 q 353 868 400 856 q 310 878 340 871 q 261 886 279 886 q 235 875 240 886 q 231 828 231 864 l 124 828 q 130 938 124 900 q 161 996 136 975 q 240 1017 186 1017 q 303 1010 272 1017 q 385 992 333 1004 q 435 980 410 985 q 475 975 460 975 q 501 985 496 975 q 506 1032 506 996 l 613 1032 z "},"o":{"ha":704,"x_min":56,"x_max":650,"o":"m 353 -11 q 151 19 213 -11 q 72 122 89 50 q 56 354 56 193 q 72 587 56 515 q 151 689 89 658 q 353 719 213 719 q 554 689 493 719 q 633 587 615 658 q 650 354 650 515 q 633 123 650 194 q 554 20 615 51 q 353 -11 493 -11 m 353 149 q 421 161 403 149 q 444 211 439 174 q 449 354 449 249 q 444 498 449 460 q 421 548 439 536 q 353 560 403 560 q 284 548 303 560 q 261 499 265 536 q 257 354 257 461 q 261 210 257 247 q 284 161 265 174 q 353 149 303 149 z "},"ó":{"ha":704,"x_min":56,"x_max":650,"o":"m 353 -11 q 151 19 213 -11 q 72 122 89 50 q 56 354 56 193 q 72 587 56 515 q 151 689 89 658 q 353 719 213 719 q 554 689 493 719 q 633 587 615 658 q 650 354 650 515 q 633 123 650 194 q 554 20 615 51 q 353 -11 493 -11 m 353 149 q 421 161 403 149 q 444 211 439 174 q 449 354 449 249 q 444 498 449 460 q 421 548 439 536 q 353 560 403 560 q 284 548 303 560 q 261 499 265 536 q 257 354 257 461 q 261 210 257 247 q 284 161 265 174 q 353 149 303 149 m 267 831 l 267 838 l 368 1032 l 565 1032 l 565 1025 l 417 831 l 267 831 z "},"ŏ":{"ha":704,"x_min":56,"x_max":650,"o":"m 353 -11 q 151 19 213 -11 q 72 122 89 50 q 56 354 56 193 q 72 587 56 515 q 151 689 89 658 q 353 719 213 719 q 554 689 493 719 q 633 587 615 658 q 650 354 650 515 q 633 123 650 194 q 554 20 615 51 q 353 -11 493 -11 m 353 149 q 421 161 403 149 q 444 211 439 174 q 449 354 449 249 q 444 498 449 460 q 421 548 439 536 q 353 560 403 560 q 284 548 303 560 q 261 499 265 536 q 257 354 257 461 q 261 210 257 247 q 284 161 265 174 q 353 149 303 149 m 549 1032 q 535 924 549 965 q 478 858 521 882 q 351 833 435 833 q 226 858 268 833 q 169 924 183 882 q 156 1032 156 965 l 272 1032 q 276 982 272 999 q 297 955 281 965 q 351 944 314 944 q 407 955 389 944 q 429 983 425 965 q 433 1032 433 1000 l 549 1032 z "},"ǒ":{"ha":704,"x_min":56,"x_max":650,"o":"m 353 -11 q 151 19 213 -11 q 72 122 89 50 q 56 354 56 193 q 72 587 56 515 q 151 689 89 658 q 353 719 213 719 q 554 689 493 719 q 633 587 615 658 q 650 354 650 515 q 633 123 650 194 q 554 20 615 51 q 353 -11 493 -11 m 353 149 q 421 161 403 149 q 444 211 439 174 q 449 354 449 249 q 444 498 449 460 q 421 548 439 536 q 353 560 403 560 q 284 548 303 560 q 261 499 265 536 q 257 354 257 461 q 261 210 257 247 q 284 161 265 174 q 353 149 303 149 m 256 839 l 138 1021 l 138 1032 l 271 1032 l 353 925 l 433 1032 l 567 1032 l 567 1021 l 449 839 l 256 839 z "},"ô":{"ha":704,"x_min":56,"x_max":650,"o":"m 353 -11 q 151 19 213 -11 q 72 122 89 50 q 56 354 56 193 q 72 587 56 515 q 151 689 89 658 q 353 719 213 719 q 554 689 493 719 q 633 587 615 658 q 650 354 650 515 q 633 123 650 194 q 554 20 615 51 q 353 -11 493 -11 m 353 149 q 421 161 403 149 q 444 211 439 174 q 449 354 449 249 q 444 498 449 460 q 421 548 439 536 q 353 560 403 560 q 284 548 303 560 q 261 499 265 536 q 257 354 257 461 q 261 210 257 247 q 284 161 265 174 q 353 149 303 149 m 139 839 l 139 850 l 257 1032 l 450 1032 l 569 850 l 569 839 l 435 839 l 353 946 l 272 839 l 139 839 z "},"ố":{"ha":704,"x_min":56,"x_max":674,"o":"m 353 -11 q 151 19 213 -11 q 72 122 89 50 q 56 354 56 193 q 72 587 56 515 q 151 689 89 658 q 353 719 213 719 q 554 689 493 719 q 633 587 615 658 q 650 354 650 515 q 633 123 650 194 q 554 20 615 51 q 353 -11 493 -11 m 353 149 q 421 161 403 149 q 444 211 439 174 q 449 354 449 249 q 444 498 449 460 q 421 548 439 536 q 353 560 403 560 q 284 548 303 560 q 261 499 265 536 q 257 354 257 461 q 261 210 257 247 q 284 161 265 174 q 353 149 303 149 m 136 839 l 136 850 l 254 1032 l 447 1032 l 567 850 l 567 839 l 432 839 l 350 946 l 269 839 l 136 839 m 375 1071 l 375 1078 l 476 1272 l 674 1272 l 674 1265 l 525 1071 l 375 1071 z "},"ộ":{"ha":704,"x_min":56,"x_max":650,"o":"m 353 -11 q 151 19 213 -11 q 72 122 89 50 q 56 354 56 193 q 72 587 56 515 q 151 689 89 658 q 353 719 213 719 q 554 689 493 719 q 633 587 615 658 q 650 354 650 515 q 633 123 650 194 q 554 20 615 51 q 353 -11 493 -11 m 353 149 q 421 161 403 149 q 444 211 439 174 q 449 354 449 249 q 444 498 449 460 q 421 548 439 536 q 353 560 403 560 q 284 548 303 560 q 261 499 265 536 q 257 354 257 461 q 261 210 257 247 q 284 161 265 174 q 353 149 303 149 m 244 -278 l 244 -86 l 461 -86 l 461 -278 l 244 -278 m 138 839 l 138 850 l 256 1032 l 449 1032 l 568 850 l 568 839 l 433 839 l 351 946 l 271 839 l 138 839 z "},"ồ":{"ha":704,"x_min":56,"x_max":650,"o":"m 353 -11 q 151 19 213 -11 q 72 122 89 50 q 56 354 56 193 q 72 587 56 515 q 151 689 89 658 q 353 719 213 719 q 554 689 493 719 q 633 587 615 658 q 650 354 650 515 q 633 123 650 194 q 554 20 615 51 q 353 -11 493 -11 m 353 149 q 421 161 403 149 q 444 211 439 174 q 449 354 449 249 q 444 498 449 460 q 421 548 439 536 q 353 560 403 560 q 284 548 303 560 q 261 499 265 536 q 257 354 257 461 q 261 210 257 247 q 284 161 265 174 q 353 149 303 149 m 129 839 l 129 850 l 247 1032 l 440 1032 l 560 850 l 560 839 l 425 839 l 343 946 l 263 839 l 129 839 m 424 1071 l 275 1265 l 275 1272 l 472 1272 l 574 1078 l 574 1071 l 424 1071 z "},"ổ":{"ha":704,"x_min":56,"x_max":678,"o":"m 353 -11 q 151 19 213 -11 q 72 122 89 50 q 56 354 56 193 q 72 587 56 515 q 151 689 89 658 q 353 719 213 719 q 554 689 493 719 q 633 587 615 658 q 650 354 650 515 q 633 123 650 194 q 554 20 615 51 q 353 -11 493 -11 m 353 149 q 421 161 403 149 q 444 211 439 174 q 449 354 449 249 q 444 498 449 460 q 421 548 439 536 q 353 560 403 560 q 284 548 303 560 q 261 499 265 536 q 257 354 257 461 q 261 210 257 247 q 284 161 265 174 q 353 149 303 149 m 138 839 l 138 850 l 256 1032 l 449 1032 l 568 850 l 568 839 l 433 839 l 351 946 l 271 839 l 138 839 m 408 1076 q 421 1135 408 1118 q 471 1163 433 1151 l 492 1169 q 533 1188 524 1181 q 543 1213 543 1196 q 529 1240 543 1235 q 469 1244 515 1244 q 328 1238 397 1244 l 328 1340 q 493 1356 413 1356 q 594 1347 556 1356 q 656 1310 633 1338 q 678 1228 678 1282 q 660 1153 678 1176 q 593 1113 642 1131 l 571 1104 q 531 1085 539 1093 q 524 1058 524 1078 l 408 1058 l 408 1076 z "},"ỗ":{"ha":704,"x_min":56,"x_max":650,"o":"m 353 -11 q 151 19 213 -11 q 72 122 89 50 q 56 354 56 193 q 72 587 56 515 q 151 689 89 658 q 353 719 213 719 q 554 689 493 719 q 633 587 615 658 q 650 354 650 515 q 633 123 650 194 q 554 20 615 51 q 353 -11 493 -11 m 353 149 q 421 161 403 149 q 444 211 439 174 q 449 354 449 249 q 444 498 449 460 q 421 548 439 536 q 353 560 403 560 q 284 548 303 560 q 261 499 265 536 q 257 354 257 461 q 261 210 257 247 q 284 161 265 174 q 353 149 303 149 m 135 839 l 135 850 l 253 1032 l 446 1032 l 565 850 l 565 839 l 431 839 l 349 946 l 268 839 l 135 839 m 597 1272 q 591 1163 597 1200 q 560 1104 585 1125 q 481 1083 535 1083 q 417 1090 449 1083 q 338 1108 385 1096 q 294 1119 325 1111 q 246 1126 264 1126 q 220 1115 225 1126 q 215 1068 215 1104 l 108 1068 q 115 1178 108 1140 q 146 1236 121 1215 q 225 1257 171 1257 q 288 1251 257 1257 q 369 1232 318 1244 q 419 1220 394 1225 q 460 1215 444 1215 q 485 1226 481 1215 q 490 1272 490 1236 l 597 1272 z "},"ȍ":{"ha":704,"x_min":56,"x_max":650,"o":"m 353 -11 q 151 19 213 -11 q 72 122 89 50 q 56 354 56 193 q 72 587 56 515 q 151 689 89 658 q 353 719 213 719 q 554 689 493 719 q 633 587 615 658 q 650 354 650 515 q 633 123 650 194 q 554 20 615 51 q 353 -11 493 -11 m 353 149 q 421 161 403 149 q 444 211 439 174 q 449 354 449 249 q 444 498 449 460 q 421 548 439 536 q 353 560 403 560 q 284 548 303 560 q 261 499 265 536 q 257 354 257 461 q 261 210 257 247 q 284 161 265 174 q 353 149 303 149 m 308 847 l 185 847 l 60 1011 l 60 1017 l 221 1017 l 308 853 l 308 847 m 543 847 l 419 847 l 294 1011 l 294 1017 l 457 1017 l 543 853 l 543 847 z "},"ö":{"ha":704,"x_min":56,"x_max":650,"o":"m 353 -11 q 151 19 213 -11 q 72 122 89 50 q 56 354 56 193 q 72 587 56 515 q 151 689 89 658 q 353 719 213 719 q 554 689 493 719 q 633 587 615 658 q 650 354 650 515 q 633 123 650 194 q 554 20 615 51 q 353 -11 493 -11 m 353 149 q 421 161 403 149 q 444 211 439 174 q 449 354 449 249 q 444 498 449 460 q 421 548 439 536 q 353 560 403 560 q 284 548 303 560 q 261 499 265 536 q 257 354 257 461 q 261 210 257 247 q 284 161 265 174 q 353 149 303 149 m 138 864 l 138 1011 l 306 1011 l 306 864 l 138 864 m 403 864 l 403 1011 l 571 1011 l 571 864 l 403 864 z "},"ọ":{"ha":704,"x_min":56,"x_max":650,"o":"m 353 -11 q 151 19 213 -11 q 72 122 89 50 q 56 354 56 193 q 72 587 56 515 q 151 689 89 658 q 353 719 213 719 q 554 689 493 719 q 633 587 615 658 q 650 354 650 515 q 633 123 650 194 q 554 20 615 51 q 353 -11 493 -11 m 353 149 q 421 161 403 149 q 444 211 439 174 q 449 354 449 249 q 444 498 449 460 q 421 548 439 536 q 353 560 403 560 q 284 548 303 560 q 261 499 265 536 q 257 354 257 461 q 261 210 257 247 q 284 161 265 174 q 353 149 303 149 m 244 -278 l 244 -86 l 461 -86 l 461 -278 l 244 -278 z "},"ò":{"ha":704,"x_min":56,"x_max":650,"o":"m 353 -11 q 151 19 213 -11 q 72 122 89 50 q 56 354 56 193 q 72 587 56 515 q 151 689 89 658 q 353 719 213 719 q 554 689 493 719 q 633 587 615 658 q 650 354 650 515 q 633 123 650 194 q 554 20 615 51 q 353 -11 493 -11 m 353 149 q 421 161 403 149 q 444 211 439 174 q 449 354 449 249 q 444 498 449 460 q 421 548 439 536 q 353 560 403 560 q 284 548 303 560 q 261 499 265 536 q 257 354 257 461 q 261 210 257 247 q 284 161 265 174 q 353 149 303 149 m 288 831 l 139 1025 l 139 1032 l 336 1032 l 438 838 l 438 831 l 288 831 z "},"ỏ":{"ha":704,"x_min":56,"x_max":650,"o":"m 353 -11 q 151 19 213 -11 q 72 122 89 50 q 56 354 56 193 q 72 587 56 515 q 151 689 89 658 q 353 719 213 719 q 554 689 493 719 q 633 587 615 658 q 650 354 650 515 q 633 123 650 194 q 554 20 615 51 q 353 -11 493 -11 m 353 149 q 421 161 403 149 q 444 211 439 174 q 449 354 449 249 q 444 498 449 460 q 421 548 439 536 q 353 560 403 560 q 284 548 303 560 q 261 499 265 536 q 257 354 257 461 q 261 210 257 247 q 284 161 265 174 q 353 149 303 149 m 258 865 q 271 924 258 907 q 321 951 283 940 l 342 958 q 383 977 374 969 q 393 1001 393 985 q 379 1028 393 1024 q 319 1033 365 1033 q 178 1026 247 1033 l 178 1129 q 343 1144 263 1144 q 444 1135 406 1144 q 506 1099 483 1126 q 528 1017 528 1071 q 510 942 528 965 q 443 901 492 919 l 421 893 q 381 874 389 882 q 374 847 374 867 l 258 847 l 258 865 z "},"ơ":{"ha":704,"x_min":56,"x_max":739,"o":"m 739 836 l 739 804 q 730 710 739 744 q 694 658 721 676 q 614 632 667 639 q 643 530 636 593 q 650 354 650 467 q 633 123 650 194 q 554 20 615 51 q 353 -11 493 -11 q 151 19 213 -11 q 72 122 89 50 q 56 354 56 193 q 72 587 56 515 q 151 689 89 658 q 353 719 213 719 q 494 708 444 719 l 519 708 q 577 715 558 708 q 602 738 596 722 q 608 785 608 753 l 608 836 l 739 836 m 353 149 q 421 161 403 149 q 444 211 439 174 q 449 354 449 249 q 444 498 449 460 q 421 548 439 536 q 353 560 403 560 q 284 548 303 560 q 261 499 265 536 q 257 354 257 461 q 261 210 257 247 q 284 161 265 174 q 353 149 303 149 z "},"ớ":{"ha":704,"x_min":56,"x_max":739,"o":"m 739 836 l 739 804 q 730 710 739 744 q 694 658 721 676 q 614 632 667 639 q 643 530 636 593 q 650 354 650 467 q 633 123 650 194 q 554 20 615 51 q 353 -11 493 -11 q 151 19 213 -11 q 72 122 89 50 q 56 354 56 193 q 72 587 56 515 q 151 689 89 658 q 353 719 213 719 q 494 708 444 719 l 519 708 q 577 715 558 708 q 602 738 596 722 q 608 785 608 753 l 608 836 l 739 836 m 353 149 q 421 161 403 149 q 444 211 439 174 q 449 354 449 249 q 444 498 449 460 q 421 548 439 536 q 353 560 403 560 q 284 548 303 560 q 261 499 265 536 q 257 354 257 461 q 261 210 257 247 q 284 161 265 174 q 353 149 303 149 m 269 831 l 269 838 l 371 1032 l 568 1032 l 568 1025 l 419 831 l 269 831 z "},"ợ":{"ha":704,"x_min":56,"x_max":739,"o":"m 739 836 l 739 804 q 730 710 739 744 q 694 658 721 676 q 614 632 667 639 q 643 530 636 593 q 650 354 650 467 q 633 123 650 194 q 554 20 615 51 q 353 -11 493 -11 q 151 19 213 -11 q 72 122 89 50 q 56 354 56 193 q 72 587 56 515 q 151 689 89 658 q 353 719 213 719 q 494 708 444 719 l 519 708 q 577 715 558 708 q 602 738 596 722 q 608 785 608 753 l 608 836 l 739 836 m 353 149 q 421 161 403 149 q 444 211 439 174 q 449 354 449 249 q 444 498 449 460 q 421 548 439 536 q 353 560 403 560 q 284 548 303 560 q 261 499 265 536 q 257 354 257 461 q 261 210 257 247 q 284 161 265 174 q 353 149 303 149 m 244 -278 l 244 -86 l 461 -86 l 461 -278 l 244 -278 z "},"ờ":{"ha":704,"x_min":56,"x_max":739,"o":"m 739 836 l 739 804 q 730 710 739 744 q 694 658 721 676 q 614 632 667 639 q 643 530 636 593 q 650 354 650 467 q 633 123 650 194 q 554 20 615 51 q 353 -11 493 -11 q 151 19 213 -11 q 72 122 89 50 q 56 354 56 193 q 72 587 56 515 q 151 689 89 658 q 353 719 213 719 q 494 708 444 719 l 519 708 q 577 715 558 708 q 602 738 596 722 q 608 785 608 753 l 608 836 l 739 836 m 353 149 q 421 161 403 149 q 444 211 439 174 q 449 354 449 249 q 444 498 449 460 q 421 548 439 536 q 353 560 403 560 q 284 548 303 560 q 261 499 265 536 q 257 354 257 461 q 261 210 257 247 q 284 161 265 174 q 353 149 303 149 m 282 831 l 133 1025 l 133 1032 l 331 1032 l 432 838 l 432 831 l 282 831 z "},"ở":{"ha":704,"x_min":56,"x_max":739,"o":"m 739 836 l 739 804 q 730 710 739 744 q 694 658 721 676 q 614 632 667 639 q 643 530 636 593 q 650 354 650 467 q 633 123 650 194 q 554 20 615 51 q 353 -11 493 -11 q 151 19 213 -11 q 72 122 89 50 q 56 354 56 193 q 72 587 56 515 q 151 689 89 658 q 353 719 213 719 q 494 708 444 719 l 519 708 q 577 715 558 708 q 602 738 596 722 q 608 785 608 753 l 608 836 l 739 836 m 353 149 q 421 161 403 149 q 444 211 439 174 q 449 354 449 249 q 444 498 449 460 q 421 548 439 536 q 353 560 403 560 q 284 548 303 560 q 261 499 265 536 q 257 354 257 461 q 261 210 257 247 q 284 161 265 174 q 353 149 303 149 m 258 865 q 271 924 258 907 q 321 951 283 940 l 342 958 q 383 977 374 969 q 393 1001 393 985 q 379 1028 393 1024 q 319 1033 365 1033 q 178 1026 247 1033 l 178 1129 q 343 1144 263 1144 q 444 1135 406 1144 q 506 1099 483 1126 q 528 1017 528 1071 q 510 942 528 965 q 443 901 492 919 l 421 893 q 381 874 389 882 q 374 847 374 867 l 258 847 l 258 865 z "},"ỡ":{"ha":704,"x_min":56,"x_max":739,"o":"m 739 836 l 739 804 q 730 710 739 744 q 694 658 721 676 q 614 632 667 639 q 643 530 636 593 q 650 354 650 467 q 633 123 650 194 q 554 20 615 51 q 353 -11 493 -11 q 151 19 213 -11 q 72 122 89 50 q 56 354 56 193 q 72 587 56 515 q 151 689 89 658 q 353 719 213 719 q 494 708 444 719 l 519 708 q 577 715 558 708 q 602 738 596 722 q 608 785 608 753 l 608 836 l 739 836 m 353 149 q 421 161 403 149 q 444 211 439 174 q 449 354 449 249 q 444 498 449 460 q 421 548 439 536 q 353 560 403 560 q 284 548 303 560 q 261 499 265 536 q 257 354 257 461 q 261 210 257 247 q 284 161 265 174 q 353 149 303 149 m 597 1032 q 591 922 597 960 q 560 864 585 885 q 481 843 535 843 q 417 849 449 843 q 338 868 385 856 q 294 878 325 871 q 246 886 264 886 q 220 875 225 886 q 215 828 215 864 l 108 828 q 115 938 108 900 q 146 996 121 975 q 225 1017 171 1017 q 288 1010 257 1017 q 369 992 318 1004 q 419 980 394 985 q 460 975 444 975 q 485 985 481 975 q 490 1032 490 996 l 597 1032 z "},"ő":{"ha":704,"x_min":56,"x_max":661,"o":"m 353 -11 q 151 19 213 -11 q 72 122 89 50 q 56 354 56 193 q 72 587 56 515 q 151 689 89 658 q 353 719 213 719 q 554 689 493 719 q 633 587 615 658 q 650 354 650 515 q 633 123 650 194 q 554 20 615 51 q 353 -11 493 -11 m 353 149 q 421 161 403 149 q 444 211 439 174 q 449 354 449 249 q 444 498 449 460 q 421 548 439 536 q 353 560 403 560 q 284 548 303 560 q 261 499 265 536 q 257 354 257 461 q 261 210 257 247 q 284 161 265 174 q 353 149 303 149 m 178 847 l 178 853 l 264 1017 l 426 1017 l 426 1011 l 301 847 l 178 847 m 413 847 l 413 853 l 500 1017 l 661 1017 l 661 1011 l 536 847 l 413 847 z "},"ȏ":{"ha":704,"x_min":56,"x_max":650,"o":"m 353 -11 q 151 19 213 -11 q 72 122 89 50 q 56 354 56 193 q 72 587 56 515 q 151 689 89 658 q 353 719 213 719 q 554 689 493 719 q 633 587 615 658 q 650 354 650 515 q 633 123 650 194 q 554 20 615 51 q 353 -11 493 -11 m 353 149 q 421 161 403 149 q 444 211 439 174 q 449 354 449 249 q 444 498 449 460 q 421 548 439 536 q 353 560 403 560 q 284 548 303 560 q 261 499 265 536 q 257 354 257 461 q 261 210 257 247 q 284 161 265 174 q 353 149 303 149 m 157 842 q 171 950 157 908 q 228 1016 185 992 q 354 1040 271 1040 q 480 1016 438 1040 q 536 950 522 992 q 550 842 550 908 l 433 842 q 429 892 433 875 q 408 919 425 908 q 354 929 392 929 q 299 919 317 929 q 276 891 281 908 q 272 842 272 874 l 157 842 z "},"ō":{"ha":704,"x_min":56,"x_max":650,"o":"m 353 -11 q 151 19 213 -11 q 72 122 89 50 q 56 354 56 193 q 72 587 56 515 q 151 689 89 658 q 353 719 213 719 q 554 689 493 719 q 633 587 615 658 q 650 354 650 515 q 633 123 650 194 q 554 20 615 51 q 353 -11 493 -11 m 353 149 q 421 161 403 149 q 444 211 439 174 q 449 354 449 249 q 444 498 449 460 q 421 548 439 536 q 353 560 403 560 q 284 548 303 560 q 261 499 265 536 q 257 354 257 461 q 261 210 257 247 q 284 161 265 174 q 353 149 303 149 m 186 863 l 186 1032 l 521 1032 l 521 863 l 186 863 z "},"ǫ":{"ha":704,"x_min":56,"x_max":650,"o":"m 353 719 q 554 689 493 719 q 633 587 615 658 q 650 354 650 515 q 635 133 650 203 q 567 28 619 63 q 503 -35 531 3 q 476 -115 476 -74 q 535 -164 476 -164 q 557 -162 551 -164 l 557 -267 q 475 -272 524 -272 q 315 -156 315 -272 q 374 -11 315 -86 l 350 -11 q 150 21 211 -10 q 72 122 89 51 q 56 354 56 193 q 72 587 56 515 q 151 689 89 658 q 353 719 213 719 m 257 354 q 261 210 257 247 q 284 161 265 174 q 353 149 303 149 q 421 161 403 149 q 444 211 439 174 q 449 354 449 249 q 444 498 449 460 q 421 548 439 536 q 353 560 403 560 q 284 548 303 560 q 261 499 265 536 q 257 354 257 461 z "},"ø":{"ha":704,"x_min":56,"x_max":650,"o":"m 115 44 q 66 149 76 81 q 56 354 56 217 q 72 587 56 515 q 151 689 89 658 q 353 719 213 719 q 447 714 413 719 l 483 785 l 650 785 l 589 664 q 639 559 628 628 q 650 354 650 490 q 633 123 650 194 q 554 20 615 51 q 353 -11 493 -11 q 257 -6 292 -11 l 222 -76 l 56 -76 l 115 44 m 353 149 q 421 161 403 149 q 444 211 439 174 q 449 354 449 249 q 444 498 449 460 q 421 548 439 536 q 353 560 403 560 q 284 548 303 560 q 261 499 265 536 q 257 354 257 461 q 261 210 257 247 q 284 161 265 174 q 353 149 303 149 z "},"ǿ":{"ha":704,"x_min":56,"x_max":650,"o":"m 115 44 q 66 149 76 81 q 56 354 56 217 q 72 587 56 515 q 151 689 89 658 q 353 719 213 719 q 447 714 413 719 l 483 785 l 650 785 l 589 664 q 639 559 628 628 q 650 354 650 490 q 633 123 650 194 q 554 20 615 51 q 353 -11 493 -11 q 257 -6 292 -11 l 222 -76 l 56 -76 l 115 44 m 353 149 q 421 161 403 149 q 444 211 439 174 q 449 354 449 249 q 444 498 449 460 q 421 548 439 536 q 353 560 403 560 q 284 548 303 560 q 261 499 265 536 q 257 354 257 461 q 261 210 257 247 q 284 161 265 174 q 353 149 303 149 m 269 831 l 269 838 l 371 1032 l 568 1032 l 568 1025 l 419 831 l 269 831 z "},"õ":{"ha":704,"x_min":56,"x_max":650,"o":"m 353 -11 q 151 19 213 -11 q 72 122 89 50 q 56 354 56 193 q 72 587 56 515 q 151 689 89 658 q 353 719 213 719 q 554 689 493 719 q 633 587 615 658 q 650 354 650 515 q 633 123 650 194 q 554 20 615 51 q 353 -11 493 -11 m 353 149 q 421 161 403 149 q 444 211 439 174 q 449 354 449 249 q 444 498 449 460 q 421 548 439 536 q 353 560 403 560 q 284 548 303 560 q 261 499 265 536 q 257 354 257 461 q 261 210 257 247 q 284 161 265 174 q 353 149 303 149 m 599 1032 q 592 922 599 960 q 561 864 586 885 q 482 843 536 843 q 418 849 450 843 q 339 868 386 856 q 296 878 326 871 q 247 886 265 886 q 222 875 226 886 q 217 828 217 864 l 110 828 q 116 938 110 900 q 147 996 122 975 q 226 1017 172 1017 q 289 1010 258 1017 q 371 992 319 1004 q 421 980 396 985 q 461 975 446 975 q 487 985 482 975 q 492 1032 492 996 l 599 1032 z "},"œ":{"ha":1082,"x_min":56,"x_max":1024,"o":"m 1024 299 l 650 299 q 659 195 650 224 q 699 157 668 167 q 810 147 729 147 q 1001 158 876 147 l 1001 11 q 894 -5 960 1 q 768 -11 829 -11 q 553 42 624 -11 q 472 1 521 14 q 350 -11 422 -11 q 150 19 211 -11 q 72 122 89 50 q 56 354 56 193 q 72 587 56 515 q 150 689 89 658 q 350 719 211 719 q 472 707 422 719 q 553 667 521 694 q 751 719 618 719 q 939 684 882 719 q 1010 578 996 649 q 1024 353 1024 508 l 1024 299 m 744 565 q 683 556 701 565 q 658 516 664 546 q 650 417 651 486 l 835 417 q 828 517 835 486 q 803 556 821 547 q 744 565 785 565 m 353 149 q 421 161 403 149 q 444 211 439 174 q 449 354 449 249 q 444 498 449 460 q 421 548 439 536 q 353 560 403 560 q 284 548 303 560 q 261 499 265 536 q 257 354 257 461 q 261 210 257 247 q 284 161 265 174 q 353 149 303 149 z "},"p":{"ha":719,"x_min":75,"x_max":665,"o":"m 75 708 l 267 708 l 272 624 l 283 624 q 458 719 325 719 q 581 688 536 719 q 645 578 625 656 q 665 356 665 500 q 645 135 665 214 q 581 22 625 56 q 460 -11 538 -11 q 355 8 397 -11 q 288 76 313 28 l 276 76 l 276 -274 l 75 -274 l 75 708 m 369 161 q 435 172 417 161 q 458 221 453 183 q 464 354 464 258 q 458 488 464 450 q 435 536 453 525 q 369 547 417 547 q 315 537 333 547 q 288 499 296 526 q 278 444 281 478 q 276 354 276 411 q 286 217 276 247 q 313 173 294 185 q 369 161 332 161 z "},"þ":{"ha":719,"x_min":75,"x_max":665,"o":"m 75 1032 l 276 1032 l 276 625 l 288 625 q 355 699 311 679 q 458 719 399 719 q 581 688 536 719 q 645 577 625 656 q 665 356 665 499 q 645 135 665 214 q 581 22 625 56 q 460 -11 538 -11 q 355 8 397 -11 q 288 75 313 28 l 276 75 l 276 -264 l 75 -264 l 75 1032 m 369 161 q 435 172 417 161 q 458 221 453 183 q 464 354 464 258 q 458 488 464 450 q 434 538 453 526 q 369 549 415 549 q 314 537 332 549 q 288 493 296 525 q 278 440 281 472 q 276 354 276 408 q 285 225 276 257 q 311 174 293 188 q 369 161 329 161 z "},"q":{"ha":721,"x_min":56,"x_max":644,"o":"m 443 76 l 432 76 q 365 8 407 28 q 260 -11 322 -11 q 138 22 182 -11 q 75 134 94 56 q 56 354 56 213 q 76 577 56 499 q 140 688 96 656 q 263 719 185 719 q 436 624 394 719 l 449 624 l 454 708 l 644 708 l 644 -274 l 443 -274 l 443 76 m 351 161 q 406 172 388 161 q 433 211 424 183 q 443 354 443 240 q 440 451 443 417 q 429 507 438 486 q 402 539 419 531 q 351 547 385 547 q 286 536 304 547 q 263 488 268 525 q 257 354 257 450 q 263 221 257 258 q 286 172 268 183 q 351 161 304 161 z "},"r":{"ha":504,"x_min":75,"x_max":478,"o":"m 75 708 l 267 708 l 272 589 l 283 589 q 354 691 308 663 q 478 719 400 719 l 478 525 q 358 504 401 525 q 296 433 315 483 q 276 293 276 383 l 276 0 l 75 0 l 75 708 z "},"ŕ":{"ha":504,"x_min":75,"x_max":478,"o":"m 75 708 l 267 708 l 272 589 l 283 589 q 354 691 308 663 q 478 719 400 719 l 478 525 q 358 504 401 525 q 296 433 315 483 q 276 293 276 383 l 276 0 l 75 0 l 75 708 m 169 831 l 169 838 l 271 1032 l 468 1032 l 468 1025 l 319 831 l 169 831 z "},"ř":{"ha":504,"x_min":38,"x_max":478,"o":"m 75 708 l 267 708 l 272 589 l 283 589 q 354 691 308 663 q 478 719 400 719 l 478 525 q 358 504 401 525 q 296 433 315 483 q 276 293 276 383 l 276 0 l 75 0 l 75 708 m 156 839 l 38 1021 l 38 1032 l 171 1032 l 253 925 l 333 1032 l 467 1032 l 467 1021 l 349 839 l 156 839 z "},"ŗ":{"ha":504,"x_min":69,"x_max":478,"o":"m 75 708 l 267 708 l 272 589 l 283 589 q 354 691 308 663 q 478 719 400 719 l 478 525 q 358 504 401 525 q 296 433 315 483 q 276 293 276 383 l 276 0 l 75 0 l 75 708 m 69 -321 q 138 -309 122 -321 q 154 -261 154 -297 l 154 -243 l 78 -243 l 78 -85 l 282 -85 l 282 -192 q 268 -324 282 -282 q 210 -384 254 -367 q 69 -401 165 -401 l 69 -321 z "},"ȑ":{"ha":504,"x_min":-40,"x_max":478,"o":"m 75 708 l 267 708 l 272 589 l 283 589 q 354 691 308 663 q 478 719 400 719 l 478 525 q 358 504 401 525 q 296 433 315 483 q 276 293 276 383 l 276 0 l 75 0 l 75 708 m 208 847 l 85 847 l -40 1011 l -40 1017 l 121 1017 l 208 853 l 208 847 m 443 847 l 319 847 l 194 1011 l 194 1017 l 357 1017 l 443 853 l 443 847 z "},"ṛ":{"ha":504,"x_min":68,"x_max":478,"o":"m 75 708 l 267 708 l 272 589 l 283 589 q 354 691 308 663 q 478 719 400 719 l 478 525 q 358 504 401 525 q 296 433 315 483 q 276 293 276 383 l 276 0 l 75 0 l 75 708 m 68 -278 l 68 -86 l 285 -86 l 285 -278 l 68 -278 z "},"ȓ":{"ha":504,"x_min":57,"x_max":478,"o":"m 75 708 l 267 708 l 272 589 l 283 589 q 354 691 308 663 q 478 719 400 719 l 478 525 q 358 504 401 525 q 296 433 315 483 q 276 293 276 383 l 276 0 l 75 0 l 75 708 m 57 842 q 71 950 57 908 q 128 1016 85 992 q 254 1040 171 1040 q 380 1016 338 1040 q 436 950 422 992 q 450 842 450 908 l 333 842 q 329 892 333 875 q 308 919 325 908 q 254 929 292 929 q 199 919 217 929 q 176 891 181 908 q 172 842 172 874 l 57 842 z "},"s":{"ha":608,"x_min":44,"x_max":564,"o":"m 313 -11 q 183 -6 253 -11 q 64 10 114 0 l 64 157 q 256 146 156 146 q 334 151 310 146 q 366 168 358 156 q 374 208 374 181 q 369 247 374 236 q 353 263 365 258 q 308 272 340 268 l 167 292 q 70 350 96 301 q 44 504 44 399 q 77 638 44 590 q 167 702 110 685 q 310 719 224 719 q 428 713 365 719 q 528 697 490 707 l 528 551 q 350 563 411 563 q 278 558 301 563 q 247 542 256 554 q 238 504 238 531 q 241 467 238 478 q 255 452 244 457 q 293 443 265 447 l 428 425 q 502 401 474 418 q 547 342 531 385 q 564 217 564 299 q 534 73 564 122 q 451 6 504 24 q 313 -11 397 -11 z "},"ś":{"ha":608,"x_min":44,"x_max":564,"o":"m 313 -11 q 183 -6 253 -11 q 64 10 114 0 l 64 157 q 256 146 156 146 q 334 151 310 146 q 366 168 358 156 q 374 208 374 181 q 369 247 374 236 q 353 263 365 258 q 308 272 340 268 l 167 292 q 70 350 96 301 q 44 504 44 399 q 77 638 44 590 q 167 702 110 685 q 310 719 224 719 q 428 713 365 719 q 528 697 490 707 l 528 551 q 350 563 411 563 q 278 558 301 563 q 247 542 256 554 q 238 504 238 531 q 241 467 238 478 q 255 452 244 457 q 293 443 265 447 l 428 425 q 502 401 474 418 q 547 342 531 385 q 564 217 564 299 q 534 73 564 122 q 451 6 504 24 q 313 -11 397 -11 m 221 831 l 221 838 l 322 1032 l 519 1032 l 519 1025 l 371 831 l 221 831 z "},"ꞌ":{"ha":263,"x_min":40,"x_max":224,"o":"m 40 374 l 40 1032 l 224 1032 l 224 719 l 181 374 l 40 374 z "},"š":{"ha":608,"x_min":44,"x_max":564,"o":"m 313 -11 q 183 -6 253 -11 q 64 10 114 0 l 64 157 q 256 146 156 146 q 334 151 310 146 q 366 168 358 156 q 374 208 374 181 q 369 247 374 236 q 353 263 365 258 q 308 272 340 268 l 167 292 q 70 350 96 301 q 44 504 44 399 q 77 638 44 590 q 167 702 110 685 q 310 719 224 719 q 428 713 365 719 q 528 697 490 707 l 528 551 q 350 563 411 563 q 278 558 301 563 q 247 542 256 554 q 238 504 238 531 q 241 467 238 478 q 255 452 244 457 q 293 443 265 447 l 428 425 q 502 401 474 418 q 547 342 531 385 q 564 217 564 299 q 534 73 564 122 q 451 6 504 24 q 313 -11 397 -11 m 213 839 l 94 1021 l 94 1032 l 228 1032 l 310 925 l 390 1032 l 524 1032 l 524 1021 l 406 839 l 213 839 z "},"ş":{"ha":608,"x_min":44,"x_max":564,"o":"m 564 217 q 515 47 564 96 q 369 -10 467 -1 l 322 -262 l 142 -262 l 142 -256 l 232 -8 q 64 10 139 -4 l 64 157 q 256 146 156 146 q 334 151 310 146 q 366 168 358 156 q 374 208 374 181 q 369 247 374 236 q 353 263 365 258 q 308 272 340 268 l 167 292 q 70 350 96 301 q 44 504 44 399 q 77 638 44 590 q 167 702 110 685 q 310 719 224 719 q 428 713 365 719 q 528 697 490 707 l 528 551 q 350 563 411 563 q 278 558 301 563 q 247 542 256 554 q 238 504 238 531 q 241 467 238 478 q 255 452 244 457 q 293 443 265 447 l 428 425 q 502 401 474 418 q 547 342 531 385 q 564 217 564 299 z "},"ŝ":{"ha":608,"x_min":44,"x_max":564,"o":"m 313 -11 q 183 -6 253 -11 q 64 10 114 0 l 64 157 q 256 146 156 146 q 334 151 310 146 q 366 168 358 156 q 374 208 374 181 q 369 247 374 236 q 353 263 365 258 q 308 272 340 268 l 167 292 q 70 350 96 301 q 44 504 44 399 q 77 638 44 590 q 167 702 110 685 q 310 719 224 719 q 428 713 365 719 q 528 697 490 707 l 528 551 q 350 563 411 563 q 278 558 301 563 q 247 542 256 554 q 238 504 238 531 q 241 467 238 478 q 255 452 244 457 q 293 443 265 447 l 428 425 q 502 401 474 418 q 547 342 531 385 q 564 217 564 299 q 534 73 564 122 q 451 6 504 24 q 313 -11 397 -11 m 89 839 l 89 850 l 207 1032 l 400 1032 l 519 850 l 519 839 l 385 839 l 303 946 l 222 839 l 89 839 z "},"ș":{"ha":608,"x_min":44,"x_max":564,"o":"m 313 -11 q 183 -6 253 -11 q 64 10 114 0 l 64 157 q 256 146 156 146 q 334 151 310 146 q 366 168 358 156 q 374 208 374 181 q 369 247 374 236 q 353 263 365 258 q 308 272 340 268 l 167 292 q 70 350 96 301 q 44 504 44 399 q 77 638 44 590 q 167 702 110 685 q 310 719 224 719 q 428 713 365 719 q 528 697 490 707 l 528 551 q 350 563 411 563 q 278 558 301 563 q 247 542 256 554 q 238 504 238 531 q 241 467 238 478 q 255 452 244 457 q 293 443 265 447 l 428 425 q 502 401 474 418 q 547 342 531 385 q 564 217 564 299 q 534 73 564 122 q 451 6 504 24 q 313 -11 397 -11 m 197 -321 q 266 -309 250 -321 q 282 -261 282 -297 l 282 -243 l 206 -243 l 206 -85 l 410 -85 l 410 -192 q 396 -324 410 -282 q 338 -384 382 -367 q 197 -401 293 -401 l 197 -321 z "},"ṣ":{"ha":608,"x_min":44,"x_max":564,"o":"m 313 -11 q 183 -6 253 -11 q 64 10 114 0 l 64 157 q 256 146 156 146 q 334 151 310 146 q 366 168 358 156 q 374 208 374 181 q 369 247 374 236 q 353 263 365 258 q 308 272 340 268 l 167 292 q 70 350 96 301 q 44 504 44 399 q 77 638 44 590 q 167 702 110 685 q 310 719 224 719 q 428 713 365 719 q 528 697 490 707 l 528 551 q 350 563 411 563 q 278 558 301 563 q 247 542 256 554 q 238 504 238 531 q 241 467 238 478 q 255 452 244 457 q 293 443 265 447 l 428 425 q 502 401 474 418 q 547 342 531 385 q 564 217 564 299 q 534 73 564 122 q 451 6 504 24 q 313 -11 397 -11 m 196 -278 l 196 -86 l 413 -86 l 413 -278 l 196 -278 z "},"ß":{"ha":742,"x_min":75,"x_max":686,"o":"m 351 0 l 351 158 l 379 158 q 450 168 431 158 q 476 214 469 178 q 483 344 483 250 q 475 463 483 426 q 446 509 467 499 q 379 519 425 519 l 361 519 l 361 679 l 379 679 q 440 687 421 679 q 465 715 458 694 q 472 778 472 735 q 463 846 472 824 q 434 876 454 868 q 375 883 414 883 q 316 874 336 883 q 286 838 296 865 q 276 750 276 810 l 276 0 l 75 0 l 75 764 q 103 923 75 863 q 197 1013 131 983 q 376 1042 263 1042 q 557 1015 492 1042 q 649 937 622 989 q 676 804 676 885 q 641 669 676 715 q 531 608 606 622 l 531 603 q 649 526 611 586 q 686 333 686 465 q 665 138 686 207 q 581 34 643 68 q 400 0 519 0 l 351 0 z "},"ſ":{"ha":489,"x_min":25,"x_max":481,"o":"m 135 549 l 25 549 l 25 708 l 135 708 l 135 756 q 161 945 135 889 q 254 1016 188 1001 q 481 1031 321 1031 l 481 888 q 383 882 411 888 q 347 857 356 876 q 338 790 338 838 l 338 0 l 135 0 l 135 549 z "},"t":{"ha":496,"x_min":24,"x_max":471,"o":"m 133 0 l 133 549 l 24 549 l 24 708 l 133 708 l 133 914 l 336 914 l 336 708 l 471 708 l 471 549 l 336 549 l 336 0 l 133 0 z "},"ŧ":{"ha":496,"x_min":24,"x_max":471,"o":"m 471 549 l 336 549 l 336 410 l 469 410 l 469 256 l 336 256 l 336 0 l 133 0 l 133 256 l 25 256 l 25 410 l 133 410 l 133 549 l 24 549 l 24 708 l 133 708 l 133 914 l 336 914 l 336 708 l 471 708 l 471 549 z "},"ť":{"ha":632,"x_min":24,"x_max":717,"o":"m 133 0 l 133 549 l 24 549 l 24 708 l 133 708 l 133 914 l 336 914 l 336 708 l 471 708 l 471 549 l 336 549 l 336 0 l 133 0 m 513 596 l 533 878 l 533 956 l 717 956 l 717 878 l 653 596 l 513 596 z "},"ţ":{"ha":496,"x_min":24,"x_max":471,"o":"m 336 708 l 471 708 l 471 549 l 336 549 l 336 0 l 301 0 l 253 -262 l 72 -262 l 72 -256 l 165 0 l 133 0 l 133 549 l 24 549 l 24 708 l 133 708 l 133 914 l 336 914 l 336 708 z "},"ț":{"ha":496,"x_min":24,"x_max":471,"o":"m 133 0 l 133 549 l 24 549 l 24 708 l 133 708 l 133 914 l 336 914 l 336 708 l 471 708 l 471 549 l 336 549 l 336 0 l 133 0 m 128 -321 q 197 -309 181 -321 q 213 -261 213 -297 l 213 -243 l 136 -243 l 136 -85 l 340 -85 l 340 -192 q 326 -324 340 -282 q 268 -384 313 -367 q 128 -401 224 -401 l 128 -321 z "},"ṭ":{"ha":496,"x_min":24,"x_max":471,"o":"m 133 0 l 133 549 l 24 549 l 24 708 l 133 708 l 133 914 l 336 914 l 336 708 l 471 708 l 471 549 l 336 549 l 336 0 l 133 0 m 126 -278 l 126 -86 l 343 -86 l 343 -278 l 126 -278 z "},"u":{"ha":728,"x_min":74,"x_max":651,"o":"m 456 85 l 444 85 q 263 -11 400 -11 q 142 17 183 -11 q 88 101 101 46 q 74 254 74 157 l 74 708 l 275 708 l 275 329 q 281 213 275 246 q 302 170 286 179 q 360 161 318 161 q 420 176 401 161 q 444 226 439 190 q 450 342 450 263 l 450 708 l 651 708 l 651 0 l 461 0 l 456 85 z "},"ú":{"ha":728,"x_min":74,"x_max":651,"o":"m 456 85 l 444 85 q 263 -11 400 -11 q 142 17 183 -11 q 88 101 101 46 q 74 254 74 157 l 74 708 l 275 708 l 275 329 q 281 213 275 246 q 302 170 286 179 q 360 161 318 161 q 420 176 401 161 q 444 226 439 190 q 450 342 450 263 l 450 708 l 651 708 l 651 0 l 461 0 l 456 85 m 288 831 l 288 838 l 389 1032 l 586 1032 l 586 1025 l 438 831 l 288 831 z "},"ŭ":{"ha":728,"x_min":74,"x_max":651,"o":"m 456 85 l 444 85 q 263 -11 400 -11 q 142 17 183 -11 q 88 101 101 46 q 74 254 74 157 l 74 708 l 275 708 l 275 329 q 281 213 275 246 q 302 170 286 179 q 360 161 318 161 q 420 176 401 161 q 444 226 439 190 q 450 342 450 263 l 450 708 l 651 708 l 651 0 l 461 0 l 456 85 m 560 1032 q 546 924 560 965 q 489 858 532 882 q 363 833 446 833 q 237 858 279 833 q 181 924 194 882 q 167 1032 167 965 l 283 1032 q 288 982 283 999 q 308 955 292 965 q 363 944 325 944 q 418 955 400 944 q 440 983 436 965 q 444 1032 444 1000 l 560 1032 z "},"ǔ":{"ha":728,"x_min":74,"x_max":651,"o":"m 456 85 l 444 85 q 263 -11 400 -11 q 142 17 183 -11 q 88 101 101 46 q 74 254 74 157 l 74 708 l 275 708 l 275 329 q 281 213 275 246 q 302 170 286 179 q 360 161 318 161 q 420 176 401 161 q 444 226 439 190 q 450 342 450 263 l 450 708 l 651 708 l 651 0 l 461 0 l 456 85 m 267 839 l 149 1021 l 149 1032 l 282 1032 l 364 925 l 444 1032 l 578 1032 l 578 1021 l 460 839 l 267 839 z "},"û":{"ha":728,"x_min":74,"x_max":651,"o":"m 456 85 l 444 85 q 263 -11 400 -11 q 142 17 183 -11 q 88 101 101 46 q 74 254 74 157 l 74 708 l 275 708 l 275 329 q 281 213 275 246 q 302 170 286 179 q 360 161 318 161 q 420 176 401 161 q 444 226 439 190 q 450 342 450 263 l 450 708 l 651 708 l 651 0 l 461 0 l 456 85 m 149 839 l 149 850 l 267 1032 l 460 1032 l 579 850 l 579 839 l 444 839 l 363 946 l 282 839 l 149 839 z "},"ȕ":{"ha":728,"x_min":71,"x_max":651,"o":"m 456 85 l 444 85 q 263 -11 400 -11 q 142 17 183 -11 q 88 101 101 46 q 74 254 74 157 l 74 708 l 275 708 l 275 329 q 281 213 275 246 q 302 170 286 179 q 360 161 318 161 q 420 176 401 161 q 444 226 439 190 q 450 342 450 263 l 450 708 l 651 708 l 651 0 l 461 0 l 456 85 m 319 847 l 196 847 l 71 1011 l 71 1017 l 232 1017 l 319 853 l 319 847 m 554 847 l 431 847 l 306 1011 l 306 1017 l 468 1017 l 554 853 l 554 847 z "},"ü":{"ha":728,"x_min":74,"x_max":651,"o":"m 456 85 l 444 85 q 263 -11 400 -11 q 142 17 183 -11 q 88 101 101 46 q 74 254 74 157 l 74 708 l 275 708 l 275 329 q 281 213 275 246 q 302 170 286 179 q 360 161 318 161 q 420 176 401 161 q 444 226 439 190 q 450 342 450 263 l 450 708 l 651 708 l 651 0 l 461 0 l 456 85 m 147 864 l 147 1011 l 315 1011 l 315 864 l 147 864 m 413 864 l 413 1011 l 581 1011 l 581 864 l 413 864 z "},"ǘ":{"ha":728,"x_min":74,"x_max":651,"o":"m 456 85 l 444 85 q 263 -11 400 -11 q 142 17 183 -11 q 88 101 101 46 q 74 254 74 157 l 74 708 l 275 708 l 275 329 q 281 213 275 246 q 302 170 286 179 q 360 161 318 161 q 420 176 401 161 q 444 226 439 190 q 450 342 450 263 l 450 708 l 651 708 l 651 0 l 461 0 l 456 85 m 147 867 l 147 1014 l 315 1014 l 315 867 l 147 867 m 413 867 l 413 1014 l 581 1014 l 581 867 l 413 867 m 283 1053 l 283 1060 l 385 1254 l 582 1254 l 582 1247 l 433 1053 l 283 1053 z "},"ǚ":{"ha":728,"x_min":74,"x_max":651,"o":"m 456 85 l 444 85 q 263 -11 400 -11 q 142 17 183 -11 q 88 101 101 46 q 74 254 74 157 l 74 708 l 275 708 l 275 329 q 281 213 275 246 q 302 170 286 179 q 360 161 318 161 q 420 176 401 161 q 444 226 439 190 q 450 342 450 263 l 450 708 l 651 708 l 651 0 l 461 0 l 456 85 m 147 867 l 147 1014 l 315 1014 l 315 867 l 147 867 m 413 867 l 413 1014 l 581 1014 l 581 867 l 413 867 m 269 1061 l 151 1243 l 151 1254 l 285 1254 l 367 1147 l 447 1254 l 581 1254 l 581 1243 l 463 1061 l 269 1061 z "},"ǜ":{"ha":728,"x_min":74,"x_max":651,"o":"m 456 85 l 444 85 q 263 -11 400 -11 q 142 17 183 -11 q 88 101 101 46 q 74 254 74 157 l 74 708 l 275 708 l 275 329 q 281 213 275 246 q 302 170 286 179 q 360 161 318 161 q 420 176 401 161 q 444 226 439 190 q 450 342 450 263 l 450 708 l 651 708 l 651 0 l 461 0 l 456 85 m 147 867 l 147 1014 l 315 1014 l 315 867 l 147 867 m 413 867 l 413 1014 l 581 1014 l 581 867 l 413 867 m 296 1053 l 147 1247 l 147 1254 l 344 1254 l 446 1060 l 446 1053 l 296 1053 z "},"ǖ":{"ha":728,"x_min":74,"x_max":651,"o":"m 456 85 l 444 85 q 263 -11 400 -11 q 142 17 183 -11 q 88 101 101 46 q 74 254 74 157 l 74 708 l 275 708 l 275 329 q 281 213 275 246 q 302 170 286 179 q 360 161 318 161 q 420 176 401 161 q 444 226 439 190 q 450 342 450 263 l 450 708 l 651 708 l 651 0 l 461 0 l 456 85 m 147 867 l 147 1014 l 315 1014 l 315 867 l 147 867 m 413 867 l 413 1014 l 581 1014 l 581 867 l 413 867 m 200 1085 l 200 1254 l 535 1254 l 535 1085 l 200 1085 z "},"ụ":{"ha":728,"x_min":74,"x_max":651,"o":"m 456 85 l 444 85 q 263 -11 400 -11 q 142 17 183 -11 q 88 101 101 46 q 74 254 74 157 l 74 708 l 275 708 l 275 329 q 281 213 275 246 q 302 170 286 179 q 360 161 318 161 q 420 176 401 161 q 444 226 439 190 q 450 342 450 263 l 450 708 l 651 708 l 651 0 l 461 0 l 456 85 m 235 -278 l 235 -86 l 451 -86 l 451 -278 l 235 -278 z "},"ù":{"ha":728,"x_min":74,"x_max":651,"o":"m 456 85 l 444 85 q 263 -11 400 -11 q 142 17 183 -11 q 88 101 101 46 q 74 254 74 157 l 74 708 l 275 708 l 275 329 q 281 213 275 246 q 302 170 286 179 q 360 161 318 161 q 420 176 401 161 q 444 226 439 190 q 450 342 450 263 l 450 708 l 651 708 l 651 0 l 461 0 l 456 85 m 297 831 l 149 1025 l 149 1032 l 346 1032 l 447 838 l 447 831 l 297 831 z "},"ủ":{"ha":728,"x_min":74,"x_max":651,"o":"m 456 85 l 444 85 q 263 -11 400 -11 q 142 17 183 -11 q 88 101 101 46 q 74 254 74 157 l 74 708 l 275 708 l 275 329 q 281 213 275 246 q 302 170 286 179 q 360 161 318 161 q 420 176 401 161 q 444 226 439 190 q 450 342 450 263 l 450 708 l 651 708 l 651 0 l 461 0 l 456 85 m 269 865 q 282 924 269 907 q 332 951 294 940 l 353 958 q 394 977 385 969 q 404 1001 404 985 q 390 1028 404 1024 q 331 1033 376 1033 q 189 1026 258 1033 l 189 1129 q 354 1144 274 1144 q 456 1135 417 1144 q 517 1099 494 1126 q 539 1017 539 1071 q 521 942 539 965 q 454 901 503 919 l 432 893 q 392 874 400 882 q 385 847 385 867 l 269 847 l 269 865 z "},"ư":{"ha":728,"x_min":74,"x_max":763,"o":"m 763 836 l 763 804 q 754 714 763 747 q 722 661 746 681 q 651 635 699 642 l 651 0 l 461 0 l 456 85 l 444 85 q 263 -11 400 -11 q 142 17 183 -11 q 88 101 101 46 q 74 254 74 157 l 74 708 l 275 708 l 275 329 q 281 213 275 246 q 302 170 286 179 q 360 161 318 161 q 420 176 401 161 q 444 226 439 190 q 450 342 450 263 l 450 708 l 543 708 q 601 715 582 708 q 626 738 619 722 q 632 785 632 753 l 632 836 l 763 836 z "},"ứ":{"ha":728,"x_min":74,"x_max":763,"o":"m 763 836 l 763 804 q 754 714 763 747 q 722 661 746 681 q 651 635 699 642 l 651 0 l 461 0 l 456 85 l 444 85 q 263 -11 400 -11 q 142 17 183 -11 q 88 101 101 46 q 74 254 74 157 l 74 708 l 275 708 l 275 329 q 281 213 275 246 q 302 170 286 179 q 360 161 318 161 q 420 176 401 161 q 444 226 439 190 q 450 342 450 263 l 450 708 l 543 708 q 601 715 582 708 q 626 738 619 722 q 632 785 632 753 l 632 836 l 763 836 m 281 831 l 281 838 l 382 1032 l 579 1032 l 579 1025 l 431 831 l 281 831 z "}}}
